<svg width="21" height="20" viewBox="0 0 21 20" fill="none" xmlns="http://www.w3.org/2000/svg">
<circle cx="10.551" cy="10" r="10" fill="#FCBF07"/>
<path d="M6.49421 16V14.2273L10.6363 10.392C10.9885 10.0511 11.284 9.74432 11.5226 9.47159C11.765 9.19886 11.9488 8.93182 12.0738 8.67045C12.1988 8.4053 12.2613 8.11932 12.2613 7.8125C12.2613 7.47159 12.1836 7.17803 12.0283 6.93182C11.873 6.68182 11.6609 6.49053 11.3919 6.35795C11.123 6.22159 10.8181 6.15341 10.4772 6.15341C10.1211 6.15341 9.8105 6.22538 9.54534 6.36932C9.28019 6.51326 9.07565 6.7197 8.93171 6.98864C8.78777 7.25758 8.7158 7.57765 8.7158 7.94886H6.38057C6.38057 7.1875 6.55292 6.52652 6.89762 5.96591C7.24231 5.4053 7.72527 4.97159 8.34648 4.66477C8.96769 4.35795 9.6836 4.20455 10.4942 4.20455C11.3275 4.20455 12.0529 4.35227 12.6703 4.64773C13.2916 4.93939 13.7745 5.3447 14.1192 5.86364C14.4639 6.38258 14.6363 6.97727 14.6363 7.64773C14.6363 8.08712 14.5491 8.52083 14.3749 8.94886C14.2044 9.37689 13.8995 9.85227 13.4601 10.375C13.0207 10.8939 12.4014 11.517 11.6022 12.2443L9.9033 13.9091V13.9886H14.7897V16H6.49421Z" fill="#141414"/>
</svg>
