<svg width="21" height="20" viewBox="0 0 21 20" fill="none" xmlns="http://www.w3.org/2000/svg">
<circle cx="10.551" cy="10" r="10" fill="#FCBF07"/>
<path d="M10.7953 16.1591C9.94686 16.1591 9.19118 16.0133 8.5283 15.7216C7.86921 15.4261 7.34837 15.0208 6.9658 14.5057C6.58701 13.9867 6.39193 13.3883 6.38057 12.7102H8.85784C8.873 12.9943 8.9658 13.2443 9.13625 13.4602C9.3105 13.6723 9.54156 13.8371 9.82943 13.9545C10.1173 14.072 10.4412 14.1307 10.801 14.1307C11.176 14.1307 11.5075 14.0644 11.7953 13.9318C12.0832 13.7992 12.3086 13.6155 12.4715 13.3807C12.6344 13.1458 12.7158 12.875 12.7158 12.5682C12.7158 12.2576 12.6287 11.983 12.4544 11.7443C12.284 11.5019 12.0378 11.3125 11.7158 11.1761C11.3976 11.0398 11.0188 10.9716 10.5794 10.9716H9.49421V9.16477H10.5794C10.9506 9.16477 11.2783 9.10038 11.5624 8.97159C11.8503 8.8428 12.0738 8.66477 12.2328 8.4375C12.3919 8.20644 12.4715 7.9375 12.4715 7.63068C12.4715 7.33902 12.4014 7.08333 12.2613 6.86364C12.1249 6.64015 11.9317 6.46591 11.6817 6.34091C11.4355 6.21591 11.1476 6.15341 10.8181 6.15341C10.4847 6.15341 10.1798 6.21402 9.9033 6.33523C9.62678 6.45265 9.40519 6.62121 9.23853 6.84091C9.07186 7.06061 8.98284 7.31818 8.97148 7.61364H6.61353C6.62489 6.94318 6.81618 6.35227 7.18739 5.84091C7.5586 5.32955 8.0586 4.92992 8.68739 4.64205C9.31996 4.35038 10.034 4.20455 10.8294 4.20455C11.6325 4.20455 12.3351 4.35038 12.9374 4.64205C13.5397 4.93371 14.0075 5.32765 14.3408 5.82386C14.6779 6.31629 14.8446 6.86932 14.8408 7.48295C14.8446 8.13447 14.6419 8.67803 14.2328 9.11364C13.8275 9.54924 13.2991 9.82576 12.6476 9.94318V10.0341C13.5037 10.1439 14.1552 10.4413 14.6022 10.9261C15.0529 11.4072 15.2764 12.0095 15.2726 12.733C15.2764 13.3958 15.0851 13.9848 14.6988 14.5C14.3162 15.0152 13.7878 15.4205 13.1135 15.7159C12.4393 16.0114 11.6666 16.1591 10.7953 16.1591Z" fill="#141414"/>
</svg>
