<svg width="21" height="20" viewBox="0 0 21 20" fill="none" xmlns="http://www.w3.org/2000/svg">
<circle cx="10.5511" cy="10" r="10" fill="#FCBF07"/>
<path d="M10.7443 16.1591C9.94124 16.1591 9.22533 16.0114 8.59654 15.7159C7.97154 15.4205 7.47533 15.0133 7.1079 14.4943C6.74048 13.9754 6.54919 13.3807 6.53404 12.7102H8.9204C8.94692 13.161 9.13631 13.5265 9.48859 13.8068C9.84086 14.0871 10.2594 14.2273 10.7443 14.2273C11.1306 14.2273 11.4715 14.142 11.767 13.9716C12.0662 13.7973 12.2992 13.5568 12.4659 13.25C12.6363 12.9394 12.7215 12.5833 12.7215 12.1818C12.7215 11.7727 12.6344 11.4129 12.4602 11.1023C12.2897 10.7917 12.053 10.5492 11.75 10.375C11.4469 10.2008 11.1003 10.1117 10.7102 10.108C10.3693 10.108 10.0378 10.178 9.71586 10.3182C9.39768 10.4583 9.14957 10.6496 8.97154 10.892L6.78404 10.5L7.33518 4.36364H14.4488V6.375H9.36359L9.06245 9.28977H9.13063C9.33518 9.00189 9.64389 8.76326 10.0568 8.57386C10.4696 8.38447 10.9318 8.28977 11.4431 8.28977C12.1439 8.28977 12.7689 8.45455 13.3181 8.78409C13.8674 9.11364 14.3011 9.56629 14.6193 10.142C14.9375 10.714 15.0946 11.3731 15.0909 12.1193C15.0946 12.9034 14.9128 13.6004 14.5454 14.2102C14.1818 14.8163 13.6723 15.2936 13.017 15.642C12.3655 15.9867 11.6079 16.1591 10.7443 16.1591Z" fill="#141414"/>
</svg>
