<svg width="21" height="20" viewBox="0 0 21 20" fill="none" xmlns="http://www.w3.org/2000/svg">
<circle cx="10.5511" cy="10" r="10" fill="#FCBF07"/>
<path d="M10.9602 16.1591C10.3617 16.1553 9.78404 16.0549 9.22722 15.858C8.67419 15.661 8.17798 15.3409 7.73859 14.8977C7.29919 14.4545 6.95071 13.8674 6.69313 13.1364C6.43934 12.4053 6.31245 11.5076 6.31245 10.4432C6.31624 9.46591 6.42798 8.5928 6.64768 7.82386C6.87116 7.05114 7.18934 6.39583 7.60222 5.85795C8.01889 5.32008 8.517 4.91098 9.09654 4.63068C9.67609 4.34659 10.3257 4.20455 11.0454 4.20455C11.8219 4.20455 12.5075 4.35606 13.1022 4.65909C13.6969 4.95833 14.1742 5.36553 14.534 5.88068C14.8977 6.39583 15.1174 6.97348 15.1931 7.61364H12.767C12.6723 7.20833 12.4734 6.89015 12.1704 6.65909C11.8674 6.42803 11.4924 6.3125 11.0454 6.3125C10.2878 6.3125 9.71207 6.64205 9.31813 7.30114C8.92798 7.96023 8.72912 8.85606 8.72154 9.98864H8.80109C8.97533 9.64394 9.21018 9.35038 9.50563 9.10795C9.80487 8.86174 10.1439 8.67424 10.5227 8.54545C10.9053 8.41288 11.3087 8.34659 11.7329 8.34659C12.4223 8.34659 13.0359 8.50947 13.5738 8.83523C14.1117 9.1572 14.5359 9.60038 14.8465 10.1648C15.1571 10.7292 15.3125 11.375 15.3125 12.1023C15.3125 12.8902 15.1287 13.5909 14.7613 14.2045C14.3977 14.8182 13.8882 15.2992 13.2329 15.6477C12.5814 15.9924 11.8238 16.1629 10.9602 16.1591ZM10.9488 14.2273C11.3276 14.2273 11.6666 14.1364 11.9659 13.9545C12.2651 13.7727 12.5 13.5265 12.6704 13.2159C12.8409 12.9053 12.9261 12.5568 12.9261 12.1705C12.9261 11.7841 12.8409 11.4375 12.6704 11.1307C12.5037 10.8239 12.2727 10.5795 11.9772 10.3977C11.6818 10.2159 11.3446 10.125 10.9659 10.125C10.6818 10.125 10.4185 10.178 10.1761 10.2841C9.93745 10.3902 9.72722 10.5379 9.5454 10.7273C9.36737 10.9167 9.22722 11.1364 9.12495 11.3864C9.02268 11.6326 8.97154 11.8958 8.97154 12.1761C8.97154 12.5511 9.05677 12.8939 9.22722 13.2045C9.40147 13.5152 9.63631 13.7633 9.93177 13.9489C10.231 14.1345 10.57 14.2273 10.9488 14.2273Z" fill="#141414"/>
</svg>
