<svg width="32" height="32" viewBox="0 0 32 32" fill="none" xmlns="http://www.w3.org/2000/svg">
<rect width="32" height="32" rx="8" fill="#FCBF07"/>
<mask id="mask0_18_128" style="mask-type:alpha" maskUnits="userSpaceOnUse" x="6" y="6" width="20" height="20">
<g clip-path="url(#clip0_18_128)">
<path d="M23.4003 22.5257C21.8793 24.1544 19.9894 25.1189 17.7804 25.3931C14.8311 25.7593 12.2402 24.9205 10.0584 22.8987C8.5093 21.4628 7.55567 19.6788 7.22037 17.596C6.75122 14.6806 7.47831 12.0706 9.39663 9.82326C10.9006 8.06141 12.8314 7.0274 15.1149 6.65745C15.3951 6.60783 15.6785 6.57895 15.9628 6.57105H15.9674C15.9677 6.57489 15.9677 6.57876 15.9674 6.58261C15.9674 6.63761 15.8975 6.62681 15.8556 6.63133C15.5771 6.66172 15.2985 6.6906 15.0223 6.73681C13.9021 6.92518 12.8458 7.29262 11.861 7.86325C11.2121 8.23799 10.6097 8.6879 10.0662 9.20366C9.36546 9.87056 8.77162 10.6414 8.30562 11.4892C7.79602 12.4107 7.46249 13.3927 7.2809 14.4269C7.22026 14.7814 7.18043 15.139 7.1616 15.4981C7.14955 15.7071 7.13649 15.9155 7.14201 16.1245C7.1612 17.2098 7.36285 18.2842 7.73851 19.3026C8.04244 20.1197 8.45875 20.8905 8.97545 21.5927C9.1998 21.895 9.44148 22.184 9.69928 22.4584C10.2697 23.0727 10.9176 23.5886 11.6284 24.0296C12.3702 24.4865 13.1725 24.8369 14.0119 25.0704C14.5839 25.2314 15.17 25.3378 15.7622 25.3881C17.4855 25.5282 19.2142 25.1928 20.7602 24.4187C21.5823 24.0024 22.34 23.4694 23.0098 22.8364C23.8319 22.0581 24.5063 21.1373 25.0002 20.1186C25.4429 19.2101 25.7342 18.2353 25.8626 17.2328C25.9269 16.7393 25.9653 16.2423 25.9435 15.7442C25.8975 14.7009 25.7077 13.6863 25.3407 12.7053C24.9886 11.7673 24.4889 10.8915 23.8607 10.1111C23.079 9.14047 22.1117 8.33533 21.0153 7.7427C19.919 7.15006 18.7155 6.78182 17.4753 6.65946C17.3839 6.65092 17.293 6.63585 17.2013 6.62857C17.1629 6.62555 17.1209 6.61852 17.1171 6.58085C17.1166 6.57752 17.1166 6.57413 17.1171 6.5708H17.1239C18.2263 6.62832 19.2811 6.88851 20.293 7.32427C21.3976 7.79467 22.3997 8.47625 23.2431 9.33075C24.7412 10.8487 25.6617 12.6678 25.9191 14.7863C26.279 17.745 25.4394 20.3442 23.4003 22.5257Z" fill="white"/>
<path d="M6 6.52332H6.03592C6.03024 6.52589 6.02478 6.52891 6.01959 6.53236C6.0127 6.53018 6.00612 6.52715 6 6.52332Z" fill="white"/>
<path d="M16.7206 6.55546C16.5716 6.55948 16.4224 6.56249 16.2735 6.55998H16.219C16.3863 6.55396 16.5534 6.55245 16.7206 6.55546Z" fill="white"/>
<path d="M6.01959 6.53236C6.02478 6.52891 6.03024 6.52589 6.03592 6.52332H6L6.01959 6.53236Z" fill="white"/>
<path d="M17.1237 6.57099C17.1217 6.57439 17.1195 6.57766 17.1171 6.58079C17.0606 6.6604 16.972 6.63629 16.8979 6.63102C16.7324 6.61504 16.5661 6.60908 16.3998 6.61319C16.2961 6.61746 16.1936 6.64333 16.0892 6.63253C16.0435 6.62775 15.9942 6.62926 15.9684 6.5823C15.9663 6.57863 15.9645 6.57486 15.9628 6.57099H15.9674C16.0511 6.56597 16.1348 6.56212 16.2185 6.55944C16.3859 6.55391 16.5534 6.55266 16.7208 6.55567C16.8529 6.55802 16.985 6.56312 17.1171 6.57099H17.1237Z" fill="white"/>
<path d="M14.4763 14.9211C13.7687 13.9575 13.8589 12.4053 15.1594 11.6833C15.3555 11.5709 15.561 11.4761 15.7737 11.3997C15.8656 11.3678 15.8975 11.3191 15.892 11.2256C15.8857 11.1129 15.8908 10.9996 15.8905 10.8868C15.8905 10.6078 15.9972 10.3891 16.2559 10.2655C16.5146 10.1419 16.7698 10.1771 17.0039 10.3383C17.1152 10.4113 17.2047 10.5132 17.2626 10.6331C17.3206 10.753 17.3449 10.8863 17.3329 11.0189C17.3158 11.2671 17.4065 11.3552 17.6378 11.4421C18.4199 11.736 18.9056 12.3124 19.0598 13.1377C19.1156 13.4358 19.0998 13.7493 19.0636 14.0509C19.0262 14.3596 18.8308 14.5725 18.5234 14.6424C18.2054 14.7144 17.9161 14.6424 17.6946 14.3844C17.6137 14.2864 17.5706 14.1626 17.573 14.0356C17.5712 13.9394 17.573 13.8432 17.573 13.747H17.5783C17.5783 13.7262 17.5783 13.7053 17.5783 13.6845C17.5813 13.1862 17.3198 12.8725 16.8092 12.7622C16.3695 12.667 15.8589 12.9041 15.7099 13.3148C15.5673 13.7086 15.6833 14.0745 15.9543 14.3854C16.1349 14.5926 16.377 14.7252 16.6028 14.8759C17.1523 15.2429 17.7202 15.5834 18.2242 16.0142C18.5256 16.2709 18.8047 16.5514 18.983 16.9083C19.7364 18.4195 18.9692 19.9749 17.4961 20.3368C17.4037 20.3597 17.3603 20.3978 17.3688 20.4986C17.3781 20.6066 17.3741 20.7158 17.3736 20.8251C17.3711 21.2284 17.0513 21.5308 16.6485 21.5032C16.3722 21.4851 16.1306 21.3939 15.994 21.1305C15.9144 20.977 15.9186 20.8065 15.9186 20.6392C15.9169 20.3838 15.9186 20.3838 15.676 20.3057C14.6905 19.9872 14.0078 19.0059 14.051 17.9699C14.0541 17.8988 14.0556 17.8278 14.0578 17.7567C14.0706 17.3548 14.3645 17.06 14.7658 17.0366C15.0547 17.0196 15.3061 17.0869 15.4884 17.3257C15.6152 17.4924 15.6713 17.7024 15.6444 17.9101C15.5826 18.4416 15.9651 18.8251 16.5109 18.8954C16.7369 18.9246 16.9629 18.9135 17.1764 18.8188C17.6923 18.5895 17.8684 18.1945 17.6049 17.667C17.4462 17.3493 17.195 17.11 16.9167 16.8975C16.7151 16.748 16.5047 16.6108 16.2866 16.4866C15.5871 16.0752 14.9602 15.5802 14.4763 14.9211Z" fill="white"/>
<path d="M25.9191 14.7863C25.6617 12.6688 24.7412 10.8497 23.2428 9.33119C22.3995 8.47634 21.3974 7.79441 20.2928 7.32371C19.2808 6.8887 18.226 6.62851 17.1237 6.57099H17.1169C16.9848 6.56296 16.8527 6.55785 16.7206 6.55567C16.5531 6.55266 16.3857 6.55391 16.2183 6.55944C16.1345 6.56229 16.0508 6.56614 15.9671 6.57099H15.9626C15.6782 6.57889 15.3948 6.60777 15.1147 6.65739C12.8304 7.02734 10.9003 8.06135 9.39663 9.82195C7.47856 12.0688 6.75146 14.6798 7.22062 17.5952C7.55566 19.678 8.5093 21.463 10.0587 22.8978C12.2405 24.9204 14.8306 25.7593 17.7807 25.3931C19.9894 25.1188 21.8793 24.1544 23.4003 22.5256C25.4394 20.3441 26.279 17.7449 25.9191 14.7863ZM16.5598 8.1809C20.8767 8.18542 24.3796 11.7086 24.3738 16.0421C24.3682 20.3464 20.8476 23.853 16.533 23.8495C12.2146 23.8457 8.70846 20.3248 8.71248 15.9948C8.717 11.6833 12.2382 8.17688 16.5598 8.1809Z" fill="white"/>
<path d="M17.4966 20.3383C17.4042 20.3612 17.3608 20.3993 17.3693 20.5001C17.3786 20.6081 17.3746 20.7173 17.3741 20.8266C17.3716 21.2299 17.0518 21.5323 16.649 21.5047C16.3727 21.4866 16.1311 21.3954 15.9945 21.132C15.9149 20.9785 15.9191 20.808 15.9191 20.6407C15.9174 20.3853 15.9191 20.3853 15.6765 20.3072C14.691 19.9887 14.0083 19.0074 14.0515 17.9714C14.0546 17.9004 14.0561 17.8293 14.0583 17.7582C14.0711 17.3564 14.365 17.0615 14.7663 17.0381C15.0552 17.0211 15.3066 17.0884 15.4889 17.3272C15.6152 17.4936 15.671 17.703 15.6444 17.9101C15.5826 18.4416 15.9651 18.8251 16.5109 18.8954C16.7369 18.9246 16.9629 18.9135 17.1764 18.8188C17.6923 18.5895 17.8684 18.1945 17.6049 17.667C17.4462 17.3493 17.195 17.11 16.9167 16.8975C16.7151 16.748 16.5047 16.6108 16.2866 16.4866C15.5884 16.0752 14.9615 15.5802 14.4783 14.9211C13.7687 13.9575 13.8589 12.4053 15.1594 11.6833C15.3555 11.5709 15.561 11.4761 15.7737 11.3997C15.8656 11.3678 15.8975 11.3191 15.892 11.2256C15.8857 11.1129 15.8908 10.9996 15.8905 10.8868C15.8905 10.6078 15.9972 10.3891 16.2559 10.2655C16.5146 10.1419 16.7698 10.1771 17.0039 10.3383C17.1152 10.4113 17.2047 10.5132 17.2626 10.6331C17.3206 10.753 17.3449 10.8863 17.3329 11.0189C17.3158 11.2671 17.4065 11.3552 17.6378 11.4421C18.4199 11.736 18.9056 12.3124 19.0598 13.1377C19.1156 13.4358 19.0998 13.7493 19.0636 14.0509C19.0262 14.3596 18.8308 14.5725 18.5234 14.6424C18.2054 14.7144 17.9161 14.6424 17.6946 14.3844C17.6137 14.2864 17.5706 14.1626 17.573 14.0356C17.5712 13.9394 17.573 13.8432 17.573 13.747H17.5783C17.5783 13.7262 17.5783 13.7053 17.5783 13.6845C17.5813 13.1862 17.3198 12.8725 16.8092 12.7622C16.3695 12.667 15.8589 12.9041 15.7099 13.3148C15.5673 13.7086 15.6833 14.0745 15.9543 14.3854C16.1349 14.5926 16.377 14.7252 16.6028 14.8759C17.1523 15.2429 17.7202 15.5834 18.2242 16.0142C18.5256 16.2709 18.8047 16.5514 18.983 16.9083C19.7382 18.421 18.9697 19.9764 17.4966 20.3383Z" fill="white"/>
<path d="M17.4966 20.3383C17.4042 20.3612 17.3608 20.3993 17.3693 20.5001C17.3786 20.6081 17.3746 20.7173 17.3741 20.8266C17.3716 21.2299 17.0518 21.5323 16.649 21.5047C16.3727 21.4866 16.1311 21.3954 15.9945 21.132C15.9149 20.9785 15.9191 20.808 15.9191 20.6407C15.9174 20.3853 15.9191 20.3853 15.6765 20.3072C14.691 19.9887 14.0083 19.0074 14.0515 17.9714C14.0546 17.9004 14.0561 17.8293 14.0583 17.7582C14.0711 17.3564 14.365 17.0615 14.7663 17.0381C15.0552 17.0211 15.3066 17.0884 15.4889 17.3272C15.6152 17.4936 15.671 17.703 15.6444 17.9101C15.5826 18.4416 15.9651 18.8251 16.5109 18.8954C16.7369 18.9246 16.9629 18.9135 17.1764 18.8188C17.6923 18.5895 17.8684 18.1945 17.6049 17.667C17.4462 17.3493 17.195 17.11 16.9167 16.8975C16.7151 16.748 16.5047 16.6108 16.2866 16.4866C15.5884 16.0752 14.9615 15.5802 14.4783 14.9211C13.7687 13.9575 13.8589 12.4053 15.1594 11.6833C15.3555 11.5709 15.561 11.4761 15.7737 11.3997C15.8656 11.3678 15.8975 11.3191 15.892 11.2256C15.8857 11.1129 15.8908 10.9996 15.8905 10.8868C15.8905 10.6078 15.9972 10.3891 16.2559 10.2655C16.5146 10.1419 16.7698 10.1771 17.0039 10.3383C17.1152 10.4113 17.2047 10.5132 17.2626 10.6331C17.3206 10.753 17.3449 10.8863 17.3329 11.0189C17.3158 11.2671 17.4065 11.3552 17.6378 11.4421C18.4199 11.736 18.9056 12.3124 19.0598 13.1377C19.1156 13.4358 19.0998 13.7493 19.0636 14.0509C19.0262 14.3596 18.8308 14.5725 18.5234 14.6424C18.2054 14.7144 17.9161 14.6424 17.6946 14.3844C17.6137 14.2864 17.5706 14.1626 17.573 14.0356C17.5712 13.9394 17.573 13.8432 17.573 13.747H17.5783C17.5783 13.7262 17.5783 13.7053 17.5783 13.6845C17.5813 13.1862 17.3198 12.8725 16.8092 12.7622C16.3695 12.667 15.8589 12.9041 15.7099 13.3148C15.5673 13.7086 15.6833 14.0745 15.9543 14.3854C16.1349 14.5926 16.377 14.7252 16.6028 14.8759C17.1523 15.2429 17.7202 15.5834 18.2242 16.0142C18.5256 16.2709 18.8047 16.5514 18.983 16.9083C19.7382 18.421 18.9697 19.9764 17.4966 20.3383Z" fill="white"/>
</g>
</mask>
<g mask="url(#mask0_18_128)">
<rect x="6" y="6" width="20" height="20" fill="#202125"/>
</g>
<defs>
<clipPath id="clip0_18_128">
<rect width="20" height="18.9534" fill="white" transform="translate(6 6.52332)"/>
</clipPath>
</defs>
</svg>
