<svg width="32" height="32" viewBox="0 0 32 32" fill="none" xmlns="http://www.w3.org/2000/svg">
<rect width="32" height="32" rx="8" fill="#FCBF07"/>
<mask id="mask0_18_147" style="mask-type:alpha" maskUnits="userSpaceOnUse" x="6" y="6" width="20" height="20">
<g clip-path="url(#clip0_18_147)">
<path opacity="0.95" d="M24.0142 6.37964C18.6714 6.40537 13.3322 6.40537 7.99657 6.37964C7.0401 6.37964 6.35814 6.65843 6 7.572V22.8926C6.28093 23.5639 6.71413 24.0464 7.52906 24.0893C7.58911 24.6576 7.36822 25.3374 8.11023 25.6269H10.0618C10.7437 25.3224 10.6 24.6983 10.6172 24.1129H21.3721C21.415 24.6726 21.2434 25.3224 21.9382 25.6269H23.9691C24.5867 25.2795 24.428 24.6576 24.4731 24.0936C25.2773 24.0464 25.7234 23.5703 26 22.8926V7.572C25.6419 6.65843 24.9599 6.37964 24.0142 6.37964ZM8.41904 15.6698C7.95582 16.0472 7.50118 16.4333 7.0401 16.815C6.97148 16.8707 6.90714 16.963 6.80635 16.9158C6.70555 16.8686 6.72486 16.7614 6.72486 16.6734V16.5576C6.72486 15.8092 6.72486 15.0565 6.72486 14.3166V14.1793C6.72486 14.085 6.70341 13.9649 6.87068 13.937C6.93287 13.9768 6.99299 14.0198 7.05083 14.0657C7.50976 14.4453 7.9644 14.8356 8.42977 15.2109C8.64636 15.3867 8.6142 15.5111 8.41904 15.6698ZM21.9918 16.1159C21.8517 17.1903 21.4308 18.2089 20.7716 19.0689C20.57 19.3348 20.407 19.3262 20.1969 19.0839C20.0382 18.9016 19.858 18.7365 19.6822 18.5671C19.5385 18.4298 19.3734 18.2625 19.1782 18.4448C18.9831 18.6271 19.1332 18.803 19.2726 18.9531C19.4634 19.1482 19.65 19.3455 19.8516 19.53C20.0532 19.7144 20.0425 19.8474 19.8366 20.0103C18.9667 20.7051 17.9203 21.1433 16.8149 21.2756C16.534 21.3121 16.4203 21.1791 16.4203 20.9132C16.4321 20.7161 16.4321 20.5184 16.4203 20.3213C16.3989 20.0854 16.5404 19.6972 16.1759 19.6972C15.7684 19.6972 15.9292 20.1004 15.8992 20.3406C15.8874 20.5213 15.8874 20.7025 15.8992 20.8832C15.8992 21.1727 15.7791 21.3121 15.4703 21.2692C14.3646 21.1309 13.3199 20.6851 12.4551 19.9825C12.2685 19.8345 12.2728 19.693 12.4422 19.5343C12.6116 19.3756 12.8325 19.1504 13.0212 18.9552C13.1606 18.8094 13.33 18.6378 13.1478 18.447C12.9655 18.2561 12.7639 18.4234 12.6095 18.5714C12.4551 18.7193 12.2385 18.9295 12.0669 19.1182C11.8953 19.3069 11.7495 19.3177 11.5822 19.1182C10.8841 18.2494 10.4448 17.2014 10.3148 16.0944C10.2827 15.8221 10.4092 15.6998 10.6751 15.6977C10.9775 15.6977 11.2799 15.6977 11.5844 15.6848C11.7431 15.6848 11.9082 15.6505 11.9168 15.4532C11.9254 15.2559 11.7581 15.1723 11.5758 15.1723C11.2713 15.1723 10.971 15.1615 10.6665 15.1615C10.362 15.1615 10.2805 15.0243 10.3127 14.7627C10.4456 13.6579 10.8829 12.6117 11.5758 11.741C11.7474 11.5265 11.8889 11.5587 12.0605 11.741C12.2556 11.9554 12.4615 12.1549 12.6695 12.3522C12.8111 12.4851 12.9848 12.5838 13.1478 12.4058C13.3107 12.2278 13.1992 12.0927 13.077 11.9554C12.8625 11.741 12.6481 11.5265 12.4336 11.3121C12.2556 11.1427 12.2792 11.0054 12.4594 10.8617C13.3399 10.1588 14.4018 9.72002 15.5218 9.59645C15.5664 9.58313 15.6137 9.58121 15.6593 9.59087C15.7049 9.60053 15.7473 9.62146 15.7827 9.65175C15.8181 9.68204 15.8454 9.72072 15.862 9.76426C15.8786 9.8078 15.884 9.8548 15.8778 9.90098C15.8698 10.0812 15.8748 10.2619 15.8928 10.4414C15.9378 10.7073 15.7148 11.1748 16.1651 11.1748C16.5726 11.1748 16.3796 10.7245 16.4118 10.4693C16.4271 10.2881 16.4307 10.1062 16.4225 9.92457C16.4225 9.66722 16.5597 9.56643 16.8042 9.60074C17.9258 9.73045 18.9872 10.1768 19.8645 10.8875C20.0618 11.0462 20.0189 11.1813 19.8645 11.3357C19.65 11.5501 19.4356 11.7646 19.2211 11.979C19.101 12.112 19.0238 12.2771 19.1761 12.423C19.3283 12.5688 19.4892 12.4851 19.62 12.3651C19.8344 12.1656 20.036 11.9662 20.2333 11.7539C20.4306 11.5416 20.5614 11.5394 20.7437 11.7689C21.4223 12.6285 21.8538 13.6569 21.9918 14.7434C22.0326 15.0393 21.9061 15.1723 21.6166 15.1723C21.327 15.1723 21.0118 15.1723 20.7051 15.1723C20.54 15.1723 20.3942 15.228 20.392 15.4253C20.3899 15.6226 20.5378 15.6784 20.703 15.6827C21.0054 15.6934 21.3077 15.6955 21.6101 15.6955C21.9125 15.6955 22.0347 15.8156 21.9918 16.1159Z" fill="white"/>
<path d="M19.2018 15.4875C19.1908 16.0887 19.0021 16.6733 18.6596 17.1675C18.3171 17.6617 17.836 18.0436 17.2769 18.265C16.7178 18.4864 16.1058 18.5374 15.5177 18.4117C14.9297 18.286 14.392 17.9891 13.9724 17.5584C13.5527 17.1278 13.2698 16.5826 13.1594 15.9915C13.0489 15.4004 13.1158 14.7898 13.3516 14.2367C13.5874 13.6835 13.9816 13.2125 14.4845 12.8829C14.9875 12.5533 15.5767 12.3798 16.178 12.3844C16.5819 12.3839 16.9819 12.4645 17.3541 12.6213C17.7264 12.7781 18.0634 13.0079 18.3454 13.2972C18.6273 13.5865 18.8483 13.9294 18.9954 14.3056C19.1425 14.6818 19.2127 15.0837 19.2018 15.4875Z" fill="white"/>
<path d="M6.72486 14.3144C6.72486 15.0629 6.72486 15.8156 6.72486 16.5555C6.5297 16.7185 6.33669 16.8793 6.1394 17.0401C6.09799 17.0838 6.05114 17.122 6 17.1538V13.7225C6.05325 13.7562 6.10413 13.7934 6.15226 13.834L6.72486 14.3144Z" fill="white"/>
</g>
</mask>
<g mask="url(#mask0_18_147)">
<rect x="6" y="6" width="20" height="20" fill="#202125"/>
</g>
<defs>
<clipPath id="clip0_18_147">
<rect width="20" height="19.2408" fill="white" transform="translate(6 6.37964)"/>
</clipPath>
</defs>
</svg>
