<svg width="32" height="32" viewBox="0 0 32 32" fill="none" xmlns="http://www.w3.org/2000/svg">
<rect width="32" height="32" rx="8" fill="#FCBF07"/>
<path d="M16 20.1667C16.9167 20.1667 17.6667 19.4167 17.6667 18.5C17.6667 17.5834 16.9167 16.8334 16 16.8334C15.0833 16.8334 14.3333 17.5834 14.3333 18.5C14.3333 19.4167 15.0833 20.1667 16 20.1667ZM21 12.6667H20.1667V11C20.1667 8.70004 18.3 6.83337 16 6.83337C13.7 6.83337 11.8333 8.70004 11.8333 11H13.4167C13.4167 9.57504 14.575 8.41671 16 8.41671C17.425 8.41671 18.5833 9.57504 18.5833 11V12.6667H11C10.0833 12.6667 9.33334 13.4167 9.33334 14.3334V22.6667C9.33334 23.5834 10.0833 24.3334 11 24.3334H21C21.9167 24.3334 22.6667 23.5834 22.6667 22.6667V14.3334C22.6667 13.4167 21.9167 12.6667 21 12.6667ZM21 22.6667H11V14.3334H21V22.6667Z" fill="#202125"/>
</svg>
