<svg width="32" height="32" viewBox="0 0 32 32" fill="none" xmlns="http://www.w3.org/2000/svg">
<rect width="32" height="32" rx="8" fill="#FCBF07"/>
<mask id="mask0_18_190" style="mask-type:alpha" maskUnits="userSpaceOnUse" x="6" y="6" width="20" height="20">
<g clip-path="url(#clip0_18_190)">
<path d="M25.5278 23.5984C25.4077 23.8642 25.2228 23.8974 25.0155 23.6904C24.2498 22.93 23.4893 22.1611 22.7201 21.4023C22.2034 20.8924 21.3861 21.0657 21.1611 21.7293C21.0331 22.1071 21.1339 22.4353 21.4113 22.7131C22.1608 23.4636 22.9105 24.2136 23.6602 24.9628C23.9232 25.2262 23.8908 25.3967 23.5514 25.542C23.0222 25.771 22.4481 25.8776 21.872 25.8537C21.2959 25.8298 20.7326 25.676 20.2242 25.4039C19.7159 25.1318 19.2756 24.7483 18.9362 24.2822C18.5968 23.816 18.3671 23.2792 18.2642 22.7119C18.1559 22.1535 18.1813 21.5775 18.3382 21.0309C18.3783 20.8976 18.3543 20.8163 18.2582 20.7195C17.5133 19.9834 16.7753 19.241 16.0341 18.5017C15.9868 18.46 15.9366 18.4216 15.884 18.3869L18.3675 15.897C18.4119 15.9394 18.4635 15.9866 18.5127 16.0363C19.2532 16.7763 19.9936 17.5147 20.7317 18.2592C20.8233 18.352 20.9002 18.3721 21.0255 18.3392C23.2328 17.7549 25.3937 19.1153 25.8063 21.3554C25.9496 22.1275 25.8476 22.8796 25.5278 23.5984Z" fill="white"/>
<path d="M15.9016 13.4263L13.3873 15.8826C12.6748 15.1622 11.9736 14.4598 11.278 13.7501C11.1831 13.6533 11.1035 13.6273 10.9678 13.6629C8.71447 14.2608 6.51114 12.8064 6.17374 10.4922C6.06889 9.78221 6.17407 9.05706 6.47632 8.40613C6.6024 8.12917 6.78091 8.09715 6.99944 8.31528C7.7647 9.07814 8.52515 9.8462 9.29401 10.6051C9.83514 11.1386 10.68 10.9072 10.8658 10.176C10.9558 9.82178 10.8305 9.5248 10.5764 9.27185C9.83887 8.53755 9.10297 7.8019 8.36866 7.06493C8.33544 7.03171 8.30102 7.00009 8.2698 6.96567C8.1061 6.78236 8.13692 6.60065 8.35905 6.49939C8.9326 6.23763 9.53656 6.10675 10.1657 6.14998C11.9468 6.27285 13.2956 7.41874 13.7075 9.15178C13.8491 9.75047 13.8344 10.3755 13.6646 10.9669C13.6278 11.0993 13.6506 11.1822 13.7487 11.2791C14.4555 11.9763 15.1563 12.6811 15.9016 13.4263Z" fill="white"/>
<path d="M25.8364 13.4465C25.3232 13.9801 24.7989 14.5024 24.2634 15.0134C24.0173 15.248 23.6306 15.2067 23.3993 14.9606C23.2863 14.845 23.2231 14.6898 23.2231 14.5281C23.2231 14.3665 23.2863 14.2113 23.3993 14.0957C23.4573 14.0324 23.5274 13.9808 23.6126 13.9052C23.1175 13.5081 22.6921 13.0731 22.1405 12.8081C22.0437 12.7621 21.9076 12.7212 21.8167 12.7537C21.4645 12.8797 21.2096 12.7248 20.967 12.5079C20.9148 12.4555 20.8661 12.3996 20.8213 12.3406L15.0379 18.1381L13.6599 16.7773L19.3989 11.0322C19.312 10.8541 19.0923 10.5711 19.1363 10.3634C19.1555 10.2931 19.1843 10.2257 19.222 10.1633C19.4657 9.70583 19.4677 9.24756 19.262 8.77167C19.0247 8.21614 18.5972 7.83191 18.0921 7.52692C17.4241 7.12268 16.6865 6.91296 15.922 6.77367C15.7855 6.74846 15.653 6.70083 15.5186 6.66361L15.5114 6.58676C15.5981 6.53637 15.688 6.49146 15.7803 6.45228C16.6384 6.14529 17.4974 6.21213 18.3499 6.47149C19.5886 6.84692 20.6388 7.55214 21.6274 8.36463C22.4715 9.05744 23.2608 9.80309 23.7927 10.7729C23.9508 11.0606 24.1449 11.3816 24.1481 11.6894C24.1529 12.1657 24.4335 12.4563 24.6757 12.8565C24.7534 12.7574 24.8363 12.6626 24.9242 12.5724C25.1876 12.3286 25.5582 12.3342 25.8047 12.578C26.0429 12.8101 26.0737 13.1999 25.8364 13.4465Z" fill="white"/>
<path d="M14.4147 19.1597C13.6409 20.0247 12.8671 20.8886 12.0933 21.7512C10.971 23.0013 9.84807 24.2506 8.72446 25.4991C8.42949 25.8269 8.15732 25.8321 7.84033 25.5163C7.30134 24.9808 6.76329 24.4435 6.22617 23.9045C5.91958 23.5976 5.92238 23.3286 6.24818 23.036C7.77603 21.664 9.30495 20.2936 10.8349 18.9248C11.1879 18.6086 11.539 18.2904 11.892 17.9746C12.0673 17.8177 12.2378 17.6544 12.4199 17.5059C12.59 17.3662 12.7581 17.1481 12.9962 17.1381C13.2456 17.1273 13.5069 17.3466 13.669 17.5151C13.898 17.7523 14.1268 17.9899 14.3554 18.2279C14.4311 18.2995 14.4967 18.3811 14.5504 18.4705C14.674 18.699 14.5772 18.978 14.4147 19.1597Z" fill="white"/>
</g>
</mask>
<g mask="url(#mask0_18_190)">
<rect x="6" y="6" width="20" height="20" fill="#202125"/>
<rect x="6" y="6" width="20" height="20" fill="#202125"/>
</g>
<defs>
<clipPath id="clip0_18_190">
<rect width="20" height="19.7158" fill="white" transform="translate(6 6.14209)"/>
</clipPath>
</defs>
</svg>
