<svg width="32" height="32" viewBox="0 0 32 32" fill="none" xmlns="http://www.w3.org/2000/svg">
<rect width="32" height="32" rx="8" fill="#FCBF07"/>
<g clip-path="url(#clip0_18_117)">
<path d="M16.7417 15.25C15.2583 14.7584 14.5417 14.45 14.5417 13.6667C14.5417 12.8167 15.4667 12.5084 16.05 12.5084C17.1417 12.5084 17.5417 13.3334 17.6333 13.625L18.95 13.0667C18.825 12.6917 18.2667 11.4667 16.8333 11.2V10.1667H15.1667V11.2167C13.1 11.6834 13.0917 13.6 13.0917 13.6834C13.0917 15.575 14.9667 16.1084 15.8833 16.4417C17.2 16.9084 17.7833 17.3334 17.7833 18.1334C17.7833 19.075 16.9083 19.475 16.1333 19.475C14.6167 19.475 14.1833 17.9167 14.1333 17.7334L12.75 18.2917C13.275 20.1167 14.65 20.6084 15.1667 20.7584V21.8334H16.8333V20.8C17.1667 20.725 19.25 20.3084 19.25 18.1167C19.25 16.9584 18.7417 15.9417 16.7417 15.25ZM8.50001 23.5H6.83334V18.5H11.8333V20.1667H9.76668C11.1083 22.175 13.4 23.5 16 23.5C20.1417 23.5 23.5 20.1417 23.5 16H25.1667C25.1667 21.0667 21.0667 25.1667 16 25.1667C12.9 25.1667 10.1583 23.625 8.50001 21.275V23.5ZM6.83334 16C6.83334 10.9334 10.9333 6.83337 16 6.83337C19.1 6.83337 21.8417 8.37504 23.5 10.725V8.50004H25.1667V13.5H20.1667V11.8334H22.2333C20.8917 9.82504 18.6 8.50004 16 8.50004C11.8583 8.50004 8.50001 11.8584 8.50001 16H6.83334Z" fill="#202125"/>
</g>
<defs>
<clipPath id="clip0_18_117">
<rect width="20" height="20" fill="white" transform="translate(6 6)"/>
</clipPath>
</defs>
</svg>
