<svg width="32" height="32" viewBox="0 0 32 32" fill="none" xmlns="http://www.w3.org/2000/svg">
<rect width="32" height="32" rx="8" fill="#FCBF07"/>
<path d="M23.2559 22.0726L20.4226 19.2476C21.3367 18.0829 21.8327 16.6448 21.8309 15.1642C21.8309 13.8457 21.4399 12.5568 20.7074 11.4604C19.9748 10.3641 18.9336 9.50962 17.7155 9.00503C16.4973 8.50045 15.1568 8.36842 13.8636 8.62566C12.5704 8.88289 11.3825 9.51783 10.4502 10.4502C9.51783 11.3825 8.88289 12.5704 8.62566 13.8636C8.36842 15.1568 8.50045 16.4973 9.00503 17.7155C9.50962 18.9336 10.3641 19.9748 11.4604 20.7074C12.5568 21.4399 13.8457 21.8309 15.1642 21.8309C16.6448 21.8327 18.0829 21.3367 19.2476 20.4226L22.0726 23.2559C22.15 23.334 22.2422 23.396 22.3437 23.4383C22.4453 23.4806 22.5542 23.5024 22.6642 23.5024C22.7742 23.5024 22.8832 23.4806 22.9847 23.4383C23.0863 23.396 23.1784 23.334 23.2559 23.2559C23.334 23.1784 23.396 23.0863 23.4383 22.9847C23.4806 22.8832 23.5024 22.7742 23.5024 22.6642C23.5024 22.5542 23.4806 22.4453 23.4383 22.3437C23.396 22.2422 23.334 22.15 23.2559 22.0726ZM10.1642 15.1642C10.1642 14.1753 10.4575 13.2086 11.0069 12.3864C11.5563 11.5641 12.3372 10.9233 13.2508 10.5448C14.1644 10.1664 15.1698 10.0674 16.1397 10.2603C17.1096 10.4532 18.0005 10.9294 18.6998 11.6287C19.399 12.328 19.8752 13.2189 20.0682 14.1888C20.2611 15.1587 20.1621 16.164 19.7836 17.0776C19.4052 17.9913 18.7643 18.7722 17.9421 19.3216C17.1198 19.871 16.1531 20.1642 15.1642 20.1642C13.8381 20.1642 12.5664 19.6374 11.6287 18.6998C10.691 17.7621 10.1642 16.4903 10.1642 15.1642Z" fill="#202125"/>
</svg>
