<svg width="20" height="21" viewBox="0 0 20 21" fill="none" xmlns="http://www.w3.org/2000/svg">
<path d="M7.19 4.84999C5.15 7.13999 3.75 10.43 3.62 10.74L0 9.18998L4.05 5.13999C4.52 4.66999 5.2 4.45999 5.86 4.58999L7.19 4.84999ZM9.17 15.5C9.17 15.5 12.91 13.95 15.06 11.8C20.46 6.39998 19.56 2.17999 19.27 1.22999C18.32 0.929985 14.1 0.0399852 8.7 5.43999C6.55 7.58999 5 11.33 5 11.33L9.17 15.5ZM15.65 13.31C13.36 15.35 10.07 16.75 9.76 16.88L11.31 20.5L15.36 16.45C15.83 15.98 16.04 15.3 15.91 14.64L15.65 13.31ZM7 16.5C7 17.33 6.66 18.08 6.12 18.62C4.94 19.8 0 20.5 0 20.5C0 20.5 0.7 15.56 1.88 14.38C2.42 13.84 3.17 13.5 4 13.5C5.66 13.5 7 14.84 7 16.5ZM11 7.49999C11 6.39999 11.9 5.49999 13 5.49999C14.1 5.49999 15 6.39999 15 7.49999C15 8.59999 14.1 9.49998 13 9.49998C11.9 9.49998 11 8.59999 11 7.49999Z" fill="#FCBF07"/>
</svg>
