<svg width="32" height="32" viewBox="0 0 32 32" fill="none" xmlns="http://www.w3.org/2000/svg">
<rect width="32" height="32" rx="8" fill="#282828"/>
<path d="M23.2559 22.0731L20.4226 19.248C21.3367 18.0834 21.8327 16.6453 21.8309 15.1647C21.8309 13.8462 21.4399 12.5572 20.7074 11.4609C19.9748 10.3646 18.9336 9.5101 17.7155 9.00552C16.4973 8.50094 15.1568 8.36891 13.8636 8.62615C12.5704 8.88338 11.3825 9.51832 10.4502 10.4507C9.51783 11.383 8.88289 12.5709 8.62566 13.8641C8.36842 15.1573 8.50045 16.4978 9.00503 17.7159C9.50962 18.9341 10.3641 19.9753 11.4604 20.7078C12.5568 21.4404 13.8457 21.8314 15.1642 21.8314C16.6448 21.8332 18.0829 21.3372 19.2476 20.423L22.0726 23.2564C22.15 23.3345 22.2422 23.3965 22.3437 23.4388C22.4453 23.4811 22.5542 23.5029 22.6642 23.5029C22.7742 23.5029 22.8832 23.4811 22.9847 23.4388C23.0863 23.3965 23.1784 23.3345 23.2559 23.2564C23.334 23.1789 23.396 23.0867 23.4383 22.9852C23.4806 22.8836 23.5024 22.7747 23.5024 22.6647C23.5024 22.5547 23.4806 22.4458 23.4383 22.3442C23.396 22.2427 23.334 22.1505 23.2559 22.0731ZM10.1642 15.1647C10.1642 14.1758 10.4575 13.2091 11.0069 12.3869C11.5563 11.5646 12.3372 10.9238 13.2508 10.5453C14.1644 10.1669 15.1698 10.0679 16.1397 10.2608C17.1096 10.4537 18.0005 10.9299 18.6998 11.6292C19.399 12.3284 19.8752 13.2194 20.0682 14.1893C20.2611 15.1592 20.1621 16.1645 19.7836 17.0781C19.4052 17.9918 18.7643 18.7727 17.9421 19.3221C17.1198 19.8715 16.1531 20.1647 15.1642 20.1647C13.8381 20.1647 12.5664 19.6379 11.6287 18.7003C10.691 17.7626 10.1642 16.4908 10.1642 15.1647Z" fill="#86888C"/>
</svg>
