<svg width="28" height="28" viewBox="0 0 28 28" fill="none" xmlns="http://www.w3.org/2000/svg">
<circle cx="14" cy="14" r="14" fill="#282828"/>
<path d="M14.9759 13.7827L18.3158 10.4429C18.4743 10.2846 18.5634 10.0699 18.5636 9.84596C18.5638 9.62199 18.475 9.40712 18.3168 9.24861C18.1586 9.0901 17.9439 9.00094 17.7199 9.00075C17.4959 9.00055 17.2811 9.08933 17.1226 9.24756L13.7827 12.5874L10.4429 9.24756C10.2844 9.08905 10.0694 9 9.84521 9C9.62105 9 9.40607 9.08905 9.24756 9.24756C9.08905 9.40607 9 9.62105 9 9.84521C9 10.0694 9.08905 10.2844 9.24756 10.4429L12.5874 13.7827L9.24756 17.1226C9.08905 17.2811 9 17.496 9 17.7202C9 17.9444 9.08905 18.1594 9.24756 18.3179C9.40607 18.4764 9.62105 18.5654 9.84521 18.5654C10.0694 18.5654 10.2844 18.4764 10.4429 18.3179L13.7827 14.978L17.1226 18.3179C17.2811 18.4764 17.496 18.5654 17.7202 18.5654C17.9444 18.5654 18.1594 18.4764 18.3179 18.3179C18.4764 18.1594 18.5654 17.9444 18.5654 17.7202C18.5654 17.496 18.4764 17.2811 18.3179 17.1226L14.9759 13.7827Z" fill="#86888C"/>
</svg>
