<svg width="17" height="16" viewBox="0 0 17 16" fill="none" xmlns="http://www.w3.org/2000/svg">
<path d="M0.5 4.1575C0.5 6.44322 0.514286 8.29322 0.535714 8.27179C0.557143 8.25036 1.40714 6.79322 2.42143 5.02893C3.44286 3.26465 4.32143 1.79322 4.38571 1.75036C4.46429 1.70036 4.53571 1.70036 4.61429 1.75036C4.67857 1.79322 5.3 2.82179 6 4.03607C6.86429 5.52893 7.32143 6.2575 7.40714 6.26465C7.5 6.27893 7.70714 6.00036 8.21429 5.1575C9.10714 3.67893 9.03571 3.67893 9.92857 5.1575L10.6071 6.27893L11.2714 6.28607H11.9286V3.14322V0.000360489H6.21429H0.5V4.1575ZM7.80714 1.24322C8.54286 1.55036 8.72143 2.5075 8.15 3.07893C7.68571 3.54322 7.02857 3.54322 6.56429 3.07893C5.67857 2.20036 6.65714 0.757503 7.80714 1.24322Z" fill="#FCBF07"/>
<path d="M6.96496 1.89314C6.60782 2.24314 6.85782 2.85742 7.35782 2.85742C7.49353 2.85742 7.64353 2.79314 7.75068 2.67885C7.86496 2.57171 7.92925 2.42171 7.92925 2.28599C7.92925 2.15028 7.86496 2.00028 7.75068 1.89314C7.64353 1.77885 7.49353 1.71456 7.35782 1.71456C7.2221 1.71456 7.0721 1.77885 6.96496 1.89314Z" fill="#FCBF07"/>
<path d="M2.67779 5.72927C1.69922 7.42927 0.856362 8.89355 0.799219 8.97927L0.699219 9.14355H2.59922H4.49922V7.79355C4.49922 6.76498 4.52065 6.42927 4.59208 6.37213C4.64922 6.32213 5.09208 6.27927 5.65636 6.27213L6.62065 6.2507L5.58493 4.44355C5.00636 3.45784 4.52065 2.64355 4.49922 2.64355C4.47779 2.64355 3.65636 4.03641 2.67779 5.72927Z" fill="#FCBF07"/>
<path d="M8.64124 5.52185C8.42695 5.87899 8.24124 6.20042 8.22695 6.22899C8.21267 6.2647 8.59124 6.28613 9.06981 6.28613C9.54838 6.28613 9.92695 6.2647 9.91267 6.22899C9.84124 6.05756 9.09838 4.85756 9.06981 4.85756C9.04838 4.85756 8.85553 5.15756 8.64124 5.52185Z" fill="#FCBF07"/>
<path d="M5.07031 7.42906V8.00049H5.64174H6.21317V7.42906V6.85763H5.64174H5.07031V7.42906Z" fill="#FCBF07"/>
<path d="M6.78516 7.42906V8.00049H7.35658H7.92801V7.42906V6.85763H7.35658H6.78516V7.42906Z" fill="#FCBF07"/>
<path d="M8.5 7.42906V8.00049H9.07143H9.64286V7.42906V6.85763H9.07143H8.5V7.42906Z" fill="#FCBF07"/>
<path d="M10.2148 7.42906V8.00049H10.7863H11.3577V7.42906V6.85763H10.7863H10.2148V7.42906Z" fill="#FCBF07"/>
<path d="M11.9297 7.42906V8.00049H12.5011H13.0725V7.42906V6.85763H12.5011H11.9297V7.42906Z" fill="#FCBF07"/>
<path d="M13.6445 7.42906V8.00049H14.216H14.7874V7.42906V6.85763H14.216H13.6445V7.42906Z" fill="#FCBF07"/>
<path d="M15.3555 7.42906V8.00049H15.9269H16.4983V7.42906V6.85763H15.9269H15.3555V7.42906Z" fill="#FCBF07"/>
<path d="M5.07031 11.429V14.2861H10.7846H16.4989V11.429V8.57185H10.7846H5.07031V11.429ZM11.5346 10.2004C13.4132 11.1576 13.606 11.2647 13.606 11.429C13.606 11.5933 13.4132 11.7076 11.4846 12.679C9.7346 13.5576 9.3346 13.7361 9.2346 13.6718C9.12031 13.6004 9.10603 13.4076 9.0846 11.4647C9.07031 9.27899 9.0846 9.13613 9.34888 9.14328C9.41317 9.15042 10.3989 9.62185 11.5346 10.2004Z" fill="#FCBF07"/>
<path d="M9.64453 11.4292C9.64453 12.2578 9.65882 12.9292 9.68025 12.9292C9.75167 12.9292 12.6445 11.4649 12.6445 11.4292C12.6445 11.3935 9.75167 9.9292 9.68025 9.9292C9.65882 9.9292 9.64453 10.6006 9.64453 11.4292Z" fill="#FCBF07"/>
<path d="M5.07031 15.4291V16.0005H5.64174H6.21317V15.4291V14.8576H5.64174H5.07031V15.4291Z" fill="#FCBF07"/>
<path d="M6.78516 15.4291V16.0005H7.35658H7.92801V15.4291V14.8576H7.35658H6.78516V15.4291Z" fill="#FCBF07"/>
<path d="M8.5 15.4291V16.0005H9.07143H9.64286V15.4291V14.8576H9.07143H8.5V15.4291Z" fill="#FCBF07"/>
<path d="M10.2148 15.4291V16.0005H10.7863H11.3577V15.4291V14.8576H10.7863H10.2148V15.4291Z" fill="#FCBF07"/>
<path d="M11.9297 15.4291V16.0005H12.5011H13.0725V15.4291V14.8576H12.5011H11.9297V15.4291Z" fill="#FCBF07"/>
<path d="M13.6445 15.4291V16.0005H14.216H14.7874V15.4291V14.8576H14.216H13.6445V15.4291Z" fill="#FCBF07"/>
<path d="M15.3555 15.4291V16.0005H15.9269H16.4983V15.4291V14.8576H15.9269H15.3555V15.4291Z" fill="#FCBF07"/>
</svg>
