<svg width="20" height="21" viewBox="0 0 20 21" fill="none" xmlns="http://www.w3.org/2000/svg">
<path d="M7.19 4.85047C5.15 7.14047 3.75 10.4305 3.62 10.7405L0 9.19047L4.05 5.14047C4.52 4.67047 5.2 4.46047 5.86 4.59047L7.19 4.85047ZM9.17 15.5005C9.17 15.5005 12.91 13.9505 15.06 11.8005C20.46 6.40047 19.56 2.18047 19.27 1.23047C18.32 0.930473 14.1 0.0404735 8.7 5.44047C6.55 7.59047 5 11.3305 5 11.3305L9.17 15.5005ZM15.65 13.3105C13.36 15.3505 10.07 16.7505 9.76 16.8805L11.31 20.5005L15.36 16.4505C15.83 15.9805 16.04 15.3005 15.91 14.6405L15.65 13.3105ZM7 16.5005C7 17.3305 6.66 18.0805 6.12 18.6205C4.94 19.8005 0 20.5005 0 20.5005C0 20.5005 0.7 15.5605 1.88 14.3805C2.42 13.8405 3.17 13.5005 4 13.5005C5.66 13.5005 7 14.8405 7 16.5005ZM11 7.50047C11 6.40047 11.9 5.50047 13 5.50047C14.1 5.50047 15 6.40047 15 7.50047C15 8.60047 14.1 9.50047 13 9.50047C11.9 9.50047 11 8.60047 11 7.50047Z" fill="#86888C"/>
</svg>
