<svg width="24" height="25" viewBox="0 0 24 25" fill="none" xmlns="http://www.w3.org/2000/svg">
<path d="M12.3 22.7848H12.2C10.8285 22.7744 9.4729 22.4904 8.21254 21.9495C6.95219 21.4086 5.81242 20.6217 4.85998 19.6348C3.09382 17.7461 2.08986 15.2702 2.04184 12.6848C1.99383 10.0994 2.90517 7.58783 4.59998 5.63484C5.69186 4.41118 7.06451 3.47092 8.59998 2.89484C8.77914 2.8259 8.97436 2.80998 9.16232 2.84899C9.35029 2.888 9.52305 2.98029 9.65998 3.11484C9.78679 3.24416 9.87611 3.4055 9.91838 3.58162C9.96065 3.75775 9.95429 3.94204 9.89998 4.11484C9.35193 5.61577 9.24335 7.24189 9.58698 8.80236C9.9306 10.3628 10.7122 11.7929 11.84 12.9248C12.9783 14.0492 14.4118 14.8281 15.9745 15.1714C17.5372 15.5148 19.1652 15.4085 20.67 14.8648C20.8491 14.8018 21.0424 14.791 21.2274 14.8338C21.4124 14.8766 21.5814 14.9712 21.7146 15.1065C21.8478 15.2419 21.9398 15.4123 21.9797 15.5979C22.0196 15.7836 22.0058 15.9767 21.94 16.1548C21.4291 17.5186 20.6311 18.7565 19.6 19.7848C18.6408 20.7411 17.5021 21.4985 16.2494 22.0133C14.9966 22.5281 13.6544 22.7903 12.3 22.7848Z" fill="#FCBF07"/>
</svg>
