<svg width="24" height="25" viewBox="0 0 24 25" fill="none" xmlns="http://www.w3.org/2000/svg">
<path d="M1.5 21.9637C1.5 22.2621 1.61853 22.5483 1.8295 22.7592C2.04048 22.9702 2.32663 23.0887 2.625 23.0887H21.375C21.6734 23.0887 21.9595 22.9702 22.1705 22.7592C22.3815 22.5483 22.5 22.2621 22.5 21.9637V8.83875H1.5V21.9637ZM16.5 10.5262C16.5 10.4765 16.5198 10.4288 16.5549 10.3937C16.5901 10.3585 16.6378 10.3387 16.6875 10.3387H18.5625C18.6122 10.3387 18.6599 10.3585 18.6951 10.3937C18.7302 10.4288 18.75 10.4765 18.75 10.5262V12.4012C18.75 12.451 18.7302 12.4987 18.6951 12.5338C18.6599 12.569 18.6122 12.5887 18.5625 12.5887H16.6875C16.6378 12.5887 16.5901 12.569 16.5549 12.5338C16.5198 12.4987 16.5 12.451 16.5 12.4012V10.5262ZM16.5 14.2762C16.5 14.2265 16.5198 14.1788 16.5549 14.1437C16.5901 14.1085 16.6378 14.0887 16.6875 14.0887H18.5625C18.6122 14.0887 18.6599 14.1085 18.6951 14.1437C18.7302 14.1788 18.75 14.2265 18.75 14.2762V16.1512C18.75 16.201 18.7302 16.2487 18.6951 16.2838C18.6599 16.319 18.6122 16.3387 18.5625 16.3387H16.6875C16.6378 16.3387 16.5901 16.319 16.5549 16.2838C16.5198 16.2487 16.5 16.201 16.5 16.1512V14.2762ZM12.75 10.5262C12.75 10.4765 12.7698 10.4288 12.8049 10.3937C12.8401 10.3585 12.8878 10.3387 12.9375 10.3387H14.8125C14.8622 10.3387 14.9099 10.3585 14.9451 10.3937C14.9802 10.4288 15 10.4765 15 10.5262V12.4012C15 12.451 14.9802 12.4987 14.9451 12.5338C14.9099 12.569 14.8622 12.5887 14.8125 12.5887H12.9375C12.8878 12.5887 12.8401 12.569 12.8049 12.5338C12.7698 12.4987 12.75 12.451 12.75 12.4012V10.5262ZM12.75 14.2762C12.75 14.2265 12.7698 14.1788 12.8049 14.1437C12.8401 14.1085 12.8878 14.0887 12.9375 14.0887H14.8125C14.8622 14.0887 14.9099 14.1085 14.9451 14.1437C14.9802 14.1788 15 14.2265 15 14.2762V16.1512C15 16.201 14.9802 16.2487 14.9451 16.2838C14.9099 16.319 14.8622 16.3387 14.8125 16.3387H12.9375C12.8878 16.3387 12.8401 16.319 12.8049 16.2838C12.7698 16.2487 12.75 16.201 12.75 16.1512V14.2762ZM12.75 18.0262C12.75 17.9765 12.7698 17.9288 12.8049 17.8937C12.8401 17.8585 12.8878 17.8387 12.9375 17.8387H14.8125C14.8622 17.8387 14.9099 17.8585 14.9451 17.8937C14.9802 17.9288 15 17.9765 15 18.0262V19.9012C15 19.951 14.9802 19.9987 14.9451 20.0338C14.9099 20.069 14.8622 20.0887 14.8125 20.0887H12.9375C12.8878 20.0887 12.8401 20.069 12.8049 20.0338C12.7698 19.9987 12.75 19.951 12.75 19.9012V18.0262ZM9 14.2762C9 14.2265 9.01975 14.1788 9.05492 14.1437C9.09008 14.1085 9.13777 14.0887 9.1875 14.0887H11.0625C11.1122 14.0887 11.1599 14.1085 11.1951 14.1437C11.2302 14.1788 11.25 14.2265 11.25 14.2762V16.1512C11.25 16.201 11.2302 16.2487 11.1951 16.2838C11.1599 16.319 11.1122 16.3387 11.0625 16.3387H9.1875C9.13777 16.3387 9.09008 16.319 9.05492 16.2838C9.01975 16.2487 9 16.201 9 16.1512V14.2762ZM9 18.0262C9 17.9765 9.01975 17.9288 9.05492 17.8937C9.09008 17.8585 9.13777 17.8387 9.1875 17.8387H11.0625C11.1122 17.8387 11.1599 17.8585 11.1951 17.8937C11.2302 17.9288 11.25 17.9765 11.25 18.0262V19.9012C11.25 19.951 11.2302 19.9987 11.1951 20.0338C11.1599 20.069 11.1122 20.0887 11.0625 20.0887H9.1875C9.13777 20.0887 9.09008 20.069 9.05492 20.0338C9.01975 19.9987 9 19.951 9 19.9012V18.0262ZM5.25 14.2762C5.25 14.2265 5.26975 14.1788 5.30492 14.1437C5.34008 14.1085 5.38777 14.0887 5.4375 14.0887H7.3125C7.36223 14.0887 7.40992 14.1085 7.44508 14.1437C7.48025 14.1788 7.5 14.2265 7.5 14.2762V16.1512C7.5 16.201 7.48025 16.2487 7.44508 16.2838C7.40992 16.319 7.36223 16.3387 7.3125 16.3387H5.4375C5.38777 16.3387 5.34008 16.319 5.30492 16.2838C5.26975 16.2487 5.25 16.201 5.25 16.1512V14.2762ZM5.25 18.0262C5.25 17.9765 5.26975 17.9288 5.30492 17.8937C5.34008 17.8585 5.38777 17.8387 5.4375 17.8387H7.3125C7.36223 17.8387 7.40992 17.8585 7.44508 17.8937C7.48025 17.9288 7.5 17.9765 7.5 18.0262V19.9012C7.5 19.951 7.48025 19.9987 7.44508 20.0338C7.40992 20.069 7.36223 20.0887 7.3125 20.0887H5.4375C5.38777 20.0887 5.34008 20.069 5.30492 20.0338C5.26975 19.9987 5.25 19.951 5.25 19.9012V18.0262ZM21.375 3.58875H18.7537V2.08875H16.5037V3.58875H7.49625V2.08875H5.24625V3.58875H2.625C2.47783 3.58751 2.33186 3.6154 2.19551 3.67083C2.05917 3.72625 1.93514 3.80811 1.83057 3.91168C1.72599 4.01525 1.64295 4.13848 1.58622 4.27429C1.52948 4.41009 1.50018 4.55578 1.5 4.70296V7.33875H22.5V4.70296C22.4998 4.55578 22.4705 4.41009 22.4138 4.27429C22.357 4.13848 22.274 4.01525 22.1694 3.91168C22.0649 3.80811 21.9408 3.72625 21.8045 3.67083C21.6681 3.6154 21.5222 3.58751 21.375 3.58875Z" fill="#86888C"/>
</svg>
