<svg width="17" height="14" viewBox="0 0 17 14" fill="none" xmlns="http://www.w3.org/2000/svg">
<path d="M14.3426 1.90956C14.3382 1.9009 14.3308 1.89412 14.3218 1.89042C13.2793 1.41214 12.1793 1.07109 11.0491 0.875806C11.0388 0.873897 11.0282 0.875274 11.0188 0.879741C11.0093 0.884209 11.0015 0.891539 10.9965 0.900689C10.8467 1.17256 10.7107 1.45183 10.5891 1.73741C9.37082 1.55248 8.13163 1.55248 6.91337 1.73741C6.79092 1.4511 6.65276 1.17177 6.49952 0.900689C6.49427 0.891737 6.48644 0.884576 6.47705 0.880138C6.46767 0.8757 6.45717 0.87419 6.44691 0.875806C5.31663 1.07068 4.21649 1.41176 3.1742 1.89045C3.16527 1.89423 3.15774 1.90069 3.15265 1.90894C1.06826 5.02169 0.49727 8.05792 0.777379 11.0565C0.778167 11.0639 0.780425 11.071 0.784018 11.0775C0.787612 11.0839 0.792468 11.0896 0.798297 11.0941C2.01202 11.9928 3.36958 12.6788 4.81304 13.1227C4.82321 13.1258 4.83406 13.1257 4.84415 13.1224C4.85423 13.119 4.86306 13.1127 4.86945 13.1043C5.17948 12.6824 5.45418 12.2357 5.69078 11.7687C5.69403 11.7623 5.69588 11.7553 5.69622 11.7481C5.69656 11.7409 5.69538 11.7338 5.69274 11.7271C5.69011 11.7204 5.68609 11.7144 5.68095 11.7093C5.67581 11.7043 5.66966 11.7004 5.66291 11.698C5.22972 11.5322 4.81034 11.3324 4.40871 11.1004C4.40142 11.0961 4.39529 11.0901 4.39087 11.0829C4.38645 11.0757 4.38388 11.0675 4.38338 11.059C4.38288 11.0506 4.38447 11.0421 4.388 11.0345C4.39154 11.0268 4.39691 11.0201 4.40365 11.015C4.48793 10.9518 4.57225 10.8861 4.65273 10.8198C4.65988 10.8139 4.66853 10.8101 4.67771 10.8089C4.68689 10.8077 4.69623 10.809 4.70468 10.8128C7.33594 12.0137 10.1846 12.0137 12.7848 10.8128C12.7932 10.8088 12.8027 10.8072 12.812 10.8084C12.8213 10.8095 12.8301 10.8132 12.8374 10.8192C12.9179 10.8855 13.0022 10.9518 13.0871 11.015C13.0938 11.02 13.0993 11.0267 13.1029 11.0343C13.1065 11.042 13.1081 11.0504 13.1077 11.0589C13.1072 11.0673 13.1047 11.0755 13.1003 11.0828C13.096 11.09 13.0899 11.0961 13.0826 11.1004C12.6819 11.3344 12.2622 11.534 11.8278 11.6973C11.8211 11.6999 11.815 11.7039 11.8099 11.709C11.8047 11.7141 11.8008 11.7202 11.7982 11.7269C11.7956 11.7337 11.7945 11.7409 11.7949 11.7481C11.7953 11.7553 11.7972 11.7623 11.8005 11.7687C12.041 12.2331 12.3153 12.6793 12.6212 13.1035C12.6274 13.1122 12.6362 13.1188 12.6463 13.1222C12.6564 13.1256 12.6674 13.1258 12.6776 13.1227C14.1237 12.6802 15.4836 11.9942 16.6988 11.0941C16.7047 11.0898 16.7097 11.0843 16.7133 11.0779C16.7169 11.0715 16.7191 11.0645 16.7197 11.0572C17.0551 7.59045 16.1583 4.57911 14.3426 1.90956ZM6.08373 9.23069C5.29153 9.23069 4.63878 8.5037 4.63878 7.61087C4.63878 6.71804 5.27887 5.991 6.08373 5.991C6.89489 5.991 7.54132 6.72436 7.52866 7.61082C7.52866 8.5037 6.88854 9.23069 6.08373 9.23069ZM11.4262 9.23069C10.634 9.23069 9.98123 8.5037 9.98123 7.61087C9.98123 6.71804 10.6213 5.991 11.4262 5.991C12.2374 5.991 12.8838 6.72436 12.8711 7.61082C12.8711 8.5037 12.2374 9.23069 11.4262 9.23069Z" fill="#FFC107"/>
</svg>
