<svg width="15" height="10" viewBox="0 0 15 10" fill="none" xmlns="http://www.w3.org/2000/svg">
<path d="M12.5924 1.38671L7.50011 6.56005L2.40779 1.38671C2.28638 1.26309 2.14216 1.16502 1.98339 1.0981C1.82461 1.03118 1.65441 0.996735 1.48251 0.996735C1.31062 0.996735 1.14041 1.03118 0.981637 1.0981C0.822864 1.16502 0.678644 1.26309 0.557232 1.38671C0.0453756 1.90671 0.0453756 2.74671 0.557232 3.26671L6.58139 9.38671C7.09325 9.90672 7.9201 9.90672 8.43195 9.38671L14.4561 3.26671C14.968 2.74671 14.968 1.90671 14.4561 1.38671C13.9443 0.880048 13.1043 0.866715 12.5924 1.38671Z" fill="#FCBF07"/>
</svg>
