<svg width="12" height="8" viewBox="0 0 12 8" fill="none" xmlns="http://www.w3.org/2000/svg">
<path d="M2.10319 7.29003L5.92243 3.41003L9.74167 7.29003C9.83273 7.38275 9.9409 7.45631 10.06 7.5065C10.1791 7.55669 10.3067 7.58252 10.4356 7.58252C10.5646 7.58252 10.6922 7.55669 10.8113 7.5065C10.9304 7.45631 11.0385 7.38275 11.1296 7.29003C11.5135 6.90003 11.5135 6.27003 11.1296 5.88003L6.61147 1.29003C6.22758 0.900034 5.60744 0.900034 5.22355 1.29003L0.705431 5.88003C0.321538 6.27003 0.321538 6.90003 0.705431 7.29003C1.08932 7.67003 1.7193 7.68003 2.10319 7.29003Z" fill="#919EAB"/>
</svg>
