<svg width="122" height="50" viewBox="0 0 122 50" fill="none" xmlns="http://www.w3.org/2000/svg">
<g clip-path="url(#clip0_134_730)">
<path d="M40.3297 36.0337C39.8394 41.8564 32.9747 46.7597 22.6778 46.5145C12.9937 46.2693 6.19039 42.2241 5.76135 36.4014C5.70006 35.6659 5.76135 34.9304 5.82264 34.1336C6.1291 31.8659 6.92589 29.7207 8.09042 27.7593L8.82592 28.0658C10.726 27.3303 12.6873 26.7787 14.7099 26.4109C17.3454 26.0432 20.1035 25.5528 22.7391 25.798L22.9842 25.7367C25.6198 25.5528 28.0101 26.1045 30.6457 26.4722C32.6683 26.84 34.6296 27.3916 36.5296 28.1271L37.2651 27.8206L37.7555 27.5755C38.92 29.5368 39.7168 31.682 40.1458 33.9498C40.2684 34.624 40.3297 35.3595 40.2684 36.0337" fill="#F4A427"/>
<path d="M40.3297 36.0337C39.9007 41.7951 33.0973 46.5145 22.7391 46.4532C13.055 46.2081 6.2517 42.1628 5.82266 36.3402C5.76137 35.6047 5.82266 34.8692 5.88395 34.0724C6.92591 33.8272 7.96786 33.8272 9.00981 34.0111C10.9711 34.3175 12.0744 35.5434 13.4841 36.1563C14.2809 36.524 15.0777 35.9111 15.8132 35.2369C17.7745 33.3369 20.41 32.2336 23.1068 32.1723C25.865 32.1111 28.1327 33.2143 30.5231 35.4208C31.0134 35.9111 31.6876 36.2176 32.3618 36.1563C32.9748 35.9724 33.5877 35.666 34.078 35.2369C35.9167 34.0111 38.1232 33.5208 40.2684 33.8272C40.391 34.624 40.4523 35.2982 40.3297 36.0337Z" fill="white"/>
<path d="M11.8905 21.6916C11.2163 22.3658 10.3582 22.8561 9.43886 23.04L9.07111 23.1013C8.70336 23.2239 8.33561 23.2851 7.90657 23.2851C7.84528 23.2851 7.7227 23.2851 7.66141 23.2851C7.47753 23.2239 7.23237 23.1626 7.04849 23.1013C6.37429 22.7948 5.76137 22.4271 5.20975 21.9367C4.10651 21.0174 3.06455 19.9754 2.26776 18.7496C-1.10326 13.8463 -0.0613098 7.2268 4.59684 3.54931C4.842 3.36544 5.27104 3.36544 5.51621 3.6719C5.63879 3.85577 5.70008 4.03965 5.63879 4.22352C5.14846 6.18485 4.842 9.24942 6.61945 11.8849C8.21303 14.1527 11.5228 16.2979 13.5454 16.2366C14.0357 18.6883 13.3002 20.3432 11.8905 21.6916Z" fill="#F79422"/>
<path d="M11.8905 21.6916C11.2163 22.3658 10.3582 22.8561 9.43886 23.04L9.07111 23.1013C8.70336 23.2239 8.33561 23.2851 7.90657 23.2851C7.84528 23.2851 7.7227 23.2851 7.66141 23.2851C7.47753 23.2239 7.23237 23.1626 7.04849 23.1013C6.37429 22.7948 5.76137 22.4271 5.20975 21.9367C4.10651 21.0174 3.06455 19.9754 2.26776 18.7496C-1.10326 13.8463 -0.0613098 7.2268 4.59684 3.54931C4.842 3.36544 5.27104 3.36544 5.51621 3.6719C5.63879 3.85577 5.70008 4.03965 5.63879 4.22352C5.14846 6.18485 4.842 9.24942 6.61945 11.8849C8.21303 14.1527 11.5228 16.2979 13.5454 16.2366C14.0357 18.6883 13.3615 20.3432 11.8905 21.6916Z" stroke="#221F1F" stroke-width="1.42694" stroke-linejoin="round"/>
<path d="M20.7165 13.2324L19.9197 21.0777H19.8584C18.6326 21.2616 16.9777 21.5068 14.7099 21.8745C12.626 22.181 9.80662 23.652 8.15175 24.6326L7.90659 23.4068C8.27433 23.3455 8.70337 23.2842 9.07112 23.2229L9.43887 23.1616C10.3582 22.9778 11.2163 22.4874 11.8905 21.8132C13.3002 20.4035 14.0357 18.8099 13.5454 16.297L13.7906 16.3583C14.5261 15.5615 15.3841 14.9486 16.3648 14.4583C17.7132 13.6615 19.1842 13.2937 20.7165 13.2324Z" fill="#5A595C"/>
<path d="M20.7165 13.2324L19.9197 21.0777H19.8584C18.6326 21.2616 16.9777 21.5068 14.7099 21.8745C12.626 22.181 9.80662 23.652 8.15175 24.6326L7.90659 23.4068C8.27433 23.3455 8.70337 23.2842 9.07112 23.2229L9.43887 23.1616C10.3582 22.9778 11.2163 22.4874 11.8905 21.8132C13.3002 20.4035 14.0357 18.8099 13.5454 16.297L13.7906 16.3583C14.5261 15.5615 15.3841 14.9486 16.3648 14.4583C17.7132 13.6615 19.1842 13.2937 20.7165 13.2324Z" stroke="#221F1F" stroke-width="1.42694" stroke-linejoin="round"/>
<path d="M38.6135 27.3304L38.1232 27.5755L37.6329 27.8207L36.8974 28.1271C34.9973 27.3917 33.036 26.84 31.0134 26.4723C28.3779 25.9819 25.7423 25.7368 23.0455 25.7368C20.3487 25.7368 17.7132 25.9207 15.0776 26.4723C13.055 26.84 11.0937 27.3917 9.19366 28.1271C8.9485 28.0046 8.70333 27.882 8.45816 27.8207L7.35492 27.3304C7.41621 26.4723 7.35492 25.982 7.35492 25.1239C7.53879 25.0013 7.84525 24.8174 8.15171 24.6335L8.213 24.5722C9.74528 23.5916 12.5647 22.1819 14.6486 21.8141C16.9164 21.4464 18.51 21.2012 19.7971 21.0173C20.5939 20.9561 21.4519 20.9561 22.31 20.9561C23.5971 20.9561 24.7617 20.9561 25.9262 21.0173C27.152 21.2012 28.8069 21.4464 31.136 21.8141C33.2812 22.1206 36.1006 23.5916 37.7555 24.5722H37.8167C38.1232 24.7561 38.3684 24.8787 38.5522 25.0626C38.5522 25.9819 38.5522 26.4723 38.6135 27.3304Z" fill="#929497"/>
<path d="M38.6135 27.3304L38.1232 27.5755L37.6329 27.8207L36.8974 28.1271C34.9973 27.3917 33.036 26.84 31.0134 26.4723C28.3779 26.0432 25.7423 25.7981 23.0455 25.7981C20.3487 25.7981 17.7132 25.9819 15.0776 26.4723C13.055 26.84 11.0937 27.3917 9.19366 28.1271C8.9485 28.0046 8.70333 27.882 8.45816 27.8207L7.35492 27.3304C7.41621 26.4723 7.35492 25.982 7.35492 25.1239C7.53879 25.0013 7.84525 24.8174 8.15171 24.6335L8.213 24.5722C9.74528 23.5916 12.5647 22.1819 14.6486 21.8141C16.9164 21.4464 18.51 21.2012 19.7971 21.0173C20.5939 20.9561 21.4519 20.9561 22.31 20.9561C23.5971 20.9561 24.7617 20.9561 25.9262 21.0173C27.152 21.2012 28.8069 21.4464 31.136 21.8141C33.2812 22.1206 36.1006 23.5916 37.7555 24.5722H37.8167C38.1232 24.7561 38.3684 24.8787 38.5522 25.0626C38.6135 25.9819 38.5522 26.4723 38.6135 27.3304Z" stroke="#221F1F" stroke-width="1.42694" stroke-linecap="round" stroke-linejoin="round"/>
<path d="M25.9875 21.0784C24.8843 21.0171 23.6584 20.9558 22.3713 21.0171C21.5132 21.0171 20.6552 21.0784 19.8584 21.0784H19.9197L20.7164 13.2331L20.9003 11.6395C21.5132 11.2718 22.2487 11.0879 22.9229 11.0879H23.0455C23.781 11.0879 24.4552 11.2718 25.0681 11.6395L25.252 13.2331V13.2944L25.9875 21.0784Z" fill="#929497"/>
<path d="M25.9875 21.0784C24.8843 21.0171 23.6584 20.9558 22.3713 21.0171C21.5132 21.0171 20.6552 21.0784 19.8584 21.0784H19.9197L20.7164 13.2331L20.9003 11.6395C21.5132 11.2718 22.2487 11.0879 22.9229 11.0879H23.0455C23.781 11.0879 24.4552 11.2718 25.0681 11.6395L25.252 13.2331V13.2944L25.9875 21.0784Z" stroke="#221F1F" stroke-width="1.42694" stroke-linecap="round" stroke-linejoin="round"/>
<path d="M40.391 36.0946C39.9007 41.9173 32.4844 46.5754 22.7391 46.5754C13.055 46.3302 6.2517 42.285 5.82266 36.4623C5.76137 35.7268 5.82266 34.9913 5.88395 34.1945C6.19041 31.9268 6.9872 29.7816 8.15173 27.8202L8.88723 28.1267C10.7873 27.3912 12.7486 26.8396 14.7712 26.4718C17.4067 25.9815 20.0423 25.7976 22.7391 25.7363C25.4359 25.7363 28.0714 25.9815 30.707 26.4718C32.7296 26.8396 34.6909 27.3912 36.5909 28.1267L37.3877 27.8202L37.8781 27.5751C39.0426 29.5364 39.8394 31.6816 40.2684 33.9494C40.391 34.6849 40.4523 35.4204 40.391 36.0946Z" stroke="#221F1F" stroke-width="1.42694" stroke-linecap="round" stroke-linejoin="round"/>
<path d="M43.333 18.7502C42.4749 19.9148 41.4943 21.018 40.3297 21.9374C39.7781 22.4277 39.1652 22.7954 38.491 23.1019L38.1845 23.2245L38.0007 23.2858C37.5716 23.4084 37.3265 23.2858 36.5297 23.1632L36.1619 23.0406C35.2426 22.8567 34.3845 22.3664 33.7103 21.6922C32.3006 20.2825 31.5651 18.6889 32.0554 16.176C34.0167 16.2373 37.3878 14.0921 38.9813 11.8243C40.8201 9.25005 40.4523 6.18548 40.0233 4.22415C39.962 3.8564 40.1459 3.54995 40.5136 3.42737C40.6975 3.36607 40.9427 3.42737 41.0652 3.54995C45.7234 7.22743 46.704 13.8469 43.333 18.7502Z" fill="#F79422"/>
<path d="M43.333 18.7502C42.4749 19.9148 41.4943 21.018 40.3297 21.9374C39.7781 22.4277 39.1652 22.7954 38.491 23.1019L38.1845 23.2245L38.0007 23.2858C37.5716 23.4084 37.3265 23.2858 36.5297 23.1632L36.1619 23.0406C35.2426 22.8567 34.3845 22.3664 33.7103 21.6922C32.3006 20.2825 31.5651 18.6889 32.0554 16.176C34.0167 16.2373 37.3878 14.0921 38.9813 11.8243C40.8201 9.25005 40.4523 6.18548 40.0233 4.22415C39.962 3.8564 40.1459 3.54995 40.5136 3.42737C40.6975 3.36607 40.9427 3.42737 41.0652 3.54995C45.7234 7.22743 46.704 13.8469 43.333 18.7502Z" stroke="#221F1F" stroke-width="1.42694" stroke-linejoin="round"/>
<path d="M38.0619 23.2842L37.8168 24.6326C36.1619 23.652 33.3425 22.181 31.1973 21.8745C28.8682 21.5068 27.2746 21.2616 25.9875 21.0777L25.1907 13.2324C26.6004 13.2937 28.0101 13.7228 29.2973 14.397C30.2779 14.8873 31.136 15.5615 31.8715 16.297L32.1167 16.2357C31.6263 18.6874 32.3618 20.3422 33.7715 21.7519C34.4457 22.4261 35.3038 22.9165 36.2232 23.1003C36.2845 23.1003 36.5296 23.2229 36.5909 23.2229C37.02 23.4068 37.5716 23.4068 38.0619 23.2842Z" fill="#5A595C"/>
<path d="M38.0619 23.2842L37.8168 24.6326C36.1619 23.652 33.3425 22.181 31.1973 21.8745C28.8682 21.5068 27.2746 21.2616 25.9875 21.0777L25.1907 13.2324C26.6004 13.2937 28.0101 13.7228 29.2973 14.397C30.2779 14.8873 31.136 15.5615 31.8715 16.297L32.1167 16.2357C31.6263 18.6874 32.3618 20.3422 33.7715 21.7519C34.4457 22.4261 35.3038 22.9165 36.2232 23.1003L36.5909 23.1616C37.3877 23.2842 37.5716 23.4068 38.0619 23.2842Z" stroke="#221F1F" stroke-width="1.42694" stroke-linejoin="round"/>
<path d="M25.1907 13.2324H24.9456" stroke="#221F1F" stroke-width="1.42694" stroke-linejoin="round"/>
<path d="M37.878 24.6328C37.8168 24.6941 37.8168 24.6941 37.7555 24.7554L37.878 24.6328Z" fill="#F79422"/>
<path d="M37.878 24.6328C37.8168 24.6941 37.8168 24.6941 37.7555 24.7554" stroke="#221F1F" stroke-width="1.42694" stroke-miterlimit="10"/>
<path d="M8.02911 24.6328C8.09041 24.6941 8.09041 24.6941 8.1517 24.7554L8.02911 24.6328Z" fill="#F79422"/>
<path d="M8.02911 24.6328C8.09041 24.6941 8.09041 24.6941 8.1517 24.7554" stroke="#221F1F" stroke-width="1.42694" stroke-miterlimit="10"/>
<path d="M20.7165 38.4237C21.1455 38.5463 21.6358 38.485 22.0649 38.2398C22.7391 37.9947 23.1681 37.3205 23.1068 36.585C23.0455 37.3205 23.4746 37.9947 24.1488 38.2398C24.5778 38.4237 25.0069 38.485 25.4359 38.4237" stroke="#171717" stroke-width="1.42694" stroke-linecap="round" stroke-linejoin="round"/>
<path d="M25.4359 34.5021C25.4359 35.2376 24.3327 36.2183 22.9842 36.2183C21.6358 36.2183 20.5326 35.2376 20.5326 34.5021C20.5326 33.7667 21.6358 33.5215 22.9842 33.5215C24.3327 33.5215 25.4359 33.8279 25.4359 34.5021Z" fill="#171717"/>
<path d="M24.0262 34.2556C24.0262 34.4395 23.5359 34.6847 22.9842 34.6847C22.4326 34.6847 21.9423 34.4395 21.9423 34.3169C21.9423 34.1943 22.4326 34.1943 22.9842 34.1943C23.5359 34.1943 24.0262 34.0717 24.0262 34.2556Z" fill="white"/>
<path d="M19.1842 36.585C19.1229 37.443 19.6745 38.1785 20.5326 38.3624H20.7165" stroke="#171717" stroke-width="1.42694" stroke-linecap="round" stroke-linejoin="round"/>
<path d="M23.0455 35.7266C23.0455 36.033 23.0455 36.2782 23.0455 36.5846" stroke="#171717" stroke-width="1.42694" stroke-linecap="round" stroke-linejoin="round"/>
<path d="M25.4359 38.4239H25.6198C26.4779 38.2401 27.0908 37.5046 26.9682 36.6465" stroke="#171717" stroke-width="1.42694" stroke-linecap="round" stroke-linejoin="round"/>
<path d="M41.0652 3.54883C45.7234 7.22631 46.704 13.8458 43.333 18.6878" stroke="#221F1F" stroke-width="1.42694" stroke-linejoin="round"/>
<path d="M11.8905 21.6916C11.2163 22.3658 10.3582 22.8561 9.43886 23.04L9.07111 23.1013C8.70336 23.2239 8.33561 23.2851 7.90657 23.2851C7.84528 23.2851 7.7227 23.2851 7.66141 23.2851C7.47753 23.2239 7.23237 23.1626 7.04849 23.1013C6.37429 22.7948 5.76137 22.4271 5.20975 21.9367C4.10651 21.0174 3.06455 19.9754 2.26776 18.7496C-1.10326 13.8463 -0.0613098 7.2268 4.59684 3.54931C4.842 3.36544 5.27104 3.36544 5.51621 3.6719C5.63879 3.85577 5.70008 4.03965 5.63879 4.22352C5.14846 6.18485 4.842 9.24942 6.61945 11.8849C8.21303 14.1527 11.5228 16.2979 13.5454 16.2366C14.0357 18.6883 13.3615 20.3432 11.8905 21.6916Z" stroke="#221F1F" stroke-width="1.42694" stroke-linejoin="round"/>
<path d="M18.51 30.5163C18.51 31.8648 17.7132 32.9067 16.7325 32.9067C15.7518 32.9067 14.955 31.8035 14.955 30.5163C14.955 29.3518 15.568 28.3711 16.3648 28.126L18.3261 29.597C18.4487 29.9034 18.51 30.2099 18.51 30.5163Z" fill="#221F1F"/>
<path d="M17.8971 30.2106C17.8971 30.701 17.5906 31.0687 17.2841 31.0687C16.9777 31.0687 16.6712 30.701 16.6712 30.2106C16.6712 29.7203 16.9777 29.3525 17.2841 29.3525C17.5906 29.3525 17.8971 29.7203 17.8971 30.2106Z" fill="white"/>
<path d="M16.3648 32.3558C15.6906 32.9074 15.0777 33.5204 14.5261 34.1946C14.2809 34.501 14.0357 34.8688 13.8518 35.2978C13.668 35.6656 13.5454 36.0946 13.4841 36.5236C13.4228 36.7075 13.4228 36.9527 13.4228 37.1366V37.443V37.7495C13.4228 38.1785 13.4228 38.6075 13.4228 39.0979C13.4841 39.5269 13.5454 40.0173 13.6067 40.4463C13.668 40.6915 13.668 40.8753 13.7293 41.1205C13.7906 41.3044 13.8518 41.5495 13.9744 41.7334C13.8518 41.5495 13.7906 41.3044 13.668 41.1205C13.6067 40.9366 13.4841 40.6915 13.4228 40.5076C13.3002 40.0785 13.1776 39.6495 13.0551 39.1592C12.9938 38.7301 12.9325 38.2398 12.8712 37.8108V37.5043V37.1366C12.8712 36.8914 12.8712 36.6462 12.8712 36.4624C12.9325 35.972 12.9938 35.4817 13.1776 35.0526C13.3615 34.6236 13.5454 34.1946 13.7906 33.7655C14.3422 32.9687 14.8938 32.2332 15.568 31.6203C15.8132 31.4365 16.1196 31.4365 16.3648 31.6203C16.61 31.7429 16.61 32.1107 16.3648 32.3558Z" fill="#221F1F"/>
<path d="M15.997 32.1716C15.9357 32.1716 15.9357 32.1716 15.8744 32.1716H15.8131H15.6906L15.3841 32.1103C15.2002 32.049 15.0164 32.049 14.8325 32.049C14.4647 32.049 14.0357 32.049 13.6679 32.1716C13.4841 32.2329 13.3002 32.2942 13.1163 32.3555C12.5647 32.6006 12.0744 33.0297 11.7679 33.52C11.9518 33.091 12.1357 32.7232 12.4421 32.4168C12.5647 32.2329 12.7486 32.1103 12.9325 31.9877C13.1163 31.8651 13.3002 31.7426 13.4841 31.62C13.8518 31.3748 14.2809 31.2522 14.7712 31.1297C15.0164 31.0684 15.2002 31.0684 15.4454 31.0684C15.568 31.0684 15.6906 31.0684 15.8131 31.0684H16.0583C16.3648 31.0684 16.6099 31.3135 16.6712 31.62C16.7325 31.9264 16.3648 32.1716 15.997 32.1716Z" fill="#221F1F"/>
<path d="M31.136 30.5163C31.136 31.8648 30.3392 32.9067 29.4199 32.9067C28.5005 32.9067 27.5811 31.8648 27.5811 30.5163C27.5811 30.2099 27.6424 29.9034 27.7037 29.597L29.665 28.126C30.5231 28.3711 31.136 29.3518 31.136 30.5163Z" fill="#221F1F"/>
<path d="M28.2553 30.2106C28.2553 30.701 28.5618 31.0687 28.8682 31.0687C29.1747 31.0687 29.4811 30.701 29.4811 30.2106C29.4811 29.7203 29.1747 29.3525 28.8682 29.3525C28.5618 29.3525 28.2553 29.7203 28.2553 30.2106Z" fill="white"/>
<path d="M30.5231 31.4985C31.1973 32.1727 31.7489 32.8469 32.2392 33.6437C32.4844 34.0114 32.7296 34.4405 32.9134 34.8695C33.0973 35.2986 33.2199 35.7889 33.2812 36.2179C33.3425 36.7083 33.3425 37.1373 33.2812 37.6276C33.2199 38.0567 33.1586 38.547 33.0973 38.976C33.036 39.4051 32.9134 39.8341 32.7909 40.2632C32.7296 40.447 32.6683 40.6922 32.5457 40.8761C32.4844 41.0599 32.3618 41.3051 32.2392 41.489C32.3005 41.3051 32.4231 41.0599 32.4844 40.8761C32.5457 40.6922 32.607 40.447 32.6683 40.2632C32.7296 39.8341 32.8521 39.4051 32.8521 38.976C32.9134 38.547 32.9134 38.118 32.9134 37.6276C32.9134 37.1986 32.8521 36.7695 32.7909 36.3405C32.6683 35.9115 32.5457 35.5437 32.3618 35.176C32.1779 34.8082 31.9328 34.4405 31.6263 34.134C31.0747 33.4598 30.4618 32.8469 29.7876 32.2953C29.5424 32.0501 29.5424 31.7437 29.7876 31.4985C29.9714 31.3146 30.2779 31.2533 30.5231 31.4372V31.4985Z" fill="#221F1F"/>
<path d="M30.0941 31.0698H30.4005C30.5231 31.0698 30.6457 31.0698 30.7683 31.0698C31.0134 31.0698 31.2586 31.0698 31.5038 31.1311C31.9941 31.1924 32.4231 31.315 32.8522 31.4989C33.2812 31.6828 33.649 31.9892 34.0167 32.2957C34.3232 32.6021 34.5683 33.0312 34.7522 33.3989C34.507 33.0312 34.2006 32.7247 33.8328 32.4796C33.4651 32.2344 33.0973 32.0505 32.6683 31.9892C32.2393 31.9279 31.8715 31.9279 31.4425 31.9279C31.2586 31.9279 31.0134 31.9892 30.8296 31.9892L30.5231 32.0505H30.4005H30.3392H30.2779H30.2166C29.9102 32.1118 29.6037 31.8666 29.6037 31.5602C29.5424 31.2537 29.7876 30.9473 30.0941 30.9473C30.1553 30.9473 30.1553 30.9473 30.2166 30.9473" fill="#221F1F"/>
</g>
<path d="M58.7974 35V15.2131H71.8985V18.6623H62.9809V23.3771H71.029V26.8263H62.9809V35H58.7974ZM78.751 15.2131V35H74.6351V15.2131H78.751ZM88.7531 35.2898C87.2524 35.2898 85.9545 34.971 84.8595 34.3334C83.771 33.6892 82.9304 32.7939 82.3378 31.6474C81.7453 30.4945 81.449 29.158 81.449 27.6379C81.449 26.1049 81.7453 24.7652 82.3378 23.6187C82.9304 22.4657 83.771 21.5704 84.8595 20.9327C85.9545 20.2886 87.2524 19.9666 88.7531 19.9666C90.2539 19.9666 91.5485 20.2886 92.6371 20.9327C93.732 21.5704 94.5758 22.4657 95.1684 23.6187C95.761 24.7652 96.0573 26.1049 96.0573 27.6379C96.0573 29.158 95.761 30.4945 95.1684 31.6474C94.5758 32.7939 93.732 33.6892 92.6371 34.3334C91.5485 34.971 90.2539 35.2898 88.7531 35.2898ZM88.7724 32.1015C89.4552 32.1015 90.0252 31.9083 90.4825 31.5218C90.9399 31.1289 91.2844 30.5943 91.5163 29.918C91.7546 29.2417 91.8738 28.472 91.8738 27.6089C91.8738 26.7458 91.7546 25.9761 91.5163 25.2998C91.2844 24.6235 90.9399 24.0889 90.4825 23.696C90.0252 23.3031 89.4552 23.1066 88.7724 23.1066C88.0832 23.1066 87.5036 23.3031 87.0334 23.696C86.5696 24.0889 86.2186 24.6235 85.9802 25.2998C85.7484 25.9761 85.6324 26.7458 85.6324 27.6089C85.6324 28.472 85.7484 29.2417 85.9802 29.918C86.2186 30.5943 86.5696 31.1289 87.0334 31.5218C87.5036 31.9083 88.0832 32.1015 88.7724 32.1015ZM102.463 30.7296L102.473 25.7925H103.072L107.825 20.1598H112.55L106.163 27.6186H105.187L102.463 30.7296ZM98.7335 35V15.2131H102.849V35H98.7335ZM108.009 35L103.642 28.5364L106.385 25.6283L112.83 35H108.009ZM114.569 35V20.1598H118.685V35H114.569ZM116.636 18.2468C116.025 18.2468 115.5 18.0439 115.062 17.6381C114.63 17.2259 114.414 16.7332 114.414 16.1599C114.414 15.5931 114.63 15.1068 115.062 14.701C115.5 14.2888 116.025 14.0827 116.636 14.0827C117.248 14.0827 117.77 14.2888 118.202 14.701C118.64 15.1068 118.859 15.5931 118.859 16.1599C118.859 16.7332 118.64 17.2259 118.202 17.6381C117.77 18.0439 117.248 18.2468 116.636 18.2468Z" fill="white"/>
<defs>
<clipPath id="clip0_134_730">
<rect width="45.6621" height="43.7621" fill="white" transform="translate(0 3.11914)"/>
</clipPath>
</defs>
</svg>
