<svg width="14" height="14" viewBox="0 0 14 14" fill="none" xmlns="http://www.w3.org/2000/svg">
<path d="M4.53549 10.8664C4.53549 10.9211 4.47261 10.9648 4.39333 10.9648C4.30311 10.973 4.24023 10.9293 4.24023 10.8664C4.24023 10.8117 4.30311 10.768 4.3824 10.768C4.46441 10.7598 4.53549 10.8035 4.53549 10.8664ZM3.68526 10.7434C3.66612 10.798 3.7208 10.8609 3.80281 10.8773C3.8739 10.9047 3.95591 10.8773 3.97231 10.8227C3.98872 10.768 3.93677 10.7051 3.85476 10.6805C3.78368 10.6613 3.7044 10.6887 3.68526 10.7434ZM4.89363 10.6969C4.81435 10.716 4.75967 10.768 4.76787 10.8309C4.77607 10.8855 4.84715 10.9211 4.92917 10.902C5.00845 10.8828 5.06313 10.8309 5.05493 10.7762C5.04673 10.7242 4.97291 10.6887 4.89363 10.6969ZM6.69252 0.21875C2.90064 0.21875 0 3.09805 0 6.89062C0 9.92305 1.90824 12.518 4.63391 13.4313C4.98385 13.4941 5.10687 13.2781 5.10687 13.1004C5.10687 12.9309 5.09867 11.9957 5.09867 11.4215C5.09867 11.4215 3.18496 11.8316 2.78308 10.6066C2.78308 10.6066 2.47142 9.81094 2.02306 9.60586C2.02306 9.60586 1.39701 9.17656 2.06681 9.18477C2.06681 9.18477 2.74754 9.23945 3.12208 9.89023C3.7208 10.9457 4.72413 10.6422 5.11507 10.4617C5.17795 10.0242 5.35565 9.7207 5.55249 9.54023C4.02426 9.3707 2.48235 9.14922 2.48235 6.51875C2.48235 5.7668 2.69013 5.38945 3.12755 4.9082C3.05647 4.73047 2.82409 3.99766 3.19863 3.05156C3.77001 2.87383 5.085 3.78984 5.085 3.78984C5.63177 3.63672 6.21956 3.55742 6.80187 3.55742C7.38419 3.55742 7.97197 3.63672 8.51874 3.78984C8.51874 3.78984 9.83373 2.87109 10.4051 3.05156C10.7797 4.00039 10.5473 4.73047 10.4762 4.9082C10.9136 5.39219 11.1815 5.76953 11.1815 6.51875C11.1815 9.15742 9.57128 9.36797 8.04305 9.54023C8.29457 9.75625 8.50781 10.1664 8.50781 10.809C8.50781 11.7305 8.4996 12.8707 8.4996 13.0949C8.4996 13.2727 8.62536 13.4887 8.97256 13.4258C11.7064 12.518 13.56 9.92305 13.56 6.89062C13.56 3.09805 10.4844 0.21875 6.69252 0.21875ZM2.65732 9.64961C2.62178 9.67695 2.62998 9.73984 2.67646 9.7918C2.7202 9.83555 2.78308 9.85469 2.81862 9.81914C2.85416 9.7918 2.84596 9.72891 2.79948 9.67695C2.75574 9.6332 2.69286 9.61406 2.65732 9.64961ZM2.36206 9.42812C2.34293 9.46367 2.37027 9.50742 2.42494 9.53477C2.46869 9.56211 2.52336 9.55391 2.5425 9.51562C2.56164 9.48008 2.5343 9.43633 2.47962 9.40898C2.42494 9.39258 2.3812 9.40078 2.36206 9.42812ZM3.24784 10.4016C3.2041 10.4371 3.2205 10.5191 3.28338 10.5711C3.34626 10.634 3.42554 10.6422 3.46108 10.5984C3.49662 10.5629 3.48022 10.4809 3.42554 10.4289C3.3654 10.366 3.28338 10.3578 3.24784 10.4016ZM2.93618 9.99961C2.89244 10.027 2.89244 10.098 2.93618 10.1609C2.97992 10.2238 3.05373 10.2512 3.08927 10.2238C3.13302 10.1883 3.13302 10.1172 3.08927 10.0543C3.051 9.99141 2.97992 9.96406 2.93618 9.99961Z" fill="#FFC107"/>
</svg>
