<svg width="16" height="20" viewBox="0 0 16 20" fill="none" xmlns="http://www.w3.org/2000/svg">
<g id="hot 1">
<g id="Layer 5">
<path id="Vector" d="M4.94478 8.57217C5.10574 8.57217 5.23623 8.44168 5.23623 8.28072C5.23623 8.11975 5.10574 7.98926 4.94478 7.98926C4.78381 7.98926 4.65332 8.11975 4.65332 8.28072C4.65332 8.44168 4.78381 8.57217 4.94478 8.57217Z" fill="#FC7226"/>
<path id="Vector_2" d="M4.06284 13.6135C4.22334 13.6135 4.35346 13.4834 4.35346 13.3228C4.35346 13.1623 4.22334 13.0322 4.06284 13.0322C3.90233 13.0322 3.77222 13.1623 3.77222 13.3228C3.77222 13.4834 3.90233 13.6135 4.06284 13.6135Z" fill="#FC7226"/>
<path id="Vector_3" d="M11.8149 11.7258C11.9283 11.7258 12.0201 11.6339 12.0201 11.5206C12.0201 11.4073 11.9283 11.3154 11.8149 11.3154C11.7016 11.3154 11.6097 11.4073 11.6097 11.5206C11.6097 11.6339 11.7016 11.7258 11.8149 11.7258Z" fill="#FC7226"/>
<path id="my-circle2" d="M8.43139 11.1936C8.54471 11.1936 8.63658 11.1017 8.63658 10.9884C8.63658 10.8751 8.54471 10.7832 8.43139 10.7832C8.31806 10.7832 8.2262 10.8751 8.2262 10.9884C8.2262 11.1017 8.31806 11.1936 8.43139 11.1936Z" fill="#FC7226"/>
</g>
<g id="Layer 3">
<path id="Vector_4" d="M3.96811 10.8273C3.15069 10.4923 1.04517 9.36328 1.04517 9.36328C1.04517 9.36328 1.23696 13.2159 2.30145 15.0685L2.30647 15.0768C2.3249 15.1092 2.34388 15.1408 2.36342 15.1715L2.38436 15.2058C2.47901 15.3582 2.58933 15.5002 2.71351 15.6296L2.72858 15.6439C3.23439 16.1736 3.92489 16.4881 4.65657 16.522C5.38825 16.5558 6.10484 16.3064 6.65739 15.8256C7.84584 14.7929 8.03009 12.9403 6.94048 11.8055C5.94634 10.7737 4.78553 11.1681 3.96811 10.8273Z" fill="#FC8223"/>
<path id="Vector_5" d="M11.4388 10.6603C12.2562 10.3253 14.3617 9.19629 14.3617 9.19629C14.3617 9.19629 14.17 13.0489 13.1055 14.9015L13.1004 14.9099C13.082 14.9422 13.063 14.9738 13.0435 15.0045L13.0225 15.0388C12.9279 15.1912 12.8176 15.3332 12.6934 15.4626L12.6783 15.4769C12.1725 16.0066 11.482 16.3211 10.7503 16.355C10.0187 16.3888 9.30207 16.1394 8.74952 15.6586C7.56107 14.6259 7.37682 12.7733 8.46643 11.6385C9.45638 10.6067 10.6214 11.0011 11.4388 10.6603Z" fill="#FC8223"/>
<path id="Vector_6" d="M13.3023 10.8417C12.1507 7.18592 7.66155 1.75879 7.66155 1.75879C7.66155 1.75879 3.33743 7.15745 2.14731 10.6131C1.85233 11.2664 1.69987 11.975 1.70007 12.6918C1.70007 14.4355 2.59371 15.9874 3.98316 16.9874L4.03257 17.0226L4.1381 17.0955C5.1903 17.809 6.4338 18.1874 7.7051 18.1809C10.9982 18.1809 13.6674 15.7362 13.6674 12.7203C13.6668 12.0765 13.5428 11.4388 13.3023 10.8417Z" fill="#FC7226"/>
<path id="Vector_7" d="M12.3526 11.5139C11.3953 8.19736 7.66246 3.27441 7.66246 3.27441C7.66246 3.27441 4.0695 8.1714 3.08039 11.3071C2.67088 12.305 2.59824 13.4094 2.8735 14.4524C3.14877 15.4954 3.75689 16.42 4.60551 17.086L4.64655 17.1178L4.7303 17.184C5.58566 17.8219 6.6241 18.1666 7.69114 18.1669C8.75817 18.1672 9.79679 17.823 10.6525 17.1855C11.5082 16.548 12.1352 15.6514 12.4403 14.6289C12.7454 13.6064 12.7123 12.5127 12.3459 11.5106L12.3526 11.5139Z" fill="#FC8223"/>
<path id="Vector_8" d="M11.8374 12.8105C10.9857 10.1396 7.66743 6.1748 7.66743 6.1748C7.66743 6.1748 4.47061 10.1187 3.59038 12.643C3.37097 13.1192 3.25671 13.6371 3.25537 14.1614C3.25537 15.4353 3.91618 16.5693 4.94298 17.2996L4.97899 17.3256L5.05688 17.3792C5.83671 17.9011 6.75504 18.1773 7.69339 18.1723C10.1272 18.1723 12.1013 16.3859 12.1013 14.1832C12.1027 13.7129 12.0131 13.2467 11.8374 12.8105Z" fill="#FC9823"/>
</g>
</g>
</svg>
