<svg width="32" height="32" viewBox="0 0 32 32" fill="none" xmlns="http://www.w3.org/2000/svg">
<rect width="32" height="32" rx="8" fill="#282828"/>
<mask id="mask0_2_103" style="mask-type:alpha" maskUnits="userSpaceOnUse" x="6" y="6" width="20" height="20">
<g clip-path="url(#clip0_2_103)">
<path d="M17.6233 7.33836H13.7191C13.0977 7.33836 12.594 7.84208 12.594 8.46345V10.5925C12.594 11.2139 13.0977 11.7176 13.7191 11.7176H17.6233C18.2447 11.7176 18.7484 11.2139 18.7484 10.5925V8.46345C18.7484 7.84208 18.2447 7.33836 17.6233 7.33836Z" fill="white"/>
<path d="M24.8749 13.6213H22.0697C21.4483 13.6213 20.9446 14.125 20.9446 14.7464V17.8273C20.9446 18.4487 21.4483 18.9524 22.0697 18.9524H24.8749C25.4963 18.9524 26 18.4487 26 17.8273V14.7464C26 14.125 25.4963 13.6213 24.8749 13.6213Z" fill="white"/>
<path d="M17.5078 13.6213H13.8346C13.1494 13.6213 12.594 14.1767 12.594 14.8619V17.7118C12.594 18.397 13.1494 18.9524 13.8346 18.9524H17.5078C18.193 18.9524 18.7484 18.397 18.7484 17.7118V14.8619C18.7484 14.1767 18.193 13.6213 17.5078 13.6213Z" fill="white"/>
<path opacity="0.8" d="M18.7466 14.6682C18.7466 15.2456 18.2064 15.715 17.5377 15.715H15.675V15.3481C15.675 14.3962 14.8256 13.625 13.7769 13.625H17.5377C18.2064 13.6213 18.7466 14.0889 18.7466 14.6682Z" fill="white"/>
<path opacity="0.85" d="M15.6694 15.348V17.2294C15.6694 18.1812 14.82 18.9543 13.7713 18.9543H7.2089C6.54019 18.9505 6 18.483 6 17.9037V14.6682C6 14.0888 6.54019 13.6213 7.2089 13.6213H13.7713C14.82 13.6213 15.6694 14.3925 15.6694 15.348Z" fill="white"/>
<path opacity="0.85" d="M18.7466 18.2837V23.6148C18.7466 24.1922 18.2064 24.6616 17.5377 24.6616H13.8123C13.1436 24.6616 12.6034 24.1922 12.6034 23.6148V18.2837C12.6034 17.7063 13.1436 17.2368 13.8123 17.2368H17.5377C18.2064 17.2368 18.7466 17.7063 18.7466 18.2837Z" fill="white"/>
</g>
</mask>
<g mask="url(#mask0_2_103)">
<rect x="6" y="6" width="20" height="20" fill="#86888C"/>
</g>
<defs>
<clipPath id="clip0_2_103">
<rect width="20" height="17.3233" fill="white" transform="translate(6 7.33836)"/>
</clipPath>
</defs>
</svg>
