<svg width="32" height="32" viewBox="0 0 32 32" fill="none" xmlns="http://www.w3.org/2000/svg">
<rect width="32" height="32" rx="8" fill="#282828"/>
<path d="M13.6786 7.86948C13.1973 8.03313 12.8604 8.3508 12.639 8.83213C12.4657 9.19794 12.4561 9.61188 12.4561 16.1772V23.1467L12.7352 23.4259L13.0144 23.7051H16.3067H19.5989L19.8781 23.4259L20.1573 23.1467V16.1772C20.1573 9.63113 20.138 9.19794 19.9744 8.83213C19.7626 8.3508 19.3101 7.95612 18.8288 7.82135C18.2705 7.66732 14.1311 7.70583 13.6786 7.86948Z" fill="#86888C"/>
<path d="M21.6975 18.0158C21.6975 20.8171 21.6687 23.243 21.6398 23.4067L21.582 23.7051H23.103C24.8165 23.7051 25.2208 23.6281 25.6925 23.2141C26.3183 22.6654 26.3279 22.5788 26.299 18.1121L26.2701 14.1171L26.0006 13.7128C25.5482 13.0197 25.2305 12.9234 23.3341 12.9234H21.6975V18.0158Z" fill="#86888C"/>
<path d="M7.22896 16.206C7.03643 16.3119 6.75726 16.5718 6.60323 16.7932L6.34332 17.1879L6.31444 19.6523C6.28556 22.4151 6.32406 22.6943 6.92091 23.2141C7.39261 23.6281 7.79692 23.7051 9.51044 23.7051H11.0411L10.9737 23.4067C10.9448 23.243 10.9159 21.5102 10.9159 19.5561V16.0039H9.26015C7.78729 16.0135 7.55626 16.0328 7.22896 16.206Z" fill="#86888C"/>
</svg>
