<svg width="32" height="32" viewBox="0 0 32 32" fill="none" xmlns="http://www.w3.org/2000/svg">
<rect width="32" height="32" rx="8" fill="#FCBF07"/>
<path d="M13.6796 7.86951C13.1983 8.03316 12.8613 8.35083 12.6399 8.83216C12.4667 9.19797 12.457 9.61191 12.457 16.1772V23.1468L12.7362 23.4259L13.0154 23.7051H16.3076H19.5999L19.8791 23.4259L20.1582 23.1468V16.1772C20.1582 9.63116 20.139 9.19797 19.9753 8.83216C19.7635 8.35083 19.3111 7.95615 18.8298 7.82138C18.2714 7.66735 14.132 7.70586 13.6796 7.86951Z" fill="black"/>
<path d="M21.6975 18.0158C21.6975 20.8172 21.6687 23.243 21.6398 23.4067L21.582 23.7051H23.103C24.8165 23.7051 25.2208 23.6281 25.6925 23.2142C26.3183 22.6654 26.3279 22.5788 26.299 18.1121L26.2701 14.1171L26.0006 13.7128C25.5482 13.0197 25.2305 12.9234 23.3341 12.9234H21.6975V18.0158Z" fill="black"/>
<path d="M7.22993 16.2061C7.0374 16.312 6.75823 16.5719 6.60421 16.7933L6.34429 17.188L6.31541 19.6524C6.28654 22.4152 6.32504 22.6943 6.92188 23.2142C7.39358 23.6281 7.7979 23.7051 9.51141 23.7051H11.042L10.9746 23.4067C10.9458 23.243 10.9169 21.5103 10.9169 19.5561V16.0039H9.26112C7.78827 16.0135 7.55723 16.0328 7.22993 16.2061Z" fill="black"/>
</svg>
