<svg width="20" height="21" viewBox="0 0 20 21" fill="none" xmlns="http://www.w3.org/2000/svg">
<path d="M10 4.84375C10.2652 4.84375 10.5196 4.73839 10.7071 4.55086C10.8946 4.36332 11 4.10897 11 3.84375V1.84375C11 1.57853 10.8946 1.32418 10.7071 1.13664C10.5196 0.949107 10.2652 0.84375 10 0.84375C9.73478 0.84375 9.48043 0.949107 9.29289 1.13664C9.10536 1.32418 9 1.57853 9 1.84375V3.84375C9 4.10897 9.10536 4.36332 9.29289 4.55086C9.48043 4.73839 9.73478 4.84375 10 4.84375ZM19 9.84375H17C16.7348 9.84375 16.4804 9.94911 16.2929 10.1366C16.1054 10.3242 16 10.5785 16 10.8438C16 11.109 16.1054 11.3633 16.2929 11.5509C16.4804 11.7384 16.7348 11.8438 17 11.8438H19C19.2652 11.8438 19.5196 11.7384 19.7071 11.5509C19.8946 11.3633 20 11.109 20 10.8438C20 10.5785 19.8946 10.3242 19.7071 10.1366C19.5196 9.94911 19.2652 9.84375 19 9.84375ZM4 10.8438C4 10.5785 3.89464 10.3242 3.70711 10.1366C3.51957 9.94911 3.26522 9.84375 3 9.84375H1C0.734784 9.84375 0.48043 9.94911 0.292893 10.1366C0.105357 10.3242 0 10.5785 0 10.8438C0 11.109 0.105357 11.3633 0.292893 11.5509C0.48043 11.7384 0.734784 11.8438 1 11.8438H3C3.26522 11.8438 3.51957 11.7384 3.70711 11.5509C3.89464 11.3633 4 11.109 4 10.8438ZM4.22 3.84375C4.02507 3.65942 3.76489 3.56009 3.49672 3.56759C3.22854 3.57509 2.97433 3.68882 2.79 3.88375C2.60567 4.07868 2.50634 4.33886 2.51384 4.60703C2.52134 4.87521 2.63507 5.12942 2.83 5.31375L4.27 6.70375C4.36663 6.79706 4.48108 6.86994 4.6065 6.91805C4.73192 6.96616 4.86575 6.9885 5 6.98375C5.1347 6.98324 5.26792 6.95551 5.39164 6.90224C5.51537 6.84897 5.62705 6.77125 5.72 6.67375C5.90625 6.48639 6.01079 6.23294 6.01079 5.96875C6.01079 5.70456 5.90625 5.45111 5.72 5.26375L4.22 3.84375ZM15 6.98375C15.2575 6.98273 15.5046 6.88243 15.69 6.70375L17.13 5.31375C17.3057 5.1302 17.4049 4.88667 17.4075 4.63262C17.4101 4.37857 17.3159 4.13305 17.1441 3.94592C16.9722 3.75879 16.7356 3.64409 16.4822 3.62512C16.2289 3.60614 15.9778 3.68431 15.78 3.84375L14.34 5.26375C14.1537 5.45111 14.0492 5.70456 14.0492 5.96875C14.0492 6.23294 14.1537 6.48639 14.34 6.67375C14.5131 6.85647 14.7488 6.96717 15 6.98375ZM10 16.8438C9.73478 16.8438 9.48043 16.9491 9.29289 17.1366C9.10536 17.3242 9 17.5785 9 17.8438V19.8438C9 20.109 9.10536 20.3633 9.29289 20.5509C9.48043 20.7384 9.73478 20.8438 10 20.8438C10.2652 20.8438 10.5196 20.7384 10.7071 20.5509C10.8946 20.3633 11 20.109 11 19.8438V17.8438C11 17.5785 10.8946 17.3242 10.7071 17.1366C10.5196 16.9491 10.2652 16.8438 10 16.8438ZM15.73 14.9837C15.539 14.7994 15.2827 14.6985 15.0173 14.7032C14.752 14.7079 14.4993 14.8178 14.315 15.0088C14.1307 15.1997 14.0298 15.4561 14.0344 15.7214C14.0391 15.9868 14.149 16.2394 14.34 16.4237L15.78 17.8438C15.9654 18.0224 16.2125 18.1227 16.47 18.1238C16.604 18.1245 16.7368 18.0984 16.8605 18.0468C16.9841 17.9953 17.0962 17.9194 17.19 17.8237C17.2837 17.7308 17.3581 17.6202 17.4089 17.4983C17.4597 17.3765 17.4858 17.2458 17.4858 17.1138C17.4858 16.9817 17.4597 16.851 17.4089 16.7292C17.3581 16.6073 17.2837 16.4967 17.19 16.4037L15.73 14.9837ZM4.27 14.9837L2.83 16.3738C2.73627 16.4667 2.66188 16.5773 2.61111 16.6992C2.56034 16.821 2.5342 16.9517 2.5342 17.0837C2.5342 17.2158 2.56034 17.3465 2.61111 17.4683C2.66188 17.5902 2.73627 17.7008 2.83 17.7938C2.92379 17.8894 3.03586 17.9653 3.15954 18.0168C3.28323 18.0684 3.41601 18.0945 3.55 18.0938C3.79651 18.0958 4.03512 18.0068 4.22 17.8438L5.66 16.4538C5.85096 16.2694 5.96087 16.0168 5.96556 15.7514C5.97024 15.4861 5.86933 15.2297 5.685 15.0387C5.50067 14.8478 5.24804 14.7379 4.98268 14.7332C4.71731 14.7285 4.46096 14.8294 4.27 15.0138V14.9837ZM10 6.84375C9.20887 6.84375 8.43552 7.07835 7.77772 7.51787C7.11992 7.9574 6.60723 8.58211 6.30448 9.31302C6.00173 10.0439 5.92252 10.8482 6.07686 11.6241C6.2312 12.4 6.61216 13.1128 7.17157 13.6722C7.73098 14.2316 8.44372 14.6126 9.21964 14.7669C9.99556 14.9212 10.7998 14.842 11.5307 14.5393C12.2616 14.2365 12.8864 13.7238 13.3259 13.066C13.7654 12.4082 14 11.6349 14 10.8438C14 9.78288 13.5786 8.76547 12.8284 8.01532C12.0783 7.26518 11.0609 6.84375 10 6.84375Z" fill="white"/>
</svg>
