<svg width="32" height="33" viewBox="0 0 32 33" fill="none" xmlns="http://www.w3.org/2000/svg">
<rect y="0.710876" width="32" height="32" rx="8" fill="#282828"/>
<mask id="mask0_1_28" style="mask-type:alpha" maskUnits="userSpaceOnUse" x="6" y="6" width="20" height="21">
<g clip-path="url(#clip0_1_28)">
<path opacity="0.95" d="M24.0142 7.09045C18.6714 7.11619 13.3322 7.11619 7.99657 7.09045C7.0401 7.09045 6.35814 7.36924 6 8.28282V23.6034C6.28093 24.2747 6.71413 24.7572 7.52906 24.8001C7.58911 25.3684 7.36822 26.0482 8.11023 26.3377H10.0618C10.7437 26.0332 10.6 25.4091 10.6172 24.8237H21.3721C21.415 25.3834 21.2434 26.0332 21.9382 26.3377H23.9691C24.5867 25.9903 24.428 25.3684 24.4731 24.8044C25.2773 24.7572 25.7234 24.2811 26 23.6034V8.28282C25.6419 7.36924 24.9599 7.09045 24.0142 7.09045ZM8.41904 16.3806C7.95582 16.758 7.50118 17.1441 7.0401 17.5258C6.97148 17.5816 6.90714 17.6738 6.80635 17.6266C6.70555 17.5794 6.72486 17.4722 6.72486 17.3843V17.2685C6.72486 16.52 6.72486 15.7673 6.72486 15.0274V14.8902C6.72486 14.7958 6.70341 14.6757 6.87068 14.6478C6.93287 14.6876 6.99299 14.7306 7.05083 14.7765C7.50976 15.1561 7.9644 15.5464 8.42977 15.9217C8.64636 16.0975 8.6142 16.2219 8.41904 16.3806ZM21.9918 16.8267C21.8517 17.9011 21.4308 18.9197 20.7716 19.7797C20.57 20.0456 20.407 20.0371 20.1969 19.7947C20.0382 19.6124 19.858 19.4473 19.6822 19.2779C19.5385 19.1406 19.3734 18.9734 19.1782 19.1556C18.9831 19.3379 19.1332 19.5138 19.2726 19.6639C19.4634 19.8591 19.65 20.0564 19.8516 20.2408C20.0532 20.4252 20.0425 20.5582 19.8366 20.7212C18.9667 21.4159 17.9203 21.8541 16.8149 21.9864C16.534 22.0229 16.4203 21.8899 16.4203 21.624C16.4321 21.4269 16.4321 21.2292 16.4203 21.0321C16.3989 20.7962 16.5404 20.4081 16.1759 20.4081C15.7684 20.4081 15.9292 20.8112 15.8992 21.0514C15.8874 21.2321 15.8874 21.4133 15.8992 21.594C15.8992 21.8835 15.7791 22.0229 15.4703 21.98C14.3646 21.8417 13.3199 21.3959 12.4551 20.6933C12.2685 20.5453 12.2728 20.4038 12.4422 20.2451C12.6116 20.0864 12.8325 19.8612 13.0212 19.666C13.1606 19.5202 13.33 19.3487 13.1478 19.1578C12.9655 18.9669 12.7639 19.1342 12.6095 19.2822C12.4551 19.4301 12.2385 19.6403 12.0669 19.829C11.8953 20.0178 11.7495 20.0285 11.5822 19.829C10.8841 18.9602 10.4448 17.9122 10.3148 16.8052C10.2827 16.5329 10.4092 16.4106 10.6751 16.4085C10.9775 16.4085 11.2799 16.4085 11.5844 16.3956C11.7431 16.3956 11.9082 16.3613 11.9168 16.164C11.9254 15.9667 11.7581 15.8831 11.5758 15.8831C11.2713 15.8831 10.971 15.8724 10.6665 15.8724C10.362 15.8724 10.2805 15.7351 10.3127 15.4735C10.4456 14.3687 10.8829 13.3225 11.5758 12.4518C11.7474 12.2374 11.8889 12.2695 12.0605 12.4518C12.2556 12.6663 12.4615 12.8657 12.6695 13.063C12.8111 13.196 12.9848 13.2946 13.1478 13.1166C13.3107 12.9386 13.1992 12.8035 13.077 12.6663C12.8625 12.4518 12.6481 12.2374 12.4336 12.0229C12.2556 11.8535 12.2792 11.7162 12.4594 11.5725C13.3399 10.8696 14.4018 10.4308 15.5218 10.3073C15.5664 10.2939 15.6137 10.292 15.6593 10.3017C15.7049 10.3113 15.7473 10.3323 15.7827 10.3626C15.8181 10.3929 15.8454 10.4315 15.862 10.4751C15.8786 10.5186 15.884 10.5656 15.8778 10.6118C15.8698 10.7921 15.8748 10.9727 15.8928 11.1522C15.9378 11.4181 15.7148 11.8857 16.1651 11.8857C16.5726 11.8857 16.3796 11.4353 16.4118 11.1801C16.4271 10.9989 16.4307 10.817 16.4225 10.6354C16.4225 10.378 16.5597 10.2772 16.8042 10.3116C17.9258 10.4413 18.9872 10.8876 19.8645 11.5983C20.0618 11.757 20.0189 11.8921 19.8645 12.0465C19.65 12.2609 19.4356 12.4754 19.2211 12.6899C19.101 12.8228 19.0238 12.9879 19.1761 13.1338C19.3283 13.2796 19.4892 13.196 19.62 13.0759C19.8344 12.8764 20.036 12.677 20.2333 12.4647C20.4306 12.2524 20.5614 12.2502 20.7437 12.4797C21.4223 13.3393 21.8538 14.3677 21.9918 15.4542C22.0326 15.7501 21.9061 15.8831 21.6166 15.8831C21.327 15.8831 21.0118 15.8831 20.7051 15.8831C20.54 15.8831 20.3942 15.9388 20.392 16.1361C20.3899 16.3334 20.5378 16.3892 20.703 16.3935C21.0054 16.4042 21.3077 16.4063 21.6101 16.4063C21.9125 16.4063 22.0347 16.5264 21.9918 16.8267Z" fill="white"/>
<path d="M19.2018 16.1983C19.1908 16.7996 19.0022 17.3841 18.6596 17.8783C18.3171 18.3725 17.836 18.7544 17.277 18.9758C16.7179 19.1972 16.1058 19.2483 15.5178 19.1225C14.9297 18.9968 14.392 18.6999 13.9724 18.2692C13.5527 17.8386 13.2699 17.2934 13.1594 16.7023C13.0489 16.1112 13.1158 15.5006 13.3516 14.9475C13.5874 14.3943 13.9816 13.9233 14.4846 13.5937C14.9875 13.2641 15.5767 13.0906 16.178 13.0952C16.582 13.0947 16.9819 13.1753 17.3542 13.3321C17.7264 13.4889 18.0635 13.7187 18.3454 14.008C18.6273 14.2974 18.8483 14.6402 18.9954 15.0165C19.1425 15.3927 19.2127 15.7945 19.2018 16.1983Z" fill="white"/>
<path d="M6.72486 15.0252C6.72486 15.7737 6.72486 16.5264 6.72486 17.2663C6.5297 17.4293 6.33669 17.5901 6.1394 17.751C6.09799 17.7947 6.05114 17.8329 6 17.8646V14.4333C6.05325 14.467 6.10413 14.5042 6.15226 14.5449L6.72486 15.0252Z" fill="white"/>
</g>
</mask>
<g mask="url(#mask0_1_28)">
<rect x="6" y="6.71088" width="20" height="20" fill="#86888C"/>
</g>
<defs>
<clipPath id="clip0_1_28">
<rect width="20" height="19.2408" fill="white" transform="translate(6 7.09045)"/>
</clipPath>
</defs>
</svg>
