<svg width="32" height="33" viewBox="0 0 32 33" fill="none" xmlns="http://www.w3.org/2000/svg">
<rect y="0.710876" width="32" height="32" rx="8" fill="#282828"/>
<path d="M16 20.8775C16.9167 20.8775 17.6667 20.1275 17.6667 19.2109C17.6667 18.2942 16.9167 17.5442 16 17.5442C15.0834 17.5442 14.3334 18.2942 14.3334 19.2109C14.3334 20.1275 15.0834 20.8775 16 20.8775ZM21 13.3775H20.1667V11.7109C20.1667 9.41086 18.3 7.54419 16 7.54419C13.7 7.54419 11.8334 9.41086 11.8334 11.7109H13.4167C13.4167 10.2859 14.575 9.12752 16 9.12752C17.425 9.12752 18.5834 10.2859 18.5834 11.7109V13.3775H11C10.0834 13.3775 9.33337 14.1275 9.33337 15.0442V23.3775C9.33337 24.2942 10.0834 25.0442 11 25.0442H21C21.9167 25.0442 22.6667 24.2942 22.6667 23.3775V15.0442C22.6667 14.1275 21.9167 13.3775 21 13.3775ZM21 23.3775H11V15.0442H21V23.3775Z" fill="#86888C"/>
</svg>
