<svg width="14" height="14" viewBox="0 0 14 14" fill="none" xmlns="http://www.w3.org/2000/svg">
<path d="M0 2.625C0 1.65977 0.784766 0.875 1.75 0.875H12.25C13.2152 0.875 14 1.65977 14 2.625V11.375C14 12.3402 13.2152 13.125 12.25 13.125H1.75C0.784766 13.125 0 12.3402 0 11.375V2.625ZM8.85391 5.53711C8.73086 5.35664 8.52852 5.25 8.3125 5.25C8.09648 5.25 7.89141 5.35664 7.77109 5.53711L5.39219 9.02617L4.66758 8.12109C4.5418 7.96523 4.35313 7.875 4.15625 7.875C3.95937 7.875 3.76797 7.96523 3.64492 8.12109L1.89492 10.3086C1.73633 10.5055 1.70625 10.7762 1.81563 11.0031C1.925 11.2301 2.15469 11.375 2.40625 11.375H5.03125H5.90625H11.5938C11.8371 11.375 12.0613 11.241 12.1734 11.025C12.2855 10.809 12.2719 10.5492 12.1352 10.3496L8.85391 5.53711ZM3.0625 5.25C3.4106 5.25 3.74444 5.11172 3.99058 4.86558C4.23672 4.61944 4.375 4.2856 4.375 3.9375C4.375 3.5894 4.23672 3.25556 3.99058 3.00942C3.74444 2.76328 3.4106 2.625 3.0625 2.625C2.7144 2.625 2.38056 2.76328 2.13442 3.00942C1.88828 3.25556 1.75 3.5894 1.75 3.9375C1.75 4.2856 1.88828 4.61944 2.13442 4.86558C2.38056 5.11172 2.7144 5.25 3.0625 5.25Z" fill="#FFC107"/>
</svg>
