<svg width="70" height="70" viewBox="0 0 70 70" fill="none" xmlns="http://www.w3.org/2000/svg">
<g clip-path="url(#clip0_2_3940)">
<path d="M35.0094 69.9811C54.3343 69.9811 70 54.3155 70 34.9906C70 15.6658 54.3343 0 35.0094 0C15.6846 0 0.0188293 15.6658 0.0188293 34.9906C0.0188293 54.3155 15.6846 69.9811 35.0094 69.9811Z" fill="#FFD553"/>
<path d="M69.3353 41.5331C59.9151 41.469 50.4969 41.4071 41.0767 41.3434C36.0213 41.91 31.2537 39.0512 29.5068 34.5156C27.8579 30.2316 29.1787 25.1656 32.73 22.377C35.8956 19.891 39.5896 20.1913 40.5055 20.2915C40.9486 20.1104 41.9542 19.6247 42.4018 18.5851C42.9471 17.3197 42.3315 16.0138 42.0224 15.3619C40.921 13.027 37.2484 9.72504 31.9716 8.34461C24.3663 6.35489 14.4454 8.61729 7.69653 15.3619C-0.888682 23.9428 -0.0834215 35.5169 0.110438 38.3099C1.28425 55.1607 15.4828 64.1718 16.6098 64.8599C28.1349 71.9071 43.2495 71.7111 54.5401 64.1014C65.9501 56.4112 68.7603 44.311 69.3332 41.5331H69.3353Z" fill="#EEC23B"/>
<path d="M69.4317 41.2495C69.1569 42.7066 68.8374 44.6599 68.1983 46.4645C67.6656 47.9706 66.9796 49.3958 66.3958 50.5417C60.5886 52.0841 55.7572 53.0025 52.078 53.6714C45.2803 54.9069 43.0326 54.9153 40.8895 54.6192C36.1964 53.9717 32.6366 51.9585 30.4595 50.4461C28.9022 49.8623 26.5184 48.7567 24.2005 46.6539C22.6646 45.2588 17.8011 40.8446 18.1313 34.5154C18.5381 26.7419 26.4395 22.6751 27.4237 22.1872C31.4202 20.2082 35.2143 20.2998 37.0955 20.4809C36.2604 20.6726 32.8348 21.5545 30.6469 24.8437C27.46 29.6349 29.9333 34.9756 30.0781 35.274C32.3022 39.8688 36.9464 41.1323 37.6643 41.1536" fill="#D9A400"/>
<path d="M66.3954 50.5421C65.3709 50.0735 63.707 49.251 61.6406 49.2233C59.2484 49.1915 58.232 49.9625 53.6519 51.247C50.3521 52.1717 48.7522 52.6169 47.3739 52.536C45.3415 52.4146 44.9516 51.688 40.3351 50.3269C37.9516 49.6237 36.7605 49.2296 35.5803 49.2233C33.4117 49.2104 32.4147 49.6983 28.3521 50.8806C24.7093 51.9393 22.89 52.4678 21.5032 52.5381C17.8965 52.717 16.793 50.8529 12.9435 49.9604C10.8537 49.4767 7.69228 49.1743 3.43161 50.3289C4.19 51.6943 4.92924 53.1601 6.08599 54.7151C7.57083 56.7091 8.17157 57.9383 10.6385 60.0261C11.4161 60.122 12.5792 60.0071 13.8936 60.4523C15.3678 60.9507 16.3051 61.509 16.7461 61.741C19.7329 63.3027 23.8209 62.265 27.2082 61.558C30.214 60.9294 32.2485 59.6257 34.2467 59.534C35.8061 59.4615 37.7363 59.9431 41.475 61.006C43.092 61.4663 46.2172 62.6826 47.753 62.6637C49.8152 62.6357 50.8333 61.8349 55.9335 60.4545C57.5397 60.0198 59.2697 59.4552 60.1367 59.2701C61.319 58.1196 62.4439 56.9009 63.7389 55.0967C64.9768 53.3733 65.7031 51.9673 66.3933 50.5442L66.3954 50.5421Z" fill="#C79600"/>
<path d="M45.2353 24.0728C46.5884 24.0728 47.6853 22.976 47.6853 21.623C47.6853 20.2699 46.5884 19.1731 45.2353 19.1731C43.8822 19.1731 42.7853 20.2699 42.7853 21.623C42.7853 22.976 43.8822 24.0728 45.2353 24.0728Z" fill="white"/>
<path d="M38.9502 30.6769C40.1269 30.6769 41.0806 29.7231 41.0806 28.5465C41.0806 27.37 40.1269 26.4162 38.9502 26.4162C37.7738 26.4162 36.8201 27.37 36.8201 28.5465C36.8201 29.7231 37.7738 30.6769 38.9502 30.6769Z" fill="white"/>
<path d="M51.6257 32.8069C52.3904 32.8069 53.0103 32.187 53.0103 31.4222C53.0103 30.6575 52.3904 30.0375 51.6257 30.0375C50.8609 30.0375 50.2407 30.6575 50.2407 31.4222C50.2407 32.187 50.8609 32.8069 51.6257 32.8069Z" fill="white"/>
</g>
<defs>
<clipPath id="clip0_2_3940">
<rect width="70" height="70" fill="white"/>
</clipPath>
</defs>
</svg>
