<svg width="70" height="70" viewBox="0 0 70 70" fill="none" xmlns="http://www.w3.org/2000/svg">
<g clip-path="url(#clip0_2_3880)">
<path d="M35 70C54.3298 70 70 54.3298 70 35C70 15.67 54.3298 0 35 0C15.67 0 0 15.67 0 35C0 54.3298 15.67 70 35 70Z" fill="#FFD553"/>
<path d="M16.5897 23.704H10.197V20.2946C10.246 20.0175 10.442 19.1119 11.2624 18.3768C11.4499 18.2084 12.2149 17.5606 13.3933 17.5244C13.6597 17.5159 14.8295 17.4775 15.7373 18.3768C16.3915 19.0224 16.547 19.7959 16.5897 20.0815V23.704Z" fill="#D9A400"/>
<path d="M15.9494 17.3109C34.013 17.3279 40.8597 17.3237 41.6416 17.3109C41.6587 17.3109 41.6906 17.3109 41.7333 17.3109C42.952 17.3343 43.8427 18.3294 44.0772 18.5894C44.9596 19.5717 45.1087 20.7139 45.1426 21.1465C44.1178 22.197 42.7882 23.8101 41.7333 26.0476C40.0669 29.5806 39.956 32.8238 40.0284 34.5711C39.6641 35.2829 39.2892 36.1393 38.963 37.1281C38.654 38.0636 38.4559 38.9288 38.3239 39.6852C38.3474 39.7408 38.4646 40.003 38.7499 40.1115C39.0334 40.2203 39.3701 40.137 39.6025 39.8983C39.7344 39.1399 39.9346 38.2747 40.2416 37.3412C40.5058 36.5401 40.7998 35.8285 41.0938 35.2104C41.5607 35.2615 42.1403 35.2829 42.7987 35.2104C43.7895 35.1016 44.5886 34.8204 45.1426 34.5711V51.1921H23.1945C23.529 51.6587 24.0639 52.5368 24.2599 53.7492C24.3835 54.5206 24.5859 55.7694 23.8337 56.9454C23.252 57.8533 22.1439 58.6545 20.8505 58.6503C19.2054 58.6461 17.6562 57.3441 17.228 55.4541V19.6549C17.1832 19.3501 17.0766 18.8835 16.8018 18.3763C16.5226 17.8606 16.1817 17.5133 15.9494 17.3109Z" fill="#D9A400"/>
<path d="M48.5531 52.8976H25.5393C25.7865 53.3558 26.2446 54.355 26.1785 55.6679C26.0763 57.7091 24.787 58.9939 24.4738 59.2904H46.4219C46.682 59.2113 47.5664 58.911 48.1268 58.0118C48.44 57.5089 48.5251 57.021 48.5531 56.7333V52.8976Z" fill="#D9A400"/>
<path d="M41.7334 30.9492C42.0232 29.4938 42.5688 27.5398 43.6514 25.4089C44.8211 23.1054 46.2018 21.4156 47.2739 20.2947C46.9946 21.1897 47.1671 21.8822 47.487 21.9995C47.8129 22.1209 48.2795 21.6351 48.3393 21.5733C48.9487 20.6165 50.272 18.8564 52.6009 17.7376C57.3294 15.4682 62.026 17.8527 62.6161 18.1638C61.6956 19.2804 60.1763 20.8552 57.9282 22.2125C55.4968 23.6807 53.2211 24.2859 51.7486 24.5565C51.9747 24.8698 52.4455 25.4345 53.2403 25.8351C53.835 26.1355 54.3803 26.2293 54.732 26.2613C53.4363 27.169 51.9446 28.1151 50.2569 29.0314C48.676 29.8902 47.1693 30.5912 45.7822 31.1623C46.072 31.3136 46.4279 31.467 46.8476 31.5885C47.6127 31.808 48.2861 31.8293 48.7656 31.8016C47.7362 32.3215 46.4514 32.8649 44.9299 33.2932C43.7578 33.6235 42.6752 33.8174 41.7334 33.9325C42.5944 32.1361 43.8751 29.952 45.7822 27.7529C49.6263 23.3249 54.0268 21.1322 56.6497 20.0817C56.8628 19.9112 56.9437 19.6427 56.8628 19.4424C56.7543 19.176 56.3536 19.029 56.0106 19.2293C53.3446 20.3523 49.5944 22.3362 45.9953 25.8351C44.1753 27.6059 42.7841 29.3809 41.7334 30.9492Z" fill="#D9A400"/>
<path d="M38.7499 24.1303H22.3421V26.2612H38.7499V24.1303Z" fill="white"/>
<path d="M38.7499 27.7527H22.3421V29.8836H38.7499V27.7527Z" fill="white"/>
<path d="M38.7499 31.3752H22.3421V33.5062H38.7499V31.3752Z" fill="white"/>
<path d="M34.062 34.9977H22.3421V37.1285H34.062V34.9977Z" fill="white"/>
<path d="M26.9856 41.8551V40.8982C26.9856 40.4891 26.7129 40.0778 26.4401 39.8052C26.031 39.396 25.4834 39.2595 24.9379 39.2595C24.5863 39.2595 24.0301 39.3939 23.572 39.8052C23.0137 40.3081 23.0264 40.6256 23.0264 41.0347V41.8551H22.5917C22.4532 41.8551 22.3424 41.9661 22.3424 42.1043V45.9764C22.3424 46.1146 22.4532 46.2256 22.5917 46.2256H27.4203C27.5589 46.2256 27.6697 46.1146 27.6697 45.9764V42.1043C27.6697 41.9661 27.5589 41.8551 27.4203 41.8551H26.9856Z" fill="white"/>
<path d="M26.1672 41.8551H23.8449V41.1712C23.8513 41.0669 23.8854 40.7641 24.1176 40.4873C24.1624 40.4341 24.45 40.1058 24.9379 40.0781C25.4939 40.0463 25.8433 40.4299 25.8945 40.4873C26.0756 40.6941 26.1672 40.8964 26.1672 41.1712V41.8551Z" fill="#D9A400"/>
<path d="M25.0065 44.0392C25.3453 44.0392 25.6201 43.7645 25.6201 43.4253C25.6201 43.0865 25.3453 42.8118 25.0065 42.8118C24.6676 42.8118 24.3929 43.0865 24.3929 43.4253C24.3929 43.7645 24.6676 44.0392 25.0065 44.0392Z" fill="#D9A400"/>
<path d="M25.3464 43.7659C25.3912 44.1751 25.438 44.5863 25.4828 44.9955H24.5262C24.5709 44.5863 24.6178 44.1751 24.6625 43.7659" fill="#D9A400"/>
</g>
<defs>
<clipPath id="clip0_2_3880">
<rect width="70" height="70" fill="white"/>
</clipPath>
</defs>
</svg>
