<svg width="70" height="70" viewBox="0 0 70 70" fill="none" xmlns="http://www.w3.org/2000/svg">
<g clip-path="url(#clip0_2_3902)">
<path d="M35 70C54.3298 70 70 54.3298 70 35C70 15.67 54.3298 0 35 0C15.67 0 0 15.67 0 35C0 54.3298 15.67 70 35 70Z" fill="#FFD553"/>
<path d="M54.564 14.9056H15.5897C14.0539 14.9056 12.8088 16.1506 12.8088 17.6864V56.6604C12.8088 58.1962 14.0539 59.4412 15.5897 59.4412H54.564C56.0998 59.4412 57.3447 58.1962 57.3447 56.6604V17.6864C57.3447 16.1506 56.0998 14.9056 54.564 14.9056Z" fill="#D9A400"/>
<path d="M50.8092 18.6348H18.9181C17.6035 18.6348 16.5379 19.7004 16.5379 21.015V53.3323C16.5379 54.6469 17.6035 55.7123 18.9181 55.7123H50.8092C52.1238 55.7123 53.1895 54.6469 53.1895 53.3323V21.015C53.1895 19.7004 52.1238 18.6348 50.8092 18.6348Z" fill="#D9A400"/>
<path d="M25.9671 44.2586C29.8214 44.2586 32.9458 41.1341 32.9458 37.2799C32.9458 33.4258 29.8214 30.3013 25.9671 30.3013C22.1129 30.3013 18.9884 33.4258 18.9884 37.2799C18.9884 41.1341 22.1129 44.2586 25.9671 44.2586Z" fill="#F2F2F2"/>
<path d="M25.9245 41.8891C28.4701 41.8891 30.5336 39.8255 30.5336 37.2799C30.5336 34.7344 28.4701 32.6708 25.9245 32.6708C23.379 32.6708 21.3154 34.7344 21.3154 37.2799C21.3154 39.8255 23.379 41.8891 25.9245 41.8891Z" fill="#D9A400"/>
<path d="M38.0596 31.6333H37.2074C36.5011 31.6333 35.9288 32.2057 35.9288 32.9118C35.9288 33.6179 36.5011 34.1904 37.2074 34.1904H38.0596C38.7656 34.1904 39.3382 33.6179 39.3382 32.9118C39.3382 32.2057 38.7656 31.6333 38.0596 31.6333Z" fill="#F2F2F2"/>
<path d="M42.5348 31.6331H41.6826C40.9763 31.6331 40.404 32.2055 40.404 32.9116C40.404 33.6178 40.9763 34.1902 41.6826 34.1902H42.5348C43.2411 34.1902 43.8134 33.6178 43.8134 32.9116C43.8134 32.2055 43.2411 31.6331 42.5348 31.6331Z" fill="#F2F2F2"/>
<path d="M47.2224 31.6333H46.3701C45.6642 31.6333 45.0916 32.2057 45.0916 32.9118C45.0916 33.6179 45.6642 34.1904 46.3701 34.1904H47.2224C47.9287 34.1904 48.5009 33.6179 48.5009 32.9118C48.5009 32.2057 47.9287 31.6333 47.2224 31.6333Z" fill="#F2F2F2"/>
<path d="M38.0596 35.8951H37.2074C36.5011 35.8951 35.9288 36.4677 35.9288 37.1736C35.9288 37.8799 36.5011 38.4522 37.2074 38.4522H38.0596C38.7656 38.4522 39.3382 37.8799 39.3382 37.1736C39.3382 36.4677 38.7656 35.8951 38.0596 35.8951Z" fill="#F2F2F2"/>
<path d="M42.5348 35.895H41.6826C40.9763 35.895 40.404 36.4676 40.404 37.1735C40.404 37.8798 40.9763 38.4521 41.6826 38.4521H42.5348C43.2411 38.4521 43.8134 37.8798 43.8134 37.1735C43.8134 36.4676 43.2411 35.895 42.5348 35.895Z" fill="#F2F2F2"/>
<path d="M47.2224 35.8951H46.3701C45.6642 35.8951 45.0916 36.4677 45.0916 37.1736C45.0916 37.8799 45.6642 38.4522 46.3701 38.4522H47.2224C47.9287 38.4522 48.5009 37.8799 48.5009 37.1736C48.5009 36.4677 47.9287 35.8951 47.2224 35.8951Z" fill="#F2F2F2"/>
<path d="M38.0596 40.1564H37.2074C36.5011 40.1564 35.9288 40.729 35.9288 41.435C35.9288 42.1413 36.5011 42.7135 37.2074 42.7135H38.0596C38.7656 42.7135 39.3382 42.1413 39.3382 41.435C39.3382 40.729 38.7656 40.1564 38.0596 40.1564Z" fill="#F2F2F2"/>
<path d="M42.5348 40.1566H41.6826C40.9763 40.1566 40.404 40.7292 40.404 41.4351C40.404 42.1414 40.9763 42.7137 41.6826 42.7137H42.5348C43.2411 42.7137 43.8134 42.1414 43.8134 41.4351C43.8134 40.7292 43.2411 40.1566 42.5348 40.1566Z" fill="#F2F2F2"/>
<path d="M47.2224 40.1564H46.3701C45.6642 40.1564 45.0916 40.729 45.0916 41.435C45.0916 42.1413 45.6642 42.7135 46.3701 42.7135H47.2224C47.9287 42.7135 48.5009 42.1413 48.5009 41.435C48.5009 40.729 47.9287 40.1564 47.2224 40.1564Z" fill="#F2F2F2"/>
<path d="M16.2183 59.0153V60.9329C16.2183 61.033 16.2374 61.3081 16.4313 61.5724C16.6615 61.8856 16.9811 61.977 17.0706 61.9983H21.5455C21.6137 61.9983 22.0932 61.9749 22.3979 61.5724C22.5939 61.3144 22.6109 61.0376 22.6109 60.9329V59.0153H16.2183Z" fill="#D9A400"/>
<path d="M47.1167 59.0151V60.9327C47.1167 61.0328 47.136 61.3079 47.3299 61.5722C47.5598 61.8854 47.8797 61.9768 47.9689 61.9981H52.4441C52.512 61.9981 52.9915 61.9747 53.2963 61.5722C53.4923 61.3142 53.5094 61.0374 53.5094 60.9327V59.0151H47.1167Z" fill="#D9A400"/>
<path d="M25.5942 21.2984C30.0663 21.2984 33.6916 17.673 33.6916 13.2009C33.6916 8.72885 30.0663 5.10352 25.5942 5.10352C21.1221 5.10352 17.4968 8.72885 17.4968 13.2009C17.4968 17.673 21.1221 21.2984 25.5942 21.2984Z" fill="#EEC23B"/>
<path d="M25.5942 6.59515C26.8024 8.65571 28.0085 10.7142 29.2167 12.7748C28.0085 13.4843 26.8024 14.1961 25.5942 14.9057C24.386 14.1961 23.1799 13.4843 21.9717 12.7748C23.1799 10.7142 24.386 8.65571 25.5942 6.59515Z" fill="white"/>
<path d="M29.2167 13.6271C28.0085 14.3367 26.8024 15.0485 25.5942 15.758C24.386 15.0485 23.1799 14.3367 21.9717 13.6271C23.1799 15.3318 24.386 17.0366 25.5942 18.7413C26.8024 17.0366 28.0085 15.3318 29.2167 13.6271Z" fill="white"/>
<path d="M15.153 31.74C19.9782 31.74 23.8897 27.8284 23.8897 23.0033C23.8897 18.1782 19.9782 14.2666 15.153 14.2666C10.3279 14.2666 6.41638 18.1782 6.41638 23.0033C6.41638 27.8284 10.3279 31.74 15.153 31.74Z" fill="#EEC23B"/>
<path d="M14.433 20.467C14.254 20.4735 13.9833 20.5054 13.6829 20.629C13.3142 20.7803 13.0671 20.9976 12.9328 21.1361C12.805 21.117 12.0805 21.0019 11.6031 20.3349C11.0598 19.5763 11.2878 18.7368 11.3197 18.6302C11.3197 18.594 11.3197 18.4406 11.2174 18.366C11.1173 18.2957 10.9788 18.3425 10.9127 18.366C10.608 18.4725 10.1094 19.033 9.96023 19.847C9.75779 20.9444 10.3182 21.7967 10.3864 21.8948C10.7721 22.4616 11.2771 22.7343 11.5222 22.8473L11.5435 23.0497L11.4412 23.1307V23.6592L11.6436 23.8211C11.5243 24.0256 11.3666 24.3496 11.2792 24.7736C11.2153 25.0868 11.0789 25.7474 11.4007 26.376C11.471 26.5145 11.6458 26.8107 12.1316 27.1474C13.1736 27.8698 14.4117 27.9188 15.0318 27.8975V19.9855C14.9465 19.9855 14.8251 19.9983 14.6866 20.0473C14.5843 20.0835 14.5033 20.1282 14.4436 20.1687L14.433 20.4628V20.467Z" fill="white"/>
<path d="M15.596 20.4609C15.775 20.4673 16.0456 20.4992 16.3461 20.6228C16.7147 20.7741 16.9619 20.9915 17.0962 21.13C17.224 21.1108 17.9485 20.9958 18.4259 20.3288C18.9692 19.5702 18.7412 18.7306 18.7093 18.624C18.7093 18.5878 18.7093 18.4344 18.8116 18.3598C18.9117 18.2895 19.0502 18.3364 19.1163 18.3598C19.421 18.4664 19.9196 19.0268 20.0688 19.8408C20.2712 20.9382 19.7108 21.7906 19.6426 21.8886C19.2569 22.4554 18.7519 22.7282 18.5068 22.8411L18.4855 23.0435L18.5878 23.1245V23.653L18.3854 23.8149C18.5047 24.0195 18.6624 24.3434 18.7497 24.7675C18.8137 25.0807 18.9501 25.7413 18.6283 26.3699C18.558 26.5084 18.3832 26.8046 17.8974 27.1413C16.8554 27.8636 15.6173 27.9127 14.9972 27.8913V19.9793C15.0825 19.9793 15.2039 19.9921 15.3424 20.0411C15.4447 20.0774 15.5257 20.1221 15.5854 20.1626L15.596 20.4566V20.4609Z" fill="white"/>
<path d="M15.3656 14.2665C20.4925 14.1387 24.4667 18.2428 24.3324 23.3484C24.1961 28.3688 19.7212 32.3174 14.7263 31.7399C19.3568 31.6163 23.3799 27.9874 23.4801 23.3207C23.6207 18.5369 20.0941 14.827 15.3656 14.2665Z" fill="#C79600"/>
<path d="M25.5938 5.10338C28.7816 4.84977 32.0141 6.75482 33.2778 9.75299C35.0913 13.7122 33.3928 18.9308 29.2973 20.6568C28.3234 21.0744 27.275 21.2982 26.2352 21.2982C27.2644 21.1576 28.2638 20.8528 29.163 20.3755C30.9679 19.4422 32.3231 17.7843 32.9305 15.858C34.6757 10.6842 31.1021 5.35905 25.5959 5.10338H25.5938Z" fill="#C79600"/>
<path d="M39.2154 15.9713C39.2494 17.024 39.8608 19.0036 40.6343 19.7792C42.041 21.1856 44.6705 21.1579 44.3125 21.1345C44.0097 21.1153 41.2801 21.7802 40.6984 22.4258C39.7523 23.4785 39.1962 25.9567 39.2154 26.2337C39.2389 25.9674 38.6015 23.4359 37.8599 22.4919C37.1504 21.5884 34.3845 21.1132 34.1182 21.1366C34.3973 21.1558 36.2747 21.1814 37.8599 19.7174C38.6995 18.9439 39.2389 16.2569 39.2154 15.9756V15.9713Z" fill="white"/>
<path d="M7.16588 30.8638C7.19574 31.8057 7.74335 33.5786 8.43803 34.2732C9.6974 35.5325 12.0521 35.507 11.7324 35.4856C11.4618 35.4688 9.01763 36.0631 8.4977 36.6406C7.64962 37.5825 7.15311 39.8029 7.16802 40.05C7.18933 39.8116 6.61824 37.5443 5.95555 36.6984C5.29282 35.8524 2.8423 35.4622 2.60364 35.4856C2.85295 35.5028 4.53423 35.5262 5.95555 34.2136C6.70773 33.521 7.18933 31.1153 7.16802 30.8617L7.16588 30.8638Z" fill="white"/>
<path d="M43.7625 2.16272C43.7986 3.38372 44.4527 5.67872 45.2798 6.5758C46.782 8.20596 49.5925 8.17397 49.2113 8.14629C48.8872 8.12284 45.97 8.89424 45.348 9.64215C44.3358 10.861 43.7412 13.7356 43.7625 14.0553C43.7881 13.7463 43.1063 10.812 42.3135 9.71674C41.5547 8.67048 38.5972 8.11857 38.3137 8.14629C38.6123 8.1676 40.6195 8.19742 42.3135 6.50122C43.2106 5.60413 43.786 2.49088 43.7625 2.16272Z" fill="white"/>
<path d="M50.1001 46.017V51.7083C50.1001 52.0961 49.7868 52.4094 49.399 52.4094H44.3464" stroke="white" stroke-width="3.15" stroke-miterlimit="10" stroke-linecap="round"/>
<path d="M41.1498 53.3684C41.6794 53.3684 42.1088 52.9389 42.1088 52.4094C42.1088 51.8798 41.6794 51.4504 41.1498 51.4504C40.6203 51.4504 40.1908 51.8798 40.1908 52.4094C40.1908 52.9389 40.6203 53.3684 41.1498 53.3684Z" fill="white"/>
</g>
<defs>
<clipPath id="clip0_2_3902">
<rect width="70" height="70" fill="white"/>
</clipPath>
</defs>
</svg>
