<svg width="24" height="25" viewBox="0 0 24 25" fill="none" xmlns="http://www.w3.org/2000/svg">
<path d="M21 7.82275H3C2.59 7.82275 2.25 7.48275 2.25 7.07275C2.25 6.66275 2.59 6.32275 3 6.32275H21C21.41 6.32275 21.75 6.66275 21.75 7.07275C21.75 7.48275 21.41 7.82275 21 7.82275Z" fill="white"/>
<path d="M21 12.8228H3C2.59 12.8228 2.25 12.4828 2.25 12.0728C2.25 11.6628 2.59 11.3228 3 11.3228H21C21.41 11.3228 21.75 11.6628 21.75 12.0728C21.75 12.4828 21.41 12.8228 21 12.8228Z" fill="white"/>
<path d="M21 17.8228H3C2.59 17.8228 2.25 17.4828 2.25 17.0728C2.25 16.6628 2.59 16.3228 3 16.3228H21C21.41 16.3228 21.75 16.6628 21.75 17.0728C21.75 17.4828 21.41 17.8228 21 17.8228Z" fill="white"/>
</svg>
