<svg width="107" height="74" viewBox="0 0 107 74" fill="none" xmlns="http://www.w3.org/2000/svg">
<g opacity="0.7">
<path d="M53.3115 73.9163C82.6272 73.9163 106.161 64.9275 106.161 57.0313C106.161 52.5468 97.3849 48.3093 85.3908 45.6879L84.2368 51.8041L52.5893 64.807L21.0015 50.8631V45.4527C9.00737 48.074 0 52.5468 0 57.0313C0 64.9275 23.9958 73.9163 53.3115 73.9163Z" fill="#383838"/>
<path d="M36.7585 6.70621C27.9221 10.388 20.6373 13.5702 20.5058 13.7543C20.2428 14.1751 20.2428 51.5721 20.5058 51.9928C20.7162 52.3084 52.6167 65.7471 53.169 65.7471C53.7213 65.7471 85.6218 52.3084 85.8322 51.9928C86.0952 51.5721 86.0952 14.1751 85.8322 13.7543C85.5955 13.3861 53.6687 0 53.1164 0C52.9323 0.0262985 45.5686 3.02437 36.7585 6.70621ZM56.509 4.12892C58.1395 4.81269 59.4018 5.44386 59.2966 5.54906C58.9811 5.83834 32.84 17.4361 32.4981 17.4361C32.1036 17.4361 25.2922 14.6485 25.2922 14.4644C25.2922 14.254 52.4589 2.94547 53.0375 2.91917C53.3005 2.89287 54.8784 3.44515 56.509 4.12892ZM66.2658 8.20524C68.0279 8.94161 69.3954 9.65168 69.2902 9.75687C69.185 9.86207 63.1363 12.5971 55.8515 15.8582L42.6495 21.7754L39.3621 20.4342C37.5475 19.6978 36.0748 19.0141 36.0748 18.9352C36.0748 18.83 62.321 7.02179 62.8996 6.864C62.9785 6.864 64.4775 7.44257 66.2658 8.20524ZM77.0221 12.676C79.2312 13.5965 81.0458 14.3855 81.0458 14.4644C81.0458 14.6485 53.6161 26.0359 53.169 26.0359C52.9586 26.0359 51.2492 25.3784 49.3557 24.6157L45.9368 23.1693L47.7777 22.354C48.8034 21.9069 54.8258 19.1982 61.1902 16.3316C67.5545 13.4387 72.8142 11.0718 72.8931 11.0718C72.972 11.0455 74.8393 11.7819 77.0221 12.676ZM37.5475 22.5381L51.8541 28.4817V45.4181C51.8541 54.7016 51.7752 62.3283 51.6963 62.3283C51.6174 62.3283 45.0953 59.6458 37.2319 56.3584L22.9253 50.4149V33.4784C22.9253 24.1949 23.0042 16.5683 23.0831 16.5683C23.162 16.5683 29.6841 19.2508 37.5475 22.5381ZM83.4127 33.4784V50.4149L69.1061 56.3584C61.2428 59.6458 54.7206 62.3283 54.6417 62.3283C54.5628 62.3283 54.4839 54.7016 54.4839 45.4181V28.4817L68.7642 22.5381C76.6013 19.2508 83.0971 16.5683 83.2286 16.5683C83.3338 16.5683 83.4127 24.1949 83.4127 33.4784Z" fill="#282828"/>
</g>
</svg>
