<svg width="32" height="33" viewBox="0 0 32 33" fill="none" xmlns="http://www.w3.org/2000/svg">
<rect y="0.710876" width="32" height="32" rx="8" fill="#282828"/>
<path d="M16.7417 15.9609C15.2584 15.4692 14.5417 15.1609 14.5417 14.3775C14.5417 13.5275 15.4667 13.2192 16.05 13.2192C17.1417 13.2192 17.5417 14.0442 17.6334 14.3359L18.95 13.7775C18.825 13.4025 18.2667 12.1775 16.8334 11.9109V10.8775H15.1667V11.9275C13.1 12.3942 13.0917 14.3109 13.0917 14.3942C13.0917 16.2859 14.9667 16.8192 15.8834 17.1525C17.2 17.6192 17.7834 18.0442 17.7834 18.8442C17.7834 19.7859 16.9084 20.1859 16.1334 20.1859C14.6167 20.1859 14.1834 18.6275 14.1334 18.4442L12.75 19.0025C13.275 20.8275 14.65 21.3192 15.1667 21.4692V22.5442H16.8334V21.5109C17.1667 21.4359 19.25 21.0192 19.25 18.8275C19.25 17.6692 18.7417 16.6525 16.7417 15.9609ZM8.50004 24.2109H6.83337V19.2109H11.8334V20.8775H9.76671C11.1084 22.8859 13.4 24.2109 16 24.2109C20.1417 24.2109 23.5 20.8525 23.5 16.7109H25.1667C25.1667 21.7775 21.0667 25.8775 16 25.8775C12.9 25.8775 10.1584 24.3359 8.50004 21.9859V24.2109ZM6.83337 16.7109C6.83337 11.6442 10.9334 7.54419 16 7.54419C19.1 7.54419 21.8417 9.08586 23.5 11.4359V9.21086H25.1667V14.2109H20.1667V12.5442H22.2334C20.8917 10.5359 18.6 9.21086 16 9.21086C11.8584 9.21086 8.50004 12.5692 8.50004 16.7109H6.83337Z" fill="#86888C"/>
</svg>
