<svg width="133" height="29" viewBox="0 0 133 29" fill="none" xmlns="http://www.w3.org/2000/svg">
<path d="M7.58985 15.9302C12.1052 8.15476 14.3628 4.26704 18.069 2.13352C21.7751 0 26.2708 0 35.2622 0H97.7377C106.729 0 111.225 0 114.931 2.13352C118.637 4.26705 120.895 8.15476 125.41 15.9302L133 29H0L7.58985 15.9302Z" fill="#FCBF07"/>
<path d="M34.5149 20H32.5462L36.1307 9.81818H38.4077L41.9972 20H40.0284L37.3089 11.9062H37.2294L34.5149 20ZM34.5795 16.0078H39.9489V17.4893H34.5795V16.0078ZM43.3382 20V9.81818H49.861V11.3643H45.1827V14.1286H49.4135V15.6747H45.1827V20H43.3382ZM51.5414 20V9.81818H58.0641V11.3643H53.3858V14.1286H57.6167V15.6747H53.3858V20H51.5414ZM61.589 9.81818V20H59.7445V9.81818H61.589ZM63.5863 20V9.81818H65.4308V18.4538H69.9151V20H63.5863ZM73.3604 9.81818V20H71.516V9.81818H73.3604ZM76.6653 20H74.6966L78.2811 9.81818H80.5581L84.1475 20H82.1788L79.4593 11.9062H79.3798L76.6653 20ZM76.7299 16.0078H82.0993V17.4893H76.7299V16.0078ZM83.8107 11.3643V9.81818H91.9343V11.3643H88.7873V20H86.9577V11.3643H83.8107ZM93.5004 20V9.81818H100.123V11.3643H95.3448V14.1286H99.7795V15.6747H95.3448V18.4538H100.162V20H93.5004Z" fill="#16171B"/>
</svg>
