<svg width="366" height="556" viewBox="0 0 366 556" fill="none" xmlns="http://www.w3.org/2000/svg">
<mask id="path-1-inside-1_12_2218" fill="white">
<path fill-rule="evenodd" clip-rule="evenodd" d="M135.069 2.13352C131.363 4.26704 129.105 8.15476 124.59 15.9302L117 29H16C7.16344 29 0 36.1634 0 45V540C0 548.837 7.16344 556 16 556H350C358.837 556 366 548.837 366 540V45C366 36.1634 358.837 29 350 29H250L242.41 15.9302C237.895 8.15476 235.637 4.26705 231.931 2.13352C228.225 0 223.729 0 214.738 0H152.262C143.271 0 138.775 0 135.069 2.13352Z"/>
</mask>
<path fill-rule="evenodd" clip-rule="evenodd" d="M135.069 2.13352C131.363 4.26704 129.105 8.15476 124.59 15.9302L117 29H16C7.16344 29 0 36.1634 0 45V540C0 548.837 7.16344 556 16 556H350C358.837 556 366 548.837 366 540V45C366 36.1634 358.837 29 350 29H250L242.41 15.9302C237.895 8.15476 235.637 4.26705 231.931 2.13352C228.225 0 223.729 0 214.738 0H152.262C143.271 0 138.775 0 135.069 2.13352Z" fill="#1B1B1B"/>
<path d="M124.59 15.9302L123.725 15.428L123.725 15.428L124.59 15.9302ZM117 29V30H117.576L117.865 29.5022L117 29ZM250 29L249.135 29.5022L249.424 30H250V29ZM242.41 15.9302L241.545 16.4324L241.545 16.4324L242.41 15.9302ZM231.931 2.13352L232.43 1.26687L232.43 1.26687L231.931 2.13352ZM125.455 16.4324C127.722 12.5279 129.388 9.66207 130.944 7.50057C132.488 5.35688 133.881 3.97144 135.568 3.00018L134.57 1.26687C132.551 2.42912 130.962 4.05431 129.321 6.33172C127.694 8.59131 125.973 11.5571 123.725 15.428L125.455 16.4324ZM117.865 29.5022L125.455 16.4324L123.725 15.428L116.135 28.4978L117.865 29.5022ZM16 30H117V28H16V30ZM1 45C1 36.7157 7.71573 30 16 30V28C6.61116 28 -1 35.6112 -1 45H1ZM1 540V45H-1V540H1ZM16 555C7.71573 555 1 548.284 1 540H-1C-1 549.389 6.61115 557 16 557V555ZM350 555H16V557H350V555ZM365 540C365 548.284 358.284 555 350 555V557C359.389 557 367 549.389 367 540H365ZM365 45V540H367V45H365ZM350 30C358.284 30 365 36.7157 365 45H367C367 35.6112 359.389 28 350 28V30ZM250 30H350V28H250V30ZM241.545 16.4324L249.135 29.5022L250.865 28.4978L243.275 15.428L241.545 16.4324ZM231.432 3.00018C233.119 3.97144 234.512 5.35688 236.056 7.50057C237.612 9.66207 239.278 12.5279 241.545 16.4324L243.275 15.428C241.027 11.5571 239.306 8.59132 237.679 6.33172C236.038 4.05431 234.449 2.42912 232.43 1.26687L231.432 3.00018ZM214.738 1C219.253 1 222.567 1.00111 225.218 1.26189C227.848 1.52051 229.745 2.02891 231.432 3.00018L232.43 1.26687C230.411 0.104611 228.207 -0.45375 225.414 -0.728506C222.643 -1.00111 219.214 -1 214.738 -1V1ZM152.262 1H214.738V-1H152.262V1ZM135.568 3.00018C137.255 2.02891 139.152 1.52051 141.782 1.26189C144.432 1.00111 147.747 1 152.262 1V-1C147.786 -1 144.357 -1.00111 141.586 -0.728506C138.793 -0.45375 136.589 0.104611 134.57 1.26687L135.568 3.00018Z" fill="#2C2C2C" mask="url(#path-1-inside-1_12_2218)"/>
</svg>
