<svg width="32" height="32" viewBox="0 0 32 32" fill="none" xmlns="http://www.w3.org/2000/svg">
<rect x="0.5" y="0.5" width="31" height="31" rx="5.5" fill="#282828" stroke="#2C2C2C"/>
<path d="M15.5704 9.05268C15.1952 9.1934 14.9231 9.44045 14.7448 9.80321C14.6479 10.0033 14.6448 10.0221 14.6291 10.5381L14.6135 11.0666L14.4102 11.1354C13.1468 11.5638 12.0335 12.6271 11.5301 13.8873C11.2705 14.5378 11.1892 15.01 11.1892 15.9044C11.1861 16.7362 11.1454 17.4805 11.0797 17.8902C10.8734 19.1974 10.2917 20.4733 9.45985 21.4552C8.97826 22.0212 9.00015 21.9868 9.00015 22.1838C9.00015 22.384 9.05957 22.5028 9.20655 22.5998C9.29411 22.6561 9.488 22.6592 16.0364 22.6592C22.5848 22.6592 22.7787 22.6561 22.8662 22.5998C23.0132 22.5028 23.0726 22.384 23.0726 22.1838C23.0726 21.9868 23.0945 22.0212 22.6129 21.4552C21.8999 20.614 21.3339 19.4725 21.09 18.3905C20.9524 17.7807 20.9117 17.3617 20.8961 16.2953C20.8804 15.1976 20.8585 14.9475 20.7366 14.4846C20.5052 13.5934 20.083 12.8804 19.3919 12.2112C18.8915 11.7264 18.2817 11.3449 17.6782 11.1385L17.4593 11.0635L17.4436 10.535C17.428 10.0159 17.4249 10.0065 17.3217 9.7907C17.1809 9.50299 16.9339 9.25594 16.6462 9.11835C16.4429 9.01828 16.3991 9.00889 16.0833 9.00264C15.8018 8.99326 15.708 9.00264 15.5704 9.05268ZM16.2615 10.0159C16.4242 10.1128 16.4804 10.2473 16.4992 10.5756L16.5148 10.8696H16.0364H15.5579L15.5736 10.5756C15.5923 10.2504 15.6424 10.1316 15.805 10.0221C15.9207 9.94706 16.1365 9.94393 16.2615 10.0159Z" fill="#86888C"/>
<path d="M11.1829 10.6445C10.9734 10.7415 10.3511 11.4857 9.9977 12.0643C9.37539 13.0806 9.00012 14.3878 9.00012 15.523C9.00012 15.9264 9.02827 16.0077 9.20652 16.1265C9.32848 16.2078 9.60055 16.2078 9.73189 16.1265C9.91014 16.0139 9.94141 15.9201 9.96956 15.3916C10.0509 13.9625 10.6106 12.6334 11.5582 11.6171C11.8084 11.3513 11.8772 11.2293 11.8772 11.0729C11.8772 10.7164 11.5113 10.4913 11.1829 10.6445Z" fill="#86888C"/>
<path d="M20.4395 10.6539C20.2268 10.7633 20.1362 11.0667 20.2456 11.2856C20.2769 11.3419 20.3957 11.4889 20.5145 11.6171C21.4621 12.6334 22.0156 13.9437 22.1 15.3822C22.1344 15.9201 22.1626 16.0171 22.3408 16.1265C22.4722 16.2078 22.7443 16.2078 22.8662 16.1265C23.0445 16.0077 23.0726 15.9264 23.0726 15.523C23.0726 14.3878 22.6973 13.0806 22.075 12.0643C21.7217 11.4857 21.0993 10.7415 20.8898 10.6445C20.7397 10.5726 20.5833 10.5757 20.4395 10.6539Z" fill="#86888C"/>
<path d="M13.8911 23.6512C14.0099 23.9639 14.5103 24.5143 14.8512 24.705C15.2296 24.9114 15.4704 24.9802 15.9269 24.9959C16.421 25.0178 16.715 24.9552 17.1309 24.7488C17.3436 24.6425 17.453 24.5581 17.6782 24.3329C17.9252 24.0858 18.1128 23.8294 18.1816 23.6512C18.2004 23.6011 18.0847 23.598 16.0364 23.598C13.9881 23.598 13.8723 23.6011 13.8911 23.6512Z" fill="#86888C"/>
</svg>
