<svg width="32" height="32" viewBox="0 0 32 32" fill="none" xmlns="http://www.w3.org/2000/svg">
<rect x="0.5" y="0.5" width="31" height="31" rx="5.5" fill="#282828" stroke="#2C2C2C"/>
<path d="M11.72 9.04409C11.0921 9.15343 10.3329 9.48146 9.84247 9.85322C9.01147 10.4812 8.3929 11.4559 8.13673 12.5274C7.99927 13.1147 7.95866 14.0051 8.04613 14.5737C8.27419 16.0607 9.16142 17.4728 10.889 19.0973C11.5295 19.7003 11.9762 20.0939 13.7944 21.6591C14.9128 22.6244 15.4752 23.0868 15.5939 23.143C15.8375 23.2617 16.1625 23.2617 16.4061 23.1461C16.6404 23.0305 19.9707 20.1689 21.0985 19.1098C22.8261 17.4884 23.7258 16.0607 23.9539 14.5737C24.0413 14.0051 24.0007 13.1147 23.8633 12.5274C23.6071 11.4559 22.9885 10.4812 22.1575 9.85322C21.6546 9.47208 20.9017 9.1503 20.2487 9.04409C19.8957 8.98473 19.174 8.98473 18.8242 9.04409C17.8557 9.21279 16.9466 9.75013 16.2624 10.5655C16.1281 10.7248 16.0125 10.856 16 10.856C15.9875 10.856 15.8719 10.7248 15.7376 10.5655C15.0534 9.75013 14.1443 9.21279 13.1758 9.04409C12.8384 8.98785 12.0574 8.98785 11.72 9.04409ZM13.2821 10.0563C13.5851 10.1438 14.0912 10.3937 14.3286 10.5718C14.6223 10.7936 15.0159 11.2028 15.2284 11.5059C15.3346 11.6589 15.4595 11.8401 15.5064 11.9057C15.7407 12.2369 16.2593 12.2369 16.4936 11.9057C16.5405 11.8401 16.6654 11.6589 16.7716 11.5059C16.9841 11.2028 17.3777 10.7936 17.6714 10.5718C17.9151 10.3906 18.418 10.1438 18.7336 10.0532C18.9522 9.99068 19.0522 9.98131 19.5458 9.98131C20.1613 9.98443 20.3674 10.0219 20.8423 10.2125C21.8951 10.6405 22.6824 11.6433 22.9542 12.9023C23.0354 13.2803 23.0385 14.2738 22.9573 14.6518C22.6605 16.0326 21.7264 17.2729 19.5083 19.2379C18.3555 20.2595 16.0156 22.2433 15.9813 22.2308C15.9344 22.212 13.2258 19.8908 12.4854 19.2317C10.2611 17.2573 9.34262 16.0326 9.04271 14.6518C8.96148 14.2738 8.96461 13.2803 9.04583 12.9023C9.36136 11.4496 10.3236 10.3874 11.6232 10.0625C11.97 9.97193 12.0012 9.97193 12.5479 9.98131C12.9478 9.98755 13.0946 10.0032 13.2821 10.0563Z" fill="#86888C"/>
</svg>
