<svg width="14" height="14" viewBox="0 0 14 14" fill="none" xmlns="http://www.w3.org/2000/svg">
<path d="M5.50977 8.35352C5.13242 8.35352 4.82891 8.05 4.82891 7.68086C4.82891 7.30352 5.13242 7 5.50977 7C5.88164 7 6.18242 7.30352 6.18242 7.68086C6.18242 8.05273 5.87891 8.35352 5.50977 8.35352ZM13.7812 7C13.7812 10.7461 10.7461 13.7812 7 13.7812C3.25391 13.7812 0.21875 10.7461 0.21875 7C0.21875 3.25391 3.25391 0.21875 7 0.21875C10.7461 0.21875 13.7812 3.25391 13.7812 7ZM10.1637 5.87344C9.90664 5.87344 9.67969 5.98008 9.51289 6.14687C8.90039 5.72305 8.07461 5.44961 7.15859 5.41953L7.63438 3.27852L9.14922 3.62031C9.14922 3.99219 9.45273 4.29297 9.82188 4.29297C10.1992 4.29297 10.5027 3.98398 10.5027 3.61211C10.5027 3.24023 10.1992 2.93125 9.82188 2.93125C9.55664 2.93125 9.32969 3.08984 9.21758 3.30859L7.54414 2.93672C7.46211 2.91484 7.37734 2.975 7.35547 3.05703L6.8332 5.41953C5.92539 5.45781 5.10781 5.72852 4.49531 6.15234C4.32852 5.97734 4.09336 5.87344 3.83633 5.87344C2.88203 5.87344 2.57031 7.15586 3.44258 7.59063C3.4125 7.72734 3.39609 7.86953 3.39609 8.01445C3.39609 9.45273 5.01484 10.6176 7.00547 10.6176C9.0043 10.6176 10.623 9.45273 10.623 8.01445C10.623 7.86953 10.6066 7.71914 10.5711 7.58242C11.427 7.14492 11.1125 5.87344 10.1637 5.87344ZM8.27969 9.05078C7.78203 9.54844 6.19883 9.54023 5.72031 9.05078C5.66016 8.99063 5.55352 8.99063 5.49336 9.05078C5.425 9.11914 5.425 9.22578 5.49336 9.28594C6.1168 9.90938 7.88047 9.90938 8.50664 9.28594C8.575 9.22578 8.575 9.11914 8.50664 9.05078C8.44648 8.99063 8.33984 8.99063 8.27969 9.05078ZM8.49023 7C8.11836 7 7.81758 7.30352 7.81758 7.68086C7.81758 8.05273 8.12109 8.35352 8.49023 8.35352C8.86758 8.35352 9.17109 8.05 9.17109 7.68086C9.17109 7.30352 8.87031 7 8.49023 7Z" fill="#FFC107"/>
</svg>
