<svg width="19" height="18" viewBox="0 0 19 18" fill="none" xmlns="http://www.w3.org/2000/svg">
<path d="M11.75 5.13281C11.75 5.13281 12.6064 4.71094 9.5 4.71094C8.38748 4.71094 7.29995 5.04084 6.37492 5.65892C5.44989 6.277 4.72892 7.15551 4.30318 8.18334C3.87744 9.21118 3.76604 10.3422 3.98309 11.4333C4.20013 12.5245 4.73586 13.5267 5.52253 14.3134C6.3092 15.1001 7.31148 15.6358 8.40262 15.8529C9.49376 16.0699 10.6248 15.9585 11.6526 15.5328C12.6804 15.107 13.5589 14.386 14.177 13.461C14.7951 12.536 15.125 11.4485 15.125 10.3359" stroke="#FCBF07" stroke-width="1.5" stroke-miterlimit="10" stroke-linecap="square"/>
<path d="M9.5 2.03906L12.3125 4.85156L9.5 7.66406" stroke="#FCBF07" stroke-width="1.5" stroke-miterlimit="10" stroke-linecap="square"/>
</svg>
