<svg width="32" height="33" viewBox="0 0 32 33" fill="none" xmlns="http://www.w3.org/2000/svg">
<rect y="0.710876" width="32" height="32" rx="8" fill="#282828"/>
<mask id="mask0_1_4" style="mask-type:alpha" maskUnits="userSpaceOnUse" x="6" y="6" width="20" height="21">
<g clip-path="url(#clip0_1_4)">
<path d="M23.4002 23.2365C21.8792 24.8653 19.9893 25.8297 17.7804 26.1039C14.8311 26.4701 12.2402 25.6313 10.0584 23.6095C8.50924 22.1736 7.5556 20.3897 7.22031 18.3068C6.75115 15.3914 7.47825 12.7814 9.39657 10.5341C10.9005 8.77222 12.8314 7.73822 15.1149 7.36826C15.395 7.31865 15.6784 7.28977 15.9628 7.28187H15.9673C15.9676 7.28571 15.9676 7.28958 15.9673 7.29342C15.9673 7.34842 15.8975 7.33762 15.8555 7.34214C15.577 7.37253 15.2985 7.40142 15.0222 7.44763C13.902 7.636 12.8457 8.00344 11.8609 8.57406C11.2121 8.9488 10.6097 9.39871 10.0662 9.91448C9.36539 10.5814 8.77156 11.3523 8.30555 12.2C7.79596 13.1215 7.46243 14.1035 7.28084 15.1378C7.2202 15.4922 7.18037 15.8498 7.16154 16.2089C7.14949 16.4179 7.13643 16.6264 7.14195 16.8353C7.16114 17.9206 7.36279 18.995 7.73845 20.0134C8.04238 20.8305 8.45869 21.6013 8.97539 22.3035C9.19973 22.6058 9.44142 22.8948 9.69922 23.1692C10.2696 23.7835 10.9176 24.2994 11.6283 24.7404C12.3701 25.1973 13.1725 25.5477 14.0118 25.7812C14.5839 25.9422 15.1699 26.0486 15.7621 26.0989C17.4854 26.239 19.2141 25.9037 20.7601 25.1295C21.5823 24.7132 22.34 24.1802 23.0097 23.5472C23.8319 22.7689 24.5062 21.8481 25.0001 20.8294C25.4428 19.9209 25.7342 18.9461 25.8626 17.9437C25.9269 17.4501 25.9653 16.9531 25.9434 16.4551C25.8975 15.4118 25.7076 14.3971 25.3407 13.4161C24.9885 12.4781 24.4889 11.6024 23.8606 10.8219C23.0789 9.85128 22.1116 9.04614 21.0153 8.45351C19.9189 7.86088 18.7155 7.49263 17.4752 7.37027C17.3838 7.36173 17.2929 7.34667 17.2012 7.33938C17.1628 7.33637 17.1209 7.32934 17.1171 7.29166C17.1166 7.28833 17.1166 7.28495 17.1171 7.28162H17.1239C18.2262 7.33913 19.281 7.59933 20.2929 8.03508C21.3975 8.50549 22.3997 9.18707 23.243 10.0416C24.7412 11.5595 25.6616 13.3787 25.9191 15.4972C26.279 18.4558 25.4394 21.055 23.4002 23.2365Z" fill="white"/>
<path d="M6 7.23413H6.03592C6.03024 7.2367 6.02478 7.23973 6.01959 7.24317C6.0127 7.241 6.00612 7.23796 6 7.23413Z" fill="white"/>
<path d="M16.7206 7.26628C16.5716 7.2703 16.4224 7.27331 16.2735 7.2708H16.219C16.3863 7.26477 16.5534 7.26326 16.7206 7.26628Z" fill="white"/>
<path d="M6.01959 7.24317C6.02478 7.23973 6.03024 7.2367 6.03592 7.23413H6L6.01959 7.24317Z" fill="white"/>
<path d="M17.1236 7.28187C17.1216 7.28527 17.1195 7.28854 17.1171 7.29166C17.0606 7.37128 16.9719 7.34717 16.8978 7.3419C16.7323 7.32591 16.566 7.31996 16.3998 7.32406C16.2961 7.32833 16.1936 7.3542 16.0891 7.3434C16.0434 7.33863 15.9942 7.34014 15.9683 7.29317C15.9663 7.2895 15.9644 7.28573 15.9628 7.28187H15.9673C16.051 7.27685 16.1347 7.273 16.2184 7.27032C16.3859 7.26479 16.5533 7.26354 16.7208 7.26655C16.8529 7.26889 16.985 7.274 17.1171 7.28187H17.1236Z" fill="white"/>
<path d="M14.4762 15.632C13.7687 14.6683 13.8589 13.1162 15.1594 12.3941C15.3554 12.2818 15.561 12.1869 15.7737 12.1106C15.8656 12.0787 15.8975 12.03 15.892 11.9365C15.8857 11.8238 15.8907 11.7105 15.8905 11.5977C15.8905 11.3187 15.9972 11.0999 16.2559 10.9764C16.5146 10.8528 16.7698 10.888 17.0038 11.0492C17.1152 11.1222 17.2046 11.2241 17.2626 11.344C17.3205 11.4638 17.3448 11.5972 17.3329 11.7298C17.3158 11.978 17.4065 12.0661 17.6378 12.153C18.4199 12.4469 18.9056 13.0233 19.0598 13.8486C19.1156 14.1467 19.0997 14.4601 19.0636 14.7618C19.0262 15.0704 18.8308 15.2834 18.5233 15.3532C18.2054 15.4253 17.916 15.3532 17.6945 15.0953C17.6137 14.9972 17.5706 14.8735 17.573 14.7465C17.5712 14.6503 17.573 14.5541 17.573 14.4579H17.5782C17.5782 14.437 17.5782 14.4162 17.5782 14.3953C17.5813 13.897 17.3198 13.5834 16.8092 13.4731C16.3694 13.3779 15.8588 13.615 15.7099 14.0256C15.5672 14.4194 15.6833 14.7854 15.9543 15.0963C16.1349 15.3035 16.377 15.4361 16.6028 15.5868C17.1523 15.9538 17.7201 16.2943 18.2242 16.7251C18.5256 16.9817 18.8046 17.2623 18.983 17.6192C19.7364 19.1304 18.9691 20.6858 17.4961 21.0477C17.4037 21.0705 17.3602 21.1087 17.3688 21.2094C17.3781 21.3174 17.3741 21.4267 17.3736 21.5359C17.371 21.9393 17.0513 22.2417 16.6485 22.2141C16.3722 22.196 16.1306 22.1048 15.994 21.8413C15.9143 21.6879 15.9186 21.5173 15.9186 21.3501C15.9168 21.0947 15.9186 21.0947 15.676 21.0165C14.6905 20.6981 14.0078 19.7168 14.051 18.6808C14.054 18.6097 14.0555 18.5386 14.0578 18.4676C14.0706 18.0657 14.3645 17.7709 14.7658 17.7475C15.0546 17.7304 15.306 17.7977 15.4884 18.0366C15.6152 18.2033 15.6712 18.4133 15.6443 18.621C15.5826 19.1525 15.9651 19.536 16.5108 19.6063C16.7369 19.6354 16.9629 19.6244 17.1764 19.5297C17.6923 19.3004 17.8683 18.9053 17.6049 18.3779C17.4461 18.0602 17.195 17.8208 16.9167 17.6084C16.7151 17.4589 16.5047 17.3217 16.2866 17.1975C15.5871 16.7861 14.9602 16.2911 14.4762 15.632Z" fill="white"/>
<path d="M25.9191 15.4972C25.6616 13.3797 24.7412 11.5606 23.2428 10.0421C22.3995 9.18721 21.3974 8.50529 20.2927 8.03458C19.2808 7.59958 18.2259 7.33938 17.1236 7.28187H17.1168C16.9847 7.27383 16.8526 7.26873 16.7205 7.26655C16.5531 7.26354 16.3856 7.26479 16.2182 7.27032C16.1345 7.27316 16.0508 7.27701 15.967 7.28187H15.9625C15.6781 7.28977 15.3947 7.31865 15.1146 7.36827C12.8304 7.73822 10.9002 8.77223 9.39657 10.5328C7.4785 12.7797 6.7514 15.3907 7.22056 18.3061C7.5556 20.3889 8.50924 22.1739 10.0586 23.6087C12.2404 25.6313 14.8306 26.4701 17.7806 26.104C19.9893 25.8297 21.8792 24.8653 23.4002 23.2365C25.4394 21.055 26.279 18.4558 25.9191 15.4972ZM16.5598 8.89178C20.8766 8.8963 24.3795 12.4195 24.3737 16.7529C24.3682 21.0572 20.8475 24.5639 16.5329 24.5604C12.2145 24.5566 8.7084 21.0356 8.71242 16.7057C8.71694 12.3941 12.2381 8.88776 16.5598 8.89178Z" fill="white"/>
<path d="M17.4967 21.0492C17.4042 21.072 17.3608 21.1102 17.3693 21.2109C17.3786 21.3189 17.3746 21.4282 17.3741 21.5374C17.3716 21.9408 17.0519 22.2432 16.649 22.2156C16.3728 22.1975 16.1311 22.1063 15.9945 21.8428C15.9149 21.6894 15.9192 21.5189 15.9192 21.3516C15.9174 21.0962 15.9192 21.0962 15.6766 21.0181C14.691 20.6996 14.0084 19.7183 14.0516 18.6823C14.0546 18.6112 14.0561 18.5402 14.0584 18.4691C14.0712 18.0672 14.365 17.7724 14.7664 17.749C15.0552 17.7319 15.3066 17.7992 15.4889 18.0381C15.6152 18.2045 15.671 18.4138 15.6444 18.621C15.5826 19.1525 15.9651 19.536 16.5109 19.6063C16.7369 19.6354 16.963 19.6244 17.1765 19.5297C17.6923 19.3004 17.8684 18.9053 17.6049 18.3779C17.4462 18.0602 17.195 17.8208 16.9168 17.6084C16.7152 17.4589 16.5047 17.3217 16.2866 17.1975C15.5884 16.7861 14.9615 16.2911 14.4783 15.632C13.7688 14.6683 13.8589 13.1162 15.1594 12.3941C15.3555 12.2818 15.5611 12.1869 15.7737 12.1106C15.8657 12.0787 15.8976 12.03 15.892 11.9365C15.8858 11.8238 15.8908 11.7105 15.8905 11.5977C15.8905 11.3187 15.9973 11.0999 16.256 10.9764C16.5147 10.8528 16.7698 10.888 17.0039 11.0492C17.1153 11.1222 17.2047 11.2241 17.2626 11.344C17.3206 11.4638 17.3449 11.5972 17.3329 11.7298C17.3158 11.978 17.4065 12.0661 17.6378 12.153C18.4199 12.4469 18.9057 13.0233 19.0599 13.8486C19.1156 14.1467 19.0998 14.4601 19.0636 14.7618C19.0262 15.0704 18.8308 15.2834 18.5234 15.3532C18.2054 15.4253 17.9161 15.3532 17.6946 15.0953C17.6137 14.9972 17.5706 14.8735 17.573 14.7465C17.5713 14.6503 17.573 14.5541 17.573 14.4579H17.5783C17.5783 14.437 17.5783 14.4162 17.5783 14.3953C17.5813 13.897 17.3199 13.5834 16.8093 13.4731C16.3695 13.3779 15.8589 13.615 15.71 14.0256C15.5673 14.4194 15.6833 14.7854 15.9543 15.0963C16.1349 15.3035 16.377 15.4361 16.6028 15.5868C17.1523 15.9538 17.7202 16.2943 18.2243 16.7251C18.5257 16.9817 18.8047 17.2623 18.983 17.6192C19.7382 19.1319 18.9697 20.6873 17.4967 21.0492Z" fill="white"/>
<path d="M17.4967 21.0492C17.4042 21.072 17.3608 21.1102 17.3693 21.2109C17.3786 21.3189 17.3746 21.4282 17.3741 21.5374C17.3716 21.9408 17.0519 22.2432 16.649 22.2156C16.3728 22.1975 16.1311 22.1063 15.9945 21.8428C15.9149 21.6894 15.9192 21.5189 15.9192 21.3516C15.9174 21.0962 15.9192 21.0962 15.6766 21.0181C14.691 20.6996 14.0084 19.7183 14.0516 18.6823C14.0546 18.6112 14.0561 18.5402 14.0584 18.4691C14.0712 18.0672 14.365 17.7724 14.7664 17.749C15.0552 17.7319 15.3066 17.7992 15.4889 18.0381C15.6152 18.2045 15.671 18.4138 15.6444 18.621C15.5826 19.1525 15.9651 19.536 16.5109 19.6063C16.7369 19.6354 16.963 19.6244 17.1765 19.5297C17.6923 19.3004 17.8684 18.9053 17.6049 18.3779C17.4462 18.0602 17.195 17.8208 16.9168 17.6084C16.7152 17.4589 16.5047 17.3217 16.2866 17.1975C15.5884 16.7861 14.9615 16.2911 14.4783 15.632C13.7688 14.6683 13.8589 13.1162 15.1594 12.3941C15.3555 12.2818 15.5611 12.1869 15.7737 12.1106C15.8657 12.0787 15.8976 12.03 15.892 11.9365C15.8858 11.8238 15.8908 11.7105 15.8905 11.5977C15.8905 11.3187 15.9973 11.0999 16.256 10.9764C16.5147 10.8528 16.7698 10.888 17.0039 11.0492C17.1153 11.1222 17.2047 11.2241 17.2626 11.344C17.3206 11.4638 17.3449 11.5972 17.3329 11.7298C17.3158 11.978 17.4065 12.0661 17.6378 12.153C18.4199 12.4469 18.9057 13.0233 19.0599 13.8486C19.1156 14.1467 19.0998 14.4601 19.0636 14.7618C19.0262 15.0704 18.8308 15.2834 18.5234 15.3532C18.2054 15.4253 17.9161 15.3532 17.6946 15.0953C17.6137 14.9972 17.5706 14.8735 17.573 14.7465C17.5713 14.6503 17.573 14.5541 17.573 14.4579H17.5783C17.5783 14.437 17.5783 14.4162 17.5783 14.3953C17.5813 13.897 17.3199 13.5834 16.8093 13.4731C16.3695 13.3779 15.8589 13.615 15.71 14.0256C15.5673 14.4194 15.6833 14.7854 15.9543 15.0963C16.1349 15.3035 16.377 15.4361 16.6028 15.5868C17.1523 15.9538 17.7202 16.2943 18.2243 16.7251C18.5257 16.9817 18.8047 17.2623 18.983 17.6192C19.7382 19.1319 18.9697 20.6873 17.4967 21.0492Z" fill="white"/>
</g>
</mask>
<g mask="url(#mask0_1_4)">
<rect x="6" y="6.71088" width="20" height="20" fill="#86888C"/>
</g>
<defs>
<clipPath id="clip0_1_4">
<rect width="20" height="18.9534" fill="white" transform="translate(6 7.23413)"/>
</clipPath>
</defs>
</svg>
