<svg width="16" height="16" viewBox="0 0 16 16" fill="none" xmlns="http://www.w3.org/2000/svg">
<path d="M15.2559 14.0731L12.4226 11.248C13.3367 10.0834 13.8327 8.64526 13.8309 7.16472C13.8309 5.84617 13.4399 4.55724 12.7074 3.46091C11.9748 2.36459 10.9336 1.5101 9.71545 1.00552C8.49728 0.500935 7.15683 0.368913 5.86363 0.626148C4.57042 0.883383 3.38253 1.51832 2.45018 2.45067C1.51783 3.38302 0.882895 4.57091 0.62566 5.86411C0.368425 7.15732 0.500447 8.49777 1.00503 9.71594C1.50962 10.9341 2.3641 11.9753 3.46043 12.7078C4.55675 13.4404 5.84569 13.8314 7.16423 13.8314C8.64477 13.8332 10.0829 13.3372 11.2476 12.423L14.0726 15.2564C14.15 15.3345 14.2422 15.3965 14.3437 15.4388C14.4453 15.4811 14.5542 15.5029 14.6642 15.5029C14.7742 15.5029 14.8832 15.4811 14.9847 15.4388C15.0863 15.3965 15.1784 15.3345 15.2559 15.2564C15.334 15.1789 15.396 15.0867 15.4383 14.9852C15.4806 14.8836 15.5024 14.7747 15.5024 14.6647C15.5024 14.5547 15.4806 14.4458 15.4383 14.3442C15.396 14.2427 15.334 14.1505 15.2559 14.0731ZM2.16423 7.16472C2.16423 6.17581 2.45747 5.20911 3.00688 4.38687C3.55629 3.56462 4.33718 2.92376 5.25081 2.54532C6.16444 2.16688 7.16977 2.06786 8.13968 2.26079C9.10958 2.45372 10.0005 2.92992 10.6998 3.62918C11.399 4.32845 11.8752 5.21936 12.0682 6.18927C12.2611 7.15917 12.1621 8.1645 11.7836 9.07813C11.4052 9.99176 10.7643 10.7727 9.94208 11.3221C9.11983 11.8715 8.15313 12.1647 7.16423 12.1647C5.83815 12.1647 4.56638 11.6379 3.62869 10.7003C2.69101 9.76257 2.16423 8.4908 2.16423 7.16472Z" fill="black"/>
</svg>
