<svg width="24" height="24" viewBox="0 0 24 24" fill="none" xmlns="http://www.w3.org/2000/svg">
<path d="M15.7318 9.28956L11.9126 13.1696L8.09332 9.28956C8.00226 9.19684 7.8941 9.12328 7.77502 9.07309C7.65594 9.0229 7.52828 8.99707 7.39936 8.99707C7.27044 8.99707 7.14278 9.0229 7.0237 9.07309C6.90462 9.12328 6.79646 9.19684 6.7054 9.28956C6.32151 9.67956 6.32151 10.3096 6.7054 10.6996L11.2235 15.2896C11.6074 15.6796 12.2275 15.6796 12.6114 15.2896L17.1296 10.6996C17.5135 10.3096 17.5135 9.67956 17.1296 9.28956C16.7457 8.90956 16.1157 8.89956 15.7318 9.28956Z" fill="#919EAB"/>
</svg>
