<svg width="165" height="44" viewBox="0 0 165 44" fill="none" xmlns="http://www.w3.org/2000/svg">
<g id="Group 1000002646">
<path id="Vector" d="M1 39L5.25502 32.2978C9.83735 25.5957 18.3474 12.1913 27.1847 16.2126C36.0221 20.2339 44.5321 33.0737 53.3695 34.4142C62.2068 35.7546 70.7169 25.5957 79.5542 14.8722C88.3916 4.14871 96.9016 1.46784 105.739 6.82958C114.576 12.1913 123.086 25.5957 131.924 22.9148C140.761 20.2339 141.579 -2.0083 164 1.34294" stroke="#FCBF07" stroke-width="2" stroke-linecap="round"/>
<path id="Vector_2" d="M5.28112 30.9275L1 37.5504V43.2905H165V0.338969C142.442 -2.97261 141.618 19.0064 132.727 21.6555C123.835 24.3047 115.273 11.059 106.382 5.76067C97.49 0.462389 88.9277 3.11153 80.0361 13.7081C71.1446 24.3047 62.5823 34.3434 53.6908 33.0188C44.7992 31.6943 36.2369 19.0064 27.3454 15.0327C18.4538 11.059 9.89157 24.3047 5.28112 30.9275Z" fill="url(#paint0_linear_1_5759)"/>
</g>
<defs>
<linearGradient id="paint0_linear_1_5759" x1="54.0226" y1="2.5465" x2="55.5602" y2="40.8061" gradientUnits="userSpaceOnUse">
<stop stop-color="#FCBF07" stop-opacity="0.2"/>
<stop offset="1" stop-color="#FCBF07" stop-opacity="0"/>
</linearGradient>
</defs>
</svg>
