<svg width="22" height="22" viewBox="0 0 22 22" fill="none" xmlns="http://www.w3.org/2000/svg">
<path d="M11.0007 1.83331C9.18766 1.83331 7.41538 2.37093 5.90793 3.37818C4.40048 4.38542 3.22556 5.81706 2.53176 7.49205C1.83796 9.16704 1.65643 11.0101 2.01012 12.7883C2.36382 14.5665 3.23686 16.1998 4.51884 17.4818C5.80082 18.7638 7.43417 19.6368 9.21233 19.9905C10.9905 20.3442 12.8336 20.1627 14.5086 19.4689C16.1836 18.7751 17.6152 17.6002 18.6225 16.0927C19.6297 14.5853 20.1673 12.813 20.1673 11C20.1673 9.7962 19.9302 8.6042 19.4696 7.49205C19.0089 6.3799 18.3337 5.36937 17.4825 4.51817C16.6313 3.66696 15.6207 2.99175 14.5086 2.53108C13.3964 2.07042 12.2044 1.83331 11.0007 1.83331ZM14.9423 8.80915L10.7532 14.3091C10.6678 14.4201 10.5581 14.51 10.4326 14.5719C10.307 14.6339 10.169 14.6663 10.029 14.6666C9.88975 14.6674 9.75218 14.6364 9.6267 14.5761C9.50122 14.5157 9.39115 14.4276 9.30482 14.3183L7.06816 11.4675C6.99412 11.3724 6.93955 11.2636 6.90754 11.1474C6.87554 11.0312 6.86673 10.9099 6.88163 10.7903C6.89652 10.6707 6.93483 10.5552 6.99436 10.4504C7.05389 10.3456 7.13347 10.2536 7.22857 10.1796C7.42063 10.03 7.66422 9.96295 7.90575 9.99304C8.02535 10.0079 8.14084 10.0462 8.24563 10.1058C8.35042 10.1653 8.44246 10.2449 8.51649 10.34L10.0107 12.2466L13.4757 7.66331C13.5491 7.56701 13.6408 7.48611 13.7455 7.42524C13.8502 7.36437 13.9658 7.32472 14.0858 7.30854C14.2059 7.29237 14.3279 7.3 14.445 7.33098C14.562 7.36197 14.6719 7.41572 14.7682 7.48915C14.8645 7.56258 14.9454 7.65426 15.0062 7.75895C15.0671 7.86365 15.1068 7.97931 15.1229 8.09933C15.1391 8.21935 15.1315 8.34138 15.1005 8.45845C15.0695 8.57552 15.0158 8.68534 14.9423 8.78165V8.80915Z" fill="white"/>
</svg>
