<svg width="175" height="20" viewBox="0 0 175 20" fill="none" xmlns="http://www.w3.org/2000/svg">
<g clip-path="url(#clip0_134_623)">
<path d="M0.128182 0.416466C0.064079 0.640823 0.0320277 2.91647 0.064079 5.44852L0.160233 10.096L6.66664 10.1921L13.141 10.2562V11.6985V13.1408H9.61536H6.08972V12.3395C6.08972 11.6985 5.92946 11.5383 5.28844 11.5383C4.58331 11.5383 4.48716 11.6665 4.48716 12.628C4.48716 14.5511 4.96793 14.7434 9.58331 14.7434C12.3077 14.7434 13.782 14.6152 14.0384 14.3588C14.2628 14.1344 14.4231 13.1408 14.4231 12.1152C14.4231 10.6729 14.5192 10.2562 14.9038 10.2562C15.2884 10.2562 15.3846 10.769 15.3846 12.9806V15.7049H9.4551H3.52562V14.2626C3.52562 13.0447 3.42946 12.8203 2.88459 12.8203C2.33972 12.8203 2.24357 13.0447 2.24357 14.519C2.24357 15.4485 2.40382 16.378 2.62818 16.6024C2.91664 16.8908 4.90382 16.987 9.67946 16.987C17.4679 16.987 16.9872 17.2434 16.9872 13.0126C16.9872 10.769 17.0833 10.2562 17.4679 10.2562C17.8846 10.2562 17.9487 10.8972 17.9487 14.1024V17.9485H9.61536H1.28203V16.0254C1.28203 14.2947 1.21793 14.1024 0.641002 14.1024C0.0320277 14.1024 -0.0320748 14.2626 0.064079 16.5703L0.160233 19.0703H9.61536H19.0705L19.1666 14.4549C19.2307 11.346 19.1346 9.71134 18.8782 9.42288C18.5897 9.07031 17.2115 8.97416 12.3077 8.97416H6.08972V7.53185V6.08954H9.61536H13.141V6.89082C13.141 7.46775 13.3013 7.69211 13.782 7.69211C14.3269 7.69211 14.4231 7.46775 14.4231 6.41006C14.4231 5.48057 14.2628 5.0639 13.8141 4.80749C13.4615 4.64723 11.4423 4.48698 9.3269 4.48698C4.74357 4.48698 4.48716 4.61518 4.48716 7.24339C4.48716 8.55749 4.35895 8.97416 4.00639 8.97416C3.62177 8.97416 3.52562 8.46134 3.52562 6.2498V3.52544H9.4551H15.3846V4.96775C15.3846 6.28185 15.4487 6.41006 16.1859 6.41006C16.9551 6.41006 16.9872 6.3139 16.9872 4.71134C16.9872 3.78185 16.8269 2.85236 16.6025 2.628C16.0577 2.08313 3.17305 2.08313 2.62818 2.628C2.37177 2.88441 2.24357 4.10236 2.24357 5.99339C2.24357 8.42929 2.14741 8.97416 1.7628 8.97416C1.37818 8.97416 1.28203 8.33313 1.28203 5.128V1.28185H9.61536H17.9487V3.20493C17.9487 4.9357 18.0128 5.128 18.5897 5.128C19.1987 5.128 19.2628 4.96775 19.1666 2.628L19.0705 0.160055L9.67946 0.0639019C2.17946 -0.000202179 0.256387 0.0639019 0.128182 0.416466Z" fill="white"/>
<path d="M35.7692 2.30742C35.3846 2.85229 35.2564 3.84588 35.2564 6.31383C35.2564 10.8972 35.2884 10.8972 40.9294 10.8972H45.1923V12.9805V15.0638H41.3461H37.5V14.1023C37.5 13.2049 37.4359 13.1407 36.2179 13.1407H34.9359V14.7433C34.9359 15.9292 35.0961 16.5061 35.5769 16.9869C36.1538 17.5638 36.6346 17.6279 41.282 17.6279C44.0384 17.6279 46.4743 17.4997 46.6666 17.3715C47.4679 16.8587 47.7564 15.6087 47.7564 12.8202C47.7564 10.16 47.6923 9.83947 46.9551 9.13434C46.2179 8.36511 46.0256 8.33306 41.9871 8.33306H37.8205V6.24972V4.16639H41.5064H45.1923V5.12793C45.1923 6.02536 45.2564 6.08947 46.4743 6.08947H47.7564V4.55101C47.7564 3.42921 47.5641 2.82024 47.1153 2.30742C46.4743 1.63434 46.1859 1.60229 41.3461 1.60229C36.4423 1.60229 36.25 1.63434 35.7692 2.30742Z" fill="white"/>
<path d="M62.1795 6.60229L65.3846 11.5702V14.6151V17.6279H66.6667H67.9487V14.3587V11.0895L70.9936 6.34588L74.0064 1.60229H72.4679H70.9295L68.7821 5.12793C67.5962 7.05101 66.5705 8.65357 66.5064 8.65357C66.4423 8.65357 65.4167 7.05101 64.2628 5.12793L62.1154 1.60229H60.5449H59.0064L62.1795 6.60229Z" fill="white"/>
<path d="M85.2564 9.61511V17.6279H86.5385H87.8205L87.8846 11.7305L87.9808 5.83306L92.4679 11.7305L96.9551 17.5959H98.3333L99.6795 17.6279V9.61511V1.60229H98.3974H97.1154V7.56383V13.5254L92.5641 7.56383L87.9808 1.63434L86.6346 1.60229H85.2564V9.61511Z" fill="white"/>
<path d="M116.218 4.55101C115.609 6.18562 114.231 9.77537 113.205 12.4997L111.282 17.4677L112.244 17.5638C113.686 17.7241 113.974 17.4997 114.583 15.7049L115.128 14.0702L118.654 14.1664L122.212 14.2625L122.853 15.9613C123.462 17.5638 123.526 17.6279 124.712 17.6279C125.417 17.6279 125.962 17.5318 125.962 17.4036C125.962 17.2754 124.615 13.6856 123.013 9.39075L120.032 1.60229H118.718H117.372L116.218 4.55101ZM118.846 11.4741C117.596 11.5382 116.506 11.5061 116.442 11.41C116.346 11.3138 116.795 9.83947 117.468 8.14075L118.686 5.03178L119.872 8.20485L121.09 11.3779L118.846 11.4741Z" fill="white"/>
<path d="M137.82 9.61511V17.6279H139.103H140.385V14.7433V11.8587H144.006C149.776 11.8587 150.865 10.8651 150.545 5.80101C150.417 3.62152 150.32 3.33306 149.391 2.49972L148.397 1.60229H143.109H137.82V9.61511ZM147.756 4.77536C148.269 5.7369 148.141 8.20485 147.564 8.78178C147.179 9.19844 146.346 9.2946 143.718 9.2946H140.385V6.73049V4.16639H143.91C147.051 4.16639 147.436 4.23049 147.756 4.77536Z" fill="white"/>
<path d="M163.173 2.43553C162.596 3.17271 162.5 3.74963 162.5 6.31374C162.5 9.07015 162.564 9.39066 163.301 10.0958C164.038 10.865 164.231 10.8971 168.269 10.8971H172.436V12.9804V15.0637H168.59H164.744V14.1022C164.744 13.2048 164.647 13.1407 163.622 13.1407H162.5V14.8394C162.5 17.5317 162.692 17.6278 168.814 17.6278C175.256 17.6278 175 17.8201 175 13.0445C175 8.30091 175.064 8.33297 169.391 8.33297H165.064V6.24963V4.1663H168.75H172.436V5.12784C172.436 6.02527 172.5 6.08938 173.718 6.08938H175V4.39066C175 1.69835 174.776 1.6022 168.814 1.6022H163.814L163.173 2.43553Z" fill="white"/>
</g>
<defs>
<clipPath id="clip0_134_623">
<rect width="175" height="19.2308" fill="white"/>
</clipPath>
</defs>
</svg>
