<svg width="14" height="14" viewBox="0 0 14 14" fill="none" xmlns="http://www.w3.org/2000/svg">
<path d="M6.78 0.21875C3.0355 0.21875 0 3.25481 0 7C0 10.7452 3.0355 13.7812 6.78 13.7812C10.5245 13.7812 13.56 10.7452 13.56 7C13.56 3.25481 10.5245 0.21875 6.78 0.21875ZM9.92264 4.83055C9.82061 5.90283 9.37912 8.50494 9.15442 9.70594C9.05939 10.2141 8.87223 10.3845 8.69108 10.4012C8.29741 10.4374 7.99838 10.1409 7.61703 9.89089C7.02031 9.49966 6.68319 9.25611 6.10394 8.87433C5.43455 8.43314 5.8685 8.19074 6.24998 7.79425C6.34983 7.69054 8.0846 6.11234 8.11818 5.96917C8.12236 5.95126 8.12638 5.8844 8.08663 5.84929C8.04688 5.81418 7.98848 5.82608 7.94624 5.83562C7.88641 5.84922 6.93312 6.47942 5.08639 7.72622C4.81583 7.91205 4.57075 8.0026 4.35115 7.99786C4.10906 7.99263 3.6434 7.86097 3.29721 7.7484C2.87262 7.61037 2.53515 7.53739 2.56453 7.30294C2.57984 7.18081 2.74798 7.05594 3.06893 6.92833C5.04545 6.06704 6.36343 5.4992 7.02288 5.22482C8.90575 4.4415 9.29699 4.30544 9.55201 4.3009C9.60811 4.29997 9.73351 4.31386 9.81473 4.37979C9.86876 4.42675 9.9032 4.49228 9.91124 4.56343C9.925 4.65176 9.92883 4.74136 9.92264 4.83055Z" fill="#FFC107"/>
</svg>
