<svg width="32" height="32" viewBox="0 0 32 32" fill="none" xmlns="http://www.w3.org/2000/svg">
<rect width="32" height="32" rx="8" fill="#282828"/>
<path d="M23.0176 11.0784C22.4913 11.4644 20.4211 12.903 16.2455 12.903C12.0699 12.903 9.96461 11.4644 9.33301 11.0784V12.2012C9.35406 12.2935 9.45161 12.6746 9.82425 12.9381C10.225 13.2216 10.6513 13.1623 10.7366 13.1486C10.3622 13.2655 9.98812 13.3826 9.61372 13.4995C9.70776 13.6458 9.91408 13.923 10.2804 14.1311C10.6099 14.3184 10.9176 14.364 11.0875 14.3767V18.4118C11.1541 19.0939 11.4253 20.9342 12.877 22.6223C14.0774 24.0178 15.4778 24.6037 16.1402 24.8329C16.8017 24.6153 18.2648 24.0343 19.5088 22.5872C20.9762 20.8799 21.2365 19.0164 21.2983 18.3416V14.4118C21.4888 14.3767 21.7688 14.3023 22.0702 14.1311C22.4166 13.9346 22.6429 13.6949 22.772 13.5346C22.3976 13.4177 22.0236 13.3005 21.6492 13.1837C21.7411 13.1932 22.1997 13.2297 22.5966 12.903C22.8924 12.6595 22.9882 12.35 23.0176 12.2363V11.0784Z" fill="#86888C" stroke="#86888C" stroke-width="0.586744" stroke-miterlimit="10"/>
<path d="M15.9116 8.04462C15.8106 8.04848 15.6579 8.06673 15.4877 8.1362C15.2793 8.22111 15.14 8.34428 15.0639 8.42286C14.9916 8.41234 14.5824 8.34673 14.3133 7.97024C14.007 7.54181 14.1358 7.06672 14.153 7.00743C14.1533 6.98707 14.1537 6.89971 14.0958 6.8583C14.0389 6.81795 13.9603 6.84567 13.9238 6.8583C13.7515 6.91865 13.4701 7.2355 13.3852 7.6948C13.2705 8.31515 13.588 8.79691 13.6259 8.85234C13.8442 9.17234 14.1291 9.32709 14.2677 9.39094L14.2793 9.50568L14.2221 9.55164V9.84955L14.3368 9.94112C14.2695 10.0569 14.1796 10.2401 14.1305 10.4797C14.094 10.6569 14.0175 11.0303 14.1993 11.385C14.2393 11.4629 14.3382 11.6306 14.6119 11.8204C15.2007 12.2292 15.8997 12.2559 16.2509 12.2443V7.7755C16.2029 7.7762 16.1337 7.78252 16.0562 7.80988C15.9983 7.83024 15.9523 7.8562 15.9186 7.87866L15.913 8.04497L15.9116 8.04462Z" fill="#86888C" stroke="#86888C" stroke-width="0.586744" stroke-miterlimit="10"/>
<path d="M16.5688 8.04072C16.6699 8.04458 16.8225 8.06282 16.9927 8.1323C17.2011 8.21721 17.3404 8.34036 17.4165 8.41896C17.4888 8.40845 17.898 8.34282 18.1671 7.96633C18.4734 7.53791 18.3446 7.06282 18.3275 7.00352C18.3271 6.98317 18.3268 6.8958 18.3847 6.8544C18.4415 6.81404 18.5201 6.84177 18.5566 6.8544C18.7289 6.91475 19.0103 7.23159 19.0952 7.69089C19.2099 8.31124 18.8924 8.79299 18.8545 8.84844C18.6362 9.16845 18.3513 9.32317 18.2127 9.38704L18.2011 9.50178L18.2583 9.54775V9.84563L18.1436 9.93722C18.211 10.053 18.3008 10.2362 18.3499 10.4758C18.3864 10.653 18.4629 11.0263 18.2811 11.3811C18.2411 11.459 18.1422 11.6267 17.8685 11.8165C17.2797 12.2253 16.5807 12.252 16.2295 12.2404V7.77124C16.2776 7.77194 16.3467 7.77826 16.4242 7.80563C16.4821 7.82598 16.5281 7.85194 16.5618 7.8744L16.5674 8.04072H16.5688Z" fill="#86888C" stroke="#86888C" stroke-width="0.586744" stroke-miterlimit="10"/>
<path d="M18.7774 15.7489L18.7774 15.7489C18.5525 16.2324 18.1713 16.5452 17.9227 16.7126C17.891 16.4465 17.7843 16.024 17.4229 15.608L17.4229 15.608C17.0827 15.2164 16.6496 14.9836 16.2842 14.846H18.9692C18.9837 15.0531 18.9585 15.3598 18.7774 15.7489Z" fill="#282828" stroke="#86888C" stroke-width="0.187458"/>
<path d="M15.3641 14.8484V20.0597C15.3641 21.0309 14.6001 21.8256 13.6406 21.8744V16.6631C13.6406 15.6919 14.4046 14.8972 15.3641 14.8484Z" fill="#282828" stroke="#86888C" stroke-width="0.187458"/>
<path d="M16.5735 17.5003C16.9615 17.5003 17.2759 17.8148 17.2759 18.2027C17.2759 18.5906 16.9615 18.9051 16.5735 18.9051C16.1856 18.9051 15.8711 18.5906 15.8711 18.2027C15.8711 17.8148 16.1856 17.5003 16.5735 17.5003Z" fill="#282828" stroke="#86888C" stroke-width="0.187458"/>
</svg>
