<svg width="32" height="32" viewBox="0 0 32 32" fill="none" xmlns="http://www.w3.org/2000/svg">
<rect width="32" height="32" rx="8" fill="#282828"/>
<mask id="mask0_2_103" style="mask-type:alpha" maskUnits="userSpaceOnUse" x="6" y="6" width="20" height="20">
<g clip-path="url(#clip0_2_103)">
<path d="M25.5277 23.5986C25.4076 23.8643 25.2227 23.8976 25.0154 23.6906C24.2497 22.9302 23.4893 22.1613 22.72 21.4025C22.2033 20.8926 21.386 21.0659 21.1611 21.7295C21.033 22.1073 21.1339 22.4355 21.4112 22.7132C22.1607 23.4638 22.9104 24.2137 23.6602 24.963C23.9231 25.2264 23.8907 25.3969 23.5513 25.5421C23.0221 25.7712 22.4481 25.8778 21.8719 25.8539C21.2958 25.83 20.7326 25.6762 20.2242 25.4041C19.7158 25.132 19.2755 24.7485 18.9361 24.2824C18.5967 23.8162 18.367 23.2794 18.2641 22.712C18.1559 22.1537 18.1812 21.5777 18.3382 21.031C18.3782 20.8978 18.3542 20.8165 18.2581 20.7196C17.5133 19.9836 16.7752 19.2412 16.034 18.5019C15.9867 18.4602 15.9366 18.4218 15.8839 18.3871L18.3674 15.8972C18.4118 15.9396 18.4635 15.9868 18.5127 16.0364C19.2531 16.7765 19.9936 17.5149 20.7316 18.2594C20.8233 18.3522 20.9001 18.3722 21.0254 18.3394C23.2327 17.7551 25.3936 19.1155 25.8063 21.3556C25.9496 22.1277 25.8475 22.8797 25.5277 23.5986Z" fill="white"/>
<path d="M15.9015 13.4265L13.3871 15.8827C12.6747 15.1623 11.9735 14.4599 11.2779 13.7503C11.183 13.6534 11.1034 13.6274 10.9677 13.663C8.71434 14.261 6.51102 12.8065 6.17362 10.4923C6.06876 9.78233 6.17395 9.05718 6.4762 8.40626C6.60228 8.12929 6.78078 8.09727 6.99931 8.3154C7.76457 9.07826 8.52503 9.84632 9.29389 10.6052C9.83502 11.1387 10.6799 10.9074 10.8656 10.1761C10.9557 9.8219 10.8304 9.52493 10.5763 9.27197C9.83875 8.53767 9.10284 7.80203 8.36854 7.06505C8.33532 7.03183 8.3009 7.00021 8.26968 6.96579C8.10598 6.78248 8.1368 6.60077 8.35893 6.49951C8.93247 6.23775 9.53644 6.10688 10.1656 6.1501C11.9467 6.27298 13.2955 7.41886 13.7073 9.1519C13.849 9.75059 13.8342 10.3757 13.6645 10.967C13.6277 11.0995 13.6505 11.1823 13.7486 11.2792C14.4554 11.9764 15.1562 12.6812 15.9015 13.4265Z" fill="white"/>
<path d="M25.8363 13.4465C25.3232 13.9801 24.7989 14.5024 24.2634 15.0134C24.0172 15.248 23.6306 15.2067 23.3992 14.9606C23.2863 14.845 23.223 14.6898 23.223 14.5281C23.223 14.3665 23.2863 14.2113 23.3992 14.0957C23.4573 14.0324 23.5273 13.9808 23.6126 13.9052C23.1175 13.5081 22.692 13.0731 22.1405 12.8081C22.0436 12.7621 21.9075 12.7212 21.8167 12.7537C21.4645 12.8797 21.2095 12.7248 20.967 12.5079C20.9147 12.4555 20.866 12.3996 20.8213 12.3406L15.0378 18.1381L13.6598 16.7773L19.3988 11.0322C19.312 10.8541 19.0922 10.5711 19.1363 10.3634C19.1554 10.2931 19.1843 10.2257 19.2219 10.1633C19.4657 9.70583 19.4677 9.24756 19.262 8.77167C19.0246 8.21614 18.5972 7.83191 18.092 7.52692C17.424 7.12268 16.6864 6.91296 15.9219 6.77367C15.7855 6.74846 15.653 6.70083 15.5185 6.66361L15.5113 6.58676C15.5981 6.53637 15.6879 6.49146 15.7803 6.45228C16.6384 6.14529 17.4973 6.21213 18.3498 6.47149C19.5885 6.84692 20.6388 7.55214 21.6274 8.36463C22.4715 9.05744 23.2607 9.80309 23.7927 10.7729C23.9508 11.0606 24.1449 11.3816 24.1481 11.6894C24.1529 12.1657 24.4335 12.4563 24.6756 12.8565C24.7533 12.7574 24.8363 12.6626 24.9241 12.5724C25.1875 12.3286 25.5581 12.3342 25.8047 12.578C26.0428 12.8101 26.0736 13.1999 25.8363 13.4465Z" fill="white"/>
<path d="M14.4146 19.1599C13.6408 20.025 12.867 20.8888 12.0932 21.7515C10.971 23.0015 9.84801 24.2508 8.7244 25.4993C8.42943 25.8271 8.15726 25.8323 7.84027 25.5165C7.30128 24.981 6.76323 24.4437 6.2261 23.9048C5.91952 23.5978 5.92232 23.3288 6.24812 23.0362C7.77597 21.6642 9.30489 20.2938 10.8349 18.925C11.1879 18.6088 11.5389 18.2906 11.8919 17.9748C12.0672 17.8179 12.2377 17.6546 12.4198 17.5061C12.5899 17.3664 12.758 17.1483 12.9962 17.1383C13.2455 17.1275 13.5069 17.3468 13.669 17.5153C13.8979 17.7525 14.1267 17.9901 14.3554 18.2281C14.4311 18.2998 14.4967 18.3814 14.5503 18.4707C14.674 18.6992 14.5771 18.9782 14.4146 19.1599Z" fill="white"/>
</g>
</mask>
<g mask="url(#mask0_2_103)">
<rect x="6" y="6" width="20" height="20" fill="#86888C"/>
</g>
<defs>
<clipPath id="clip0_2_103">
<rect width="20" height="19.7158" fill="white" transform="translate(6 6.14209)"/>
</clipPath>
</defs>
</svg>
