<svg width="14" height="12" viewBox="0 0 14 12" fill="none" xmlns="http://www.w3.org/2000/svg">
<path d="M12.5609 3.14847C12.5698 3.27283 12.5698 3.39722 12.5698 3.52158C12.5698 7.3147 9.68275 11.6853 4.40609 11.6853C2.78045 11.6853 1.27031 11.2144 0 10.3972C0.230973 10.4238 0.453031 10.4327 0.692891 10.4327C2.03424 10.4327 3.26903 9.9797 4.25507 9.20686C2.99365 9.1802 1.93654 8.35406 1.57232 7.217C1.75 7.24363 1.92765 7.26141 2.11422 7.26141C2.37182 7.26141 2.62946 7.22586 2.86929 7.16371C1.55457 6.89719 0.568504 5.74238 0.568504 4.34771V4.31219C0.950469 4.52539 1.39467 4.65864 1.86545 4.67638C1.0926 4.16115 0.586277 3.28172 0.586277 2.28679C0.586277 1.7538 0.728383 1.26522 0.977129 0.838825C2.38957 2.57994 4.51268 3.71697 6.89336 3.84136C6.84895 3.62816 6.82229 3.4061 6.82229 3.18402C6.82229 1.60278 8.10149 0.314728 9.69158 0.314728C10.5177 0.314728 11.2639 0.661173 11.788 1.22082C12.4365 1.09646 13.0583 0.856599 13.6091 0.527927C13.3959 1.19418 12.9428 1.75383 12.3477 2.10913C12.9251 2.04698 13.4847 1.88705 13.9999 1.66499C13.6091 2.23349 13.1205 2.73982 12.5609 3.14847Z" fill="#FFC107"/>
</svg>
