<svg width="22" height="18" viewBox="0 0 22 18" fill="none" xmlns="http://www.w3.org/2000/svg">
<path d="M21.46 2.23828C20.69 2.58828 19.86 2.81828 19 2.92828C19.88 2.39828 20.56 1.55828 20.88 0.548281C20.05 1.04828 19.13 1.39828 18.16 1.59828C17.37 0.738281 16.26 0.238281 15 0.238281C12.65 0.238281 10.73 2.15828 10.73 4.52828C10.73 4.86828 10.77 5.19828 10.84 5.50828C7.28004 5.32828 4.11004 3.61828 2.00004 1.02828C1.63004 1.65828 1.42004 2.39828 1.42004 3.17828C1.42004 4.66828 2.17004 5.98828 3.33004 6.73828C2.62004 6.73828 1.96004 6.53828 1.38004 6.23828V6.26828C1.38004 8.34828 2.86004 10.0883 4.82004 10.4783C4.19077 10.6505 3.53013 10.6745 2.89004 10.5483C3.16165 11.4008 3.69358 12.1467 4.41106 12.6812C5.12854 13.2157 5.99549 13.512 6.89004 13.5283C5.37367 14.7287 3.49404 15.3776 1.56004 15.3683C1.22004 15.3683 0.880039 15.3483 0.540039 15.3083C2.44004 16.5283 4.70004 17.2383 7.12004 17.2383C15 17.2383 19.33 10.6983 19.33 5.02828C19.33 4.83828 19.33 4.65828 19.32 4.46828C20.16 3.86828 20.88 3.10828 21.46 2.23828Z" fill="#FCBF07"/>
</svg>
