<svg width="12" height="8" viewBox="0 0 12 8" fill="none" xmlns="http://www.w3.org/2000/svg">
<path d="M9.7318 1.29004L5.91256 5.17004L2.09332 1.29004C2.00226 1.19733 1.8941 1.12377 1.77502 1.07358C1.65594 1.02339 1.52828 0.997559 1.39936 0.997559C1.27044 0.997559 1.14278 1.02339 1.0237 1.07358C0.904624 1.12377 0.796458 1.19733 0.7054 1.29004C0.321507 1.68004 0.321507 2.31004 0.7054 2.70004L5.22352 7.29004C5.60741 7.68004 6.22755 7.68004 6.61144 7.29004L11.1296 2.70004C11.5135 2.31004 11.5135 1.68004 11.1296 1.29004C10.7457 0.910044 10.1157 0.900044 9.7318 1.29004Z" fill="#919EAB"/>
</svg>
