<svg width="22" height="23" viewBox="0 0 22 23" fill="none" xmlns="http://www.w3.org/2000/svg">
<g opacity="0.9">
<path d="M20.6795 15.5305L13.6487 3.87054C13.3644 3.42579 12.9727 3.05977 12.5097 2.80623C12.0467 2.55269 11.5274 2.4198 10.9995 2.4198C10.4717 2.4198 9.95231 2.55269 9.48933 2.80623C9.02635 3.05977 8.63465 3.42579 8.35036 3.87054L1.31952 15.5305C1.07115 15.9446 0.936162 16.4167 0.928116 16.8994C0.920071 17.3821 1.03926 17.8585 1.27369 18.2805C1.54473 18.7556 1.93704 19.1502 2.41054 19.424C2.88404 19.6978 3.42174 19.841 3.96869 19.8389H18.0304C18.5737 19.8447 19.109 19.707 19.5822 19.4399C20.0553 19.1727 20.4497 18.7855 20.7254 18.3172C20.9667 17.8908 21.0897 17.4076 21.0816 16.9176C21.0736 16.4277 20.9347 15.9488 20.6795 15.5305ZM10.9995 16.1722C10.8182 16.1722 10.641 16.1184 10.4902 16.0177C10.3395 15.917 10.222 15.7738 10.1526 15.6063C10.0833 15.4388 10.0651 15.2545 10.1005 15.0767C10.1358 14.8989 10.2231 14.7356 10.3513 14.6074C10.4795 14.4792 10.6429 14.3919 10.8207 14.3565C10.9985 14.3211 11.1828 14.3393 11.3503 14.4086C11.5178 14.478 11.661 14.5955 11.7617 14.7463C11.8624 14.897 11.9162 15.0742 11.9162 15.2555C11.9162 15.4987 11.8196 15.7318 11.6477 15.9037C11.4758 16.0756 11.2426 16.1722 10.9995 16.1722ZM11.9162 12.5055C11.9162 12.7487 11.8196 12.9818 11.6477 13.1537C11.4758 13.3256 11.2426 13.4222 10.9995 13.4222C10.7564 13.4222 10.5233 13.3256 10.3513 13.1537C10.1794 12.9818 10.0829 12.7487 10.0829 12.5055V8.83887C10.0829 8.59576 10.1794 8.3626 10.3513 8.19069C10.5233 8.01878 10.7564 7.92221 10.9995 7.92221C11.2426 7.92221 11.4758 8.01878 11.6477 8.19069C11.8196 8.3626 11.9162 8.59576 11.9162 8.83887V12.5055Z" fill="#FFE16A"/>
</g>
</svg>
