<svg width="14" height="14" viewBox="0 0 14 14" fill="none" xmlns="http://www.w3.org/2000/svg">
<path d="M9.625 7C9.625 7.60703 9.59219 8.19219 9.53477 8.75H4.46523C4.40508 8.19219 4.375 7.60703 4.375 7C4.375 6.39297 4.40781 5.80781 4.46523 5.25H9.53477C9.59492 5.80781 9.625 6.39297 9.625 7ZM10.4125 5.25H13.7785C13.9234 5.81055 14 6.3957 14 7C14 7.6043 13.9234 8.18945 13.7785 8.75H10.4125C10.4699 8.18672 10.5 7.60156 10.5 7C10.5 6.39844 10.4699 5.81328 10.4125 5.25ZM13.4914 4.375H10.3004C10.027 2.62773 9.48555 1.16484 8.78828 0.229687C10.9293 0.795703 12.6711 2.34883 13.4887 4.375H13.4914ZM9.41445 4.375H4.58555C4.75234 3.37969 5.00938 2.49922 5.32383 1.78555C5.61094 1.14023 5.93086 0.672656 6.23984 0.377344C6.54609 0.0875 6.80039 0 7 0C7.19961 0 7.45391 0.0875 7.76016 0.377344C8.06914 0.672656 8.38906 1.14023 8.67617 1.78555C8.99336 2.49648 9.24766 3.37695 9.41445 4.375ZM3.69961 4.375H0.508594C1.32891 2.34883 3.06797 0.795703 5.21172 0.229687C4.51445 1.16484 3.97305 2.62773 3.69961 4.375ZM0.221484 5.25H3.5875C3.53008 5.81328 3.5 6.39844 3.5 7C3.5 7.60156 3.53008 8.18672 3.5875 8.75H0.221484C0.0765625 8.18945 0 7.6043 0 7C0 6.3957 0.0765625 5.81055 0.221484 5.25ZM5.32383 12.2117C5.00664 11.5008 4.75234 10.6203 4.58555 9.625H9.41445C9.24766 10.6203 8.99062 11.5008 8.67617 12.2117C8.38906 12.857 8.06914 13.3246 7.76016 13.6199C7.45391 13.9125 7.19961 14 7 14C6.80039 14 6.54609 13.9125 6.23984 13.6227C5.93086 13.3273 5.61094 12.8598 5.32383 12.2145V12.2117ZM3.69961 9.625C3.97305 11.3723 4.51445 12.8352 5.21172 13.7703C3.06797 13.2043 1.32891 11.6512 0.508594 9.625H3.69961ZM13.4914 9.625C12.6711 11.6512 10.932 13.2043 8.79102 13.7703C9.48828 12.8352 10.027 11.3723 10.3031 9.625H13.4914Z" fill="#FFC107"/>
</svg>
