<svg width="14" height="14" viewBox="0 0 14 14" fill="none" xmlns="http://www.w3.org/2000/svg">
<path d="M3.86754 2.21758C1.64176 2.25586 1.28629 2.31601 0.889808 2.7207C0.301917 3.31953 0.0503543 4.41055 0.00933868 6.5625C-0.0207394 8.0664 0.0749637 9.30508 0.274573 10.0625C0.452307 10.7242 0.761292 11.2465 1.11129 11.4652C1.57887 11.7578 2.22418 11.7961 7.02575 11.7934C11.8027 11.7934 12.4179 11.7605 12.8773 11.4707C13.3285 11.1863 13.6675 10.5027 13.8316 9.54023C13.9492 8.8539 13.982 8.31523 13.982 7.01367C13.982 5.79961 13.9656 5.42773 13.8754 4.75781C13.7386 3.7543 13.4925 3.10351 13.0906 2.7043C12.8089 2.41992 12.5027 2.32148 11.7562 2.26953C10.7144 2.19844 6.52535 2.17109 3.86754 2.21758ZM7.52614 5.74219C8.66364 6.42578 9.59606 6.9918 9.59606 7C9.59606 7.01094 7.02028 8.5668 5.35504 9.56484L5.2484 9.62773V7V4.37226L5.35504 4.43515C5.41246 4.4707 6.38864 5.05859 7.52614 5.74219Z" fill="#FCBF07"/>
</svg>
